<?xml version="1.0" encoding="utf-8" standalone="no"?>
<!DOCTYPE svg PUBLIC "-//W3C//DTD SVG 1.1//EN"
  "http://www.w3.org/Graphics/SVG/1.1/DTD/svg11.dtd">
<!-- Created with matplotlib (http://matplotlib.org/) -->
<svg height="345.6pt" version="1.1" viewBox="0 0 460.8 345.6" width="460.8pt" xmlns="http://www.w3.org/2000/svg" xmlns:xlink="http://www.w3.org/1999/xlink">
 <defs>
  <style type="text/css">
*{stroke-linecap:butt;stroke-linejoin:round;}
  </style>
 </defs>
 <g id="figure_1">
  <g id="patch_1">
   <path d="M 0 345.6 
L 460.8 345.6 
L 460.8 0 
L 0 0 
z
" style="fill:#ffffff;"/>
  </g>
  <g id="axes_1">
   <g id="patch_2">
    <path d="M 77.524 317.72 
L 381.924 317.72 
L 381.924 13.32 
L 77.524 13.32 
z
" style="fill:#ffffff;"/>
   </g>
   <g id="QuadMesh_1">
    <path clip-path="url(#p48fc1d241e)" d="M 83.377846 311.866154 
L 112.647077 311.866154 
L 112.647077 282.596923 
L 83.377846 282.596923 
L 83.377846 311.866154 
"/>
    <path clip-path="url(#p48fc1d241e)" d="M 112.647077 311.866154 
L 141.916308 311.866154 
L 141.916308 282.596923 
L 112.647077 282.596923 
L 112.647077 311.866154 
" style="fill:#d3d3d3;"/>
    <path clip-path="url(#p48fc1d241e)" d="M 141.916308 311.866154 
L 171.185538 311.866154 
L 171.185538 282.596923 
L 141.916308 282.596923 
L 141.916308 311.866154 
" style="fill:#d3d3d3;"/>
    <path clip-path="url(#p48fc1d241e)" d="M 171.185538 311.866154 
L 200.454769 311.866154 
L 200.454769 282.596923 
L 171.185538 282.596923 
L 171.185538 311.866154 
"/>
    <path clip-path="url(#p48fc1d241e)" d="M 200.454769 311.866154 
L 229.724 311.866154 
L 229.724 282.596923 
L 200.454769 282.596923 
L 200.454769 311.866154 
"/>
    <path clip-path="url(#p48fc1d241e)" d="M 229.724 311.866154 
L 258.993231 311.866154 
L 258.993231 282.596923 
L 229.724 282.596923 
L 229.724 311.866154 
" style="fill:#d3d3d3;"/>
    <path clip-path="url(#p48fc1d241e)" d="M 258.993231 311.866154 
L 288.262462 311.866154 
L 288.262462 282.596923 
L 258.993231 282.596923 
L 258.993231 311.866154 
"/>
    <path clip-path="url(#p48fc1d241e)" d="M 288.262462 311.866154 
L 317.531692 311.866154 
L 317.531692 282.596923 
L 288.262462 282.596923 
L 288.262462 311.866154 
"/>
    <path clip-path="url(#p48fc1d241e)" d="M 317.531692 311.866154 
L 346.800923 311.866154 
L 346.800923 282.596923 
L 317.531692 282.596923 
L 317.531692 311.866154 
" style="fill:#d3d3d3;"/>
    <path clip-path="url(#p48fc1d241e)" d="M 346.800923 311.866154 
L 376.070154 311.866154 
L 376.070154 282.596923 
L 346.800923 282.596923 
L 346.800923 311.866154 
" style="fill:#d3d3d3;"/>
    <path clip-path="url(#p48fc1d241e)" d="M 83.377846 282.596923 
L 112.647077 282.596923 
L 112.647077 253.327692 
L 83.377846 253.327692 
L 83.377846 282.596923 
" style="fill:#d3d3d3;"/>
    <path clip-path="url(#p48fc1d241e)" d="M 112.647077 282.596923 
L 141.916308 282.596923 
L 141.916308 253.327692 
L 112.647077 253.327692 
L 112.647077 282.596923 
"/>
    <path clip-path="url(#p48fc1d241e)" d="M 141.916308 282.596923 
L 171.185538 282.596923 
L 171.185538 253.327692 
L 141.916308 253.327692 
L 141.916308 282.596923 
" style="fill:#d3d3d3;"/>
    <path clip-path="url(#p48fc1d241e)" d="M 171.185538 282.596923 
L 200.454769 282.596923 
L 200.454769 253.327692 
L 171.185538 253.327692 
L 171.185538 282.596923 
" style="fill:#d3d3d3;"/>
    <path clip-path="url(#p48fc1d241e)" d="M 200.454769 282.596923 
L 229.724 282.596923 
L 229.724 253.327692 
L 200.454769 253.327692 
L 200.454769 282.596923 
" style="fill:#d3d3d3;"/>
    <path clip-path="url(#p48fc1d241e)" d="M 229.724 282.596923 
L 258.993231 282.596923 
L 258.993231 253.327692 
L 229.724 253.327692 
L 229.724 282.596923 
"/>
    <path clip-path="url(#p48fc1d241e)" d="M 258.993231 282.596923 
L 288.262462 282.596923 
L 288.262462 253.327692 
L 258.993231 253.327692 
L 258.993231 282.596923 
" style="fill:#d3d3d3;"/>
    <path clip-path="url(#p48fc1d241e)" d="M 288.262462 282.596923 
L 317.531692 282.596923 
L 317.531692 253.327692 
L 288.262462 253.327692 
L 288.262462 282.596923 
" style="fill:#d3d3d3;"/>
    <path clip-path="url(#p48fc1d241e)" d="M 317.531692 282.596923 
L 346.800923 282.596923 
L 346.800923 253.327692 
L 317.531692 253.327692 
L 317.531692 282.596923 
"/>
    <path clip-path="url(#p48fc1d241e)" d="M 346.800923 282.596923 
L 376.070154 282.596923 
L 376.070154 253.327692 
L 346.800923 253.327692 
L 346.800923 282.596923 
"/>
    <path clip-path="url(#p48fc1d241e)" d="M 83.377846 253.327692 
L 112.647077 253.327692 
L 112.647077 224.058462 
L 83.377846 224.058462 
L 83.377846 253.327692 
"/>
    <path clip-path="url(#p48fc1d241e)" d="M 112.647077 253.327692 
L 141.916308 253.327692 
L 141.916308 224.058462 
L 112.647077 224.058462 
L 112.647077 253.327692 
"/>
    <path clip-path="url(#p48fc1d241e)" d="M 141.916308 253.327692 
L 171.185538 253.327692 
L 171.185538 224.058462 
L 141.916308 224.058462 
L 141.916308 253.327692 
"/>
    <path clip-path="url(#p48fc1d241e)" d="M 171.185538 253.327692 
L 200.454769 253.327692 
L 200.454769 224.058462 
L 171.185538 224.058462 
L 171.185538 253.327692 
"/>
    <path clip-path="url(#p48fc1d241e)" d="M 200.454769 253.327692 
L 229.724 253.327692 
L 229.724 224.058462 
L 200.454769 224.058462 
L 200.454769 253.327692 
"/>
    <path clip-path="url(#p48fc1d241e)" d="M 229.724 253.327692 
L 258.993231 253.327692 
L 258.993231 224.058462 
L 229.724 224.058462 
L 229.724 253.327692 
" style="fill:#d3d3d3;"/>
    <path clip-path="url(#p48fc1d241e)" d="M 258.993231 253.327692 
L 288.262462 253.327692 
L 288.262462 224.058462 
L 258.993231 224.058462 
L 258.993231 253.327692 
" style="fill:#d3d3d3;"/>
    <path clip-path="url(#p48fc1d241e)" d="M 288.262462 253.327692 
L 317.531692 253.327692 
L 317.531692 224.058462 
L 288.262462 224.058462 
L 288.262462 253.327692 
" style="fill:#d3d3d3;"/>
    <path clip-path="url(#p48fc1d241e)" d="M 317.531692 253.327692 
L 346.800923 253.327692 
L 346.800923 224.058462 
L 317.531692 224.058462 
L 317.531692 253.327692 
" style="fill:#d3d3d3;"/>
    <path clip-path="url(#p48fc1d241e)" d="M 346.800923 253.327692 
L 376.070154 253.327692 
L 376.070154 224.058462 
L 346.800923 224.058462 
L 346.800923 253.327692 
"/>
    <path clip-path="url(#p48fc1d241e)" d="M 83.377846 224.058462 
L 112.647077 224.058462 
L 112.647077 194.789231 
L 83.377846 194.789231 
L 83.377846 224.058462 
" style="fill:#d3d3d3;"/>
    <path clip-path="url(#p48fc1d241e)" d="M 112.647077 224.058462 
L 141.916308 224.058462 
L 141.916308 194.789231 
L 112.647077 194.789231 
L 112.647077 224.058462 
" style="fill:#d3d3d3;"/>
    <path clip-path="url(#p48fc1d241e)" d="M 141.916308 224.058462 
L 171.185538 224.058462 
L 171.185538 194.789231 
L 141.916308 194.789231 
L 141.916308 224.058462 
" style="fill:#d3d3d3;"/>
    <path clip-path="url(#p48fc1d241e)" d="M 171.185538 224.058462 
L 200.454769 224.058462 
L 200.454769 194.789231 
L 171.185538 194.789231 
L 171.185538 224.058462 
" style="fill:#d3d3d3;"/>
    <path clip-path="url(#p48fc1d241e)" d="M 200.454769 224.058462 
L 229.724 224.058462 
L 229.724 194.789231 
L 200.454769 194.789231 
L 200.454769 224.058462 
" style="fill:#d3d3d3;"/>
    <path clip-path="url(#p48fc1d241e)" d="M 229.724 224.058462 
L 258.993231 224.058462 
L 258.993231 194.789231 
L 229.724 194.789231 
L 229.724 224.058462 
" style="fill:#d3d3d3;"/>
    <path clip-path="url(#p48fc1d241e)" d="M 258.993231 224.058462 
L 288.262462 224.058462 
L 288.262462 194.789231 
L 258.993231 194.789231 
L 258.993231 224.058462 
" style="fill:#d3d3d3;"/>
    <path clip-path="url(#p48fc1d241e)" d="M 288.262462 224.058462 
L 317.531692 224.058462 
L 317.531692 194.789231 
L 288.262462 194.789231 
L 288.262462 224.058462 
"/>
    <path clip-path="url(#p48fc1d241e)" d="M 317.531692 224.058462 
L 346.800923 224.058462 
L 346.800923 194.789231 
L 317.531692 194.789231 
L 317.531692 224.058462 
"/>
    <path clip-path="url(#p48fc1d241e)" d="M 346.800923 224.058462 
L 376.070154 224.058462 
L 376.070154 194.789231 
L 346.800923 194.789231 
L 346.800923 224.058462 
"/>
    <path clip-path="url(#p48fc1d241e)" d="M 83.377846 194.789231 
L 112.647077 194.789231 
L 112.647077 165.52 
L 83.377846 165.52 
L 83.377846 194.789231 
"/>
    <path clip-path="url(#p48fc1d241e)" d="M 112.647077 194.789231 
L 141.916308 194.789231 
L 141.916308 165.52 
L 112.647077 165.52 
L 112.647077 194.789231 
" style="fill:#d3d3d3;"/>
    <path clip-path="url(#p48fc1d241e)" d="M 141.916308 194.789231 
L 171.185538 194.789231 
L 171.185538 165.52 
L 141.916308 165.52 
L 141.916308 194.789231 
" style="fill:#d3d3d3;"/>
    <path clip-path="url(#p48fc1d241e)" d="M 171.185538 194.789231 
L 200.454769 194.789231 
L 200.454769 165.52 
L 171.185538 165.52 
L 171.185538 194.789231 
" style="fill:#d3d3d3;"/>
    <path clip-path="url(#p48fc1d241e)" d="M 200.454769 194.789231 
L 229.724 194.789231 
L 229.724 165.52 
L 200.454769 165.52 
L 200.454769 194.789231 
"/>
    <path clip-path="url(#p48fc1d241e)" d="M 229.724 194.789231 
L 258.993231 194.789231 
L 258.993231 165.52 
L 229.724 165.52 
L 229.724 194.789231 
" style="fill:#d3d3d3;"/>
    <path clip-path="url(#p48fc1d241e)" d="M 258.993231 194.789231 
L 288.262462 194.789231 
L 288.262462 165.52 
L 258.993231 165.52 
L 258.993231 194.789231 
" style="fill:#d3d3d3;"/>
    <path clip-path="url(#p48fc1d241e)" d="M 288.262462 194.789231 
L 317.531692 194.789231 
L 317.531692 165.52 
L 288.262462 165.52 
L 288.262462 194.789231 
"/>
    <path clip-path="url(#p48fc1d241e)" d="M 317.531692 194.789231 
L 346.800923 194.789231 
L 346.800923 165.52 
L 317.531692 165.52 
L 317.531692 194.789231 
"/>
    <path clip-path="url(#p48fc1d241e)" d="M 346.800923 194.789231 
L 376.070154 194.789231 
L 376.070154 165.52 
L 346.800923 165.52 
L 346.800923 194.789231 
"/>
    <path clip-path="url(#p48fc1d241e)" d="M 83.377846 165.52 
L 112.647077 165.52 
L 112.647077 136.250769 
L 83.377846 136.250769 
L 83.377846 165.52 
" style="fill:#d3d3d3;"/>
    <path clip-path="url(#p48fc1d241e)" d="M 112.647077 165.52 
L 141.916308 165.52 
L 141.916308 136.250769 
L 112.647077 136.250769 
L 112.647077 165.52 
"/>
    <path clip-path="url(#p48fc1d241e)" d="M 141.916308 165.52 
L 171.185538 165.52 
L 171.185538 136.250769 
L 141.916308 136.250769 
L 141.916308 165.52 
"/>
    <path clip-path="url(#p48fc1d241e)" d="M 171.185538 165.52 
L 200.454769 165.52 
L 200.454769 136.250769 
L 171.185538 136.250769 
L 171.185538 165.52 
"/>
    <path clip-path="url(#p48fc1d241e)" d="M 200.454769 165.52 
L 229.724 165.52 
L 229.724 136.250769 
L 200.454769 136.250769 
L 200.454769 165.52 
" style="fill:#d3d3d3;"/>
    <path clip-path="url(#p48fc1d241e)" d="M 229.724 165.52 
L 258.993231 165.52 
L 258.993231 136.250769 
L 229.724 136.250769 
L 229.724 165.52 
" style="fill:#d3d3d3;"/>
    <path clip-path="url(#p48fc1d241e)" d="M 258.993231 165.52 
L 288.262462 165.52 
L 288.262462 136.250769 
L 258.993231 136.250769 
L 258.993231 165.52 
" style="fill:#d3d3d3;"/>
    <path clip-path="url(#p48fc1d241e)" d="M 288.262462 165.52 
L 317.531692 165.52 
L 317.531692 136.250769 
L 288.262462 136.250769 
L 288.262462 165.52 
"/>
    <path clip-path="url(#p48fc1d241e)" d="M 317.531692 165.52 
L 346.800923 165.52 
L 346.800923 136.250769 
L 317.531692 136.250769 
L 317.531692 165.52 
"/>
    <path clip-path="url(#p48fc1d241e)" d="M 346.800923 165.52 
L 376.070154 165.52 
L 376.070154 136.250769 
L 346.800923 136.250769 
L 346.800923 165.52 
"/>
    <path clip-path="url(#p48fc1d241e)" d="M 83.377846 136.250769 
L 112.647077 136.250769 
L 112.647077 106.981538 
L 83.377846 106.981538 
L 83.377846 136.250769 
"/>
    <path clip-path="url(#p48fc1d241e)" d="M 112.647077 136.250769 
L 141.916308 136.250769 
L 141.916308 106.981538 
L 112.647077 106.981538 
L 112.647077 136.250769 
"/>
    <path clip-path="url(#p48fc1d241e)" d="M 141.916308 136.250769 
L 171.185538 136.250769 
L 171.185538 106.981538 
L 141.916308 106.981538 
L 141.916308 136.250769 
"/>
    <path clip-path="url(#p48fc1d241e)" d="M 171.185538 136.250769 
L 200.454769 136.250769 
L 200.454769 106.981538 
L 171.185538 106.981538 
L 171.185538 136.250769 
"/>
    <path clip-path="url(#p48fc1d241e)" d="M 200.454769 136.250769 
L 229.724 136.250769 
L 229.724 106.981538 
L 200.454769 106.981538 
L 200.454769 136.250769 
"/>
    <path clip-path="url(#p48fc1d241e)" d="M 229.724 136.250769 
L 258.993231 136.250769 
L 258.993231 106.981538 
L 229.724 106.981538 
L 229.724 136.250769 
" style="fill:#d3d3d3;"/>
    <path clip-path="url(#p48fc1d241e)" d="M 258.993231 136.250769 
L 288.262462 136.250769 
L 288.262462 106.981538 
L 258.993231 106.981538 
L 258.993231 136.250769 
"/>
    <path clip-path="url(#p48fc1d241e)" d="M 288.262462 136.250769 
L 317.531692 136.250769 
L 317.531692 106.981538 
L 288.262462 106.981538 
L 288.262462 136.250769 
" style="fill:#d3d3d3;"/>
    <path clip-path="url(#p48fc1d241e)" d="M 317.531692 136.250769 
L 346.800923 136.250769 
L 346.800923 106.981538 
L 317.531692 106.981538 
L 317.531692 136.250769 
" style="fill:#d3d3d3;"/>
    <path clip-path="url(#p48fc1d241e)" d="M 346.800923 136.250769 
L 376.070154 136.250769 
L 376.070154 106.981538 
L 346.800923 106.981538 
L 346.800923 136.250769 
"/>
    <path clip-path="url(#p48fc1d241e)" d="M 83.377846 106.981538 
L 112.647077 106.981538 
L 112.647077 77.712308 
L 83.377846 77.712308 
L 83.377846 106.981538 
" style="fill:#d3d3d3;"/>
    <path clip-path="url(#p48fc1d241e)" d="M 112.647077 106.981538 
L 141.916308 106.981538 
L 141.916308 77.712308 
L 112.647077 77.712308 
L 112.647077 106.981538 
"/>
    <path clip-path="url(#p48fc1d241e)" d="M 141.916308 106.981538 
L 171.185538 106.981538 
L 171.185538 77.712308 
L 141.916308 77.712308 
L 141.916308 106.981538 
"/>
    <path clip-path="url(#p48fc1d241e)" d="M 171.185538 106.981538 
L 200.454769 106.981538 
L 200.454769 77.712308 
L 171.185538 77.712308 
L 171.185538 106.981538 
"/>
    <path clip-path="url(#p48fc1d241e)" d="M 200.454769 106.981538 
L 229.724 106.981538 
L 229.724 77.712308 
L 200.454769 77.712308 
L 200.454769 106.981538 
" style="fill:#d3d3d3;"/>
    <path clip-path="url(#p48fc1d241e)" d="M 229.724 106.981538 
L 258.993231 106.981538 
L 258.993231 77.712308 
L 229.724 77.712308 
L 229.724 106.981538 
"/>
    <path clip-path="url(#p48fc1d241e)" d="M 258.993231 106.981538 
L 288.262462 106.981538 
L 288.262462 77.712308 
L 258.993231 77.712308 
L 258.993231 106.981538 
"/>
    <path clip-path="url(#p48fc1d241e)" d="M 288.262462 106.981538 
L 317.531692 106.981538 
L 317.531692 77.712308 
L 288.262462 77.712308 
L 288.262462 106.981538 
" style="fill:#d3d3d3;"/>
    <path clip-path="url(#p48fc1d241e)" d="M 317.531692 106.981538 
L 346.800923 106.981538 
L 346.800923 77.712308 
L 317.531692 77.712308 
L 317.531692 106.981538 
" style="fill:#d3d3d3;"/>
    <path clip-path="url(#p48fc1d241e)" d="M 346.800923 106.981538 
L 376.070154 106.981538 
L 376.070154 77.712308 
L 346.800923 77.712308 
L 346.800923 106.981538 
"/>
    <path clip-path="url(#p48fc1d241e)" d="M 83.377846 77.712308 
L 112.647077 77.712308 
L 112.647077 48.443077 
L 83.377846 48.443077 
L 83.377846 77.712308 
" style="fill:#d3d3d3;"/>
    <path clip-path="url(#p48fc1d241e)" d="M 112.647077 77.712308 
L 141.916308 77.712308 
L 141.916308 48.443077 
L 112.647077 48.443077 
L 112.647077 77.712308 
"/>
    <path clip-path="url(#p48fc1d241e)" d="M 141.916308 77.712308 
L 171.185538 77.712308 
L 171.185538 48.443077 
L 141.916308 48.443077 
L 141.916308 77.712308 
"/>
    <path clip-path="url(#p48fc1d241e)" d="M 171.185538 77.712308 
L 200.454769 77.712308 
L 200.454769 48.443077 
L 171.185538 48.443077 
L 171.185538 77.712308 
" style="fill:#d3d3d3;"/>
    <path clip-path="url(#p48fc1d241e)" d="M 200.454769 77.712308 
L 229.724 77.712308 
L 229.724 48.443077 
L 200.454769 48.443077 
L 200.454769 77.712308 
"/>
    <path clip-path="url(#p48fc1d241e)" d="M 229.724 77.712308 
L 258.993231 77.712308 
L 258.993231 48.443077 
L 229.724 48.443077 
L 229.724 77.712308 
"/>
    <path clip-path="url(#p48fc1d241e)" d="M 258.993231 77.712308 
L 288.262462 77.712308 
L 288.262462 48.443077 
L 258.993231 48.443077 
L 258.993231 77.712308 
" style="fill:#d3d3d3;"/>
    <path clip-path="url(#p48fc1d241e)" d="M 288.262462 77.712308 
L 317.531692 77.712308 
L 317.531692 48.443077 
L 288.262462 48.443077 
L 288.262462 77.712308 
" style="fill:#d3d3d3;"/>
    <path clip-path="url(#p48fc1d241e)" d="M 317.531692 77.712308 
L 346.800923 77.712308 
L 346.800923 48.443077 
L 317.531692 48.443077 
L 317.531692 77.712308 
" style="fill:#d3d3d3;"/>
    <path clip-path="url(#p48fc1d241e)" d="M 346.800923 77.712308 
L 376.070154 77.712308 
L 376.070154 48.443077 
L 346.800923 48.443077 
L 346.800923 77.712308 
" style="fill:#d3d3d3;"/>
    <path clip-path="url(#p48fc1d241e)" d="M 83.377846 48.443077 
L 112.647077 48.443077 
L 112.647077 19.173846 
L 83.377846 19.173846 
L 83.377846 48.443077 
"/>
    <path clip-path="url(#p48fc1d241e)" d="M 112.647077 48.443077 
L 141.916308 48.443077 
L 141.916308 19.173846 
L 112.647077 19.173846 
L 112.647077 48.443077 
"/>
    <path clip-path="url(#p48fc1d241e)" d="M 141.916308 48.443077 
L 171.185538 48.443077 
L 171.185538 19.173846 
L 141.916308 19.173846 
L 141.916308 48.443077 
" style="fill:#d3d3d3;"/>
    <path clip-path="url(#p48fc1d241e)" d="M 171.185538 48.443077 
L 200.454769 48.443077 
L 200.454769 19.173846 
L 171.185538 19.173846 
L 171.185538 48.443077 
"/>
    <path clip-path="url(#p48fc1d241e)" d="M 200.454769 48.443077 
L 229.724 48.443077 
L 229.724 19.173846 
L 200.454769 19.173846 
L 200.454769 48.443077 
"/>
    <path clip-path="url(#p48fc1d241e)" d="M 229.724 48.443077 
L 258.993231 48.443077 
L 258.993231 19.173846 
L 229.724 19.173846 
L 229.724 48.443077 
"/>
    <path clip-path="url(#p48fc1d241e)" d="M 258.993231 48.443077 
L 288.262462 48.443077 
L 288.262462 19.173846 
L 258.993231 19.173846 
L 258.993231 48.443077 
" style="fill:#d3d3d3;"/>
    <path clip-path="url(#p48fc1d241e)" d="M 288.262462 48.443077 
L 317.531692 48.443077 
L 317.531692 19.173846 
L 288.262462 19.173846 
L 288.262462 48.443077 
" style="fill:#d3d3d3;"/>
    <path clip-path="url(#p48fc1d241e)" d="M 317.531692 48.443077 
L 346.800923 48.443077 
L 346.800923 19.173846 
L 317.531692 19.173846 
L 317.531692 48.443077 
" style="fill:#d3d3d3;"/>
    <path clip-path="url(#p48fc1d241e)" d="M 346.800923 48.443077 
L 376.070154 48.443077 
L 376.070154 19.173846 
L 346.800923 19.173846 
L 346.800923 48.443077 
" style="fill:#d3d3d3;"/>
   </g>
   <g id="matplotlib.axis_1">
    <g id="xtick_1">
     <g id="line2d_1">
      <path clip-path="url(#p48fc1d241e)" d="M 83.377846 317.72 
L 83.377846 13.32 
" style="fill:none;stroke:#b0b0b0;stroke-dasharray:1.85,0.8;stroke-dashoffset:0;stroke-width:0.5;"/>
     </g>
     <g id="line2d_2">
      <defs>
       <path d="M 0 0 
L 0 3.5 
" id="m976376c1cd" style="stroke:#000000;stroke-width:0.8;"/>
      </defs>
      <g>
       <use style="stroke:#000000;stroke-width:0.8;" x="83.377846" xlink:href="#m976376c1cd" y="317.72"/>
      </g>
     </g>
     <g id="text_1">
      <!-- 0.0 -->
      <defs>
       <path d="M 31.78125 66.40625 
Q 24.171875 66.40625 20.328125 58.90625 
Q 16.5 51.421875 16.5 36.375 
Q 16.5 21.390625 20.328125 13.890625 
Q 24.171875 6.390625 31.78125 6.390625 
Q 39.453125 6.390625 43.28125 13.890625 
Q 47.125 21.390625 47.125 36.375 
Q 47.125 51.421875 43.28125 58.90625 
Q 39.453125 66.40625 31.78125 66.40625 
z
M 31.78125 74.21875 
Q 44.046875 74.21875 50.515625 64.515625 
Q 56.984375 54.828125 56.984375 36.375 
Q 56.984375 17.96875 50.515625 8.265625 
Q 44.046875 -1.421875 31.78125 -1.421875 
Q 19.53125 -1.421875 13.0625 8.265625 
Q 6.59375 17.96875 6.59375 36.375 
Q 6.59375 54.828125 13.0625 64.515625 
Q 19.53125 74.21875 31.78125 74.21875 
z
" id="DejaVuSans-30"/>
       <path d="M 10.6875 12.40625 
L 21 12.40625 
L 21 0 
L 10.6875 0 
z
" id="DejaVuSans-2e"/>
      </defs>
      <g transform="translate(75.426284 332.318437)scale(0.1 -0.1)">
       <use xlink:href="#DejaVuSans-30"/>
       <use x="63.623047" xlink:href="#DejaVuSans-2e"/>
       <use x="95.410156" xlink:href="#DejaVuSans-30"/>
      </g>
     </g>
    </g>
    <g id="xtick_2">
     <g id="line2d_3">
      <path clip-path="url(#p48fc1d241e)" d="M 141.916308 317.72 
L 141.916308 13.32 
" style="fill:none;stroke:#b0b0b0;stroke-dasharray:1.85,0.8;stroke-dashoffset:0;stroke-width:0.5;"/>
     </g>
     <g id="line2d_4">
      <g>
       <use style="stroke:#000000;stroke-width:0.8;" x="141.916308" xlink:href="#m976376c1cd" y="317.72"/>
      </g>
     </g>
     <g id="text_2">
      <!-- 0.2 -->
      <defs>
       <path d="M 19.1875 8.296875 
L 53.609375 8.296875 
L 53.609375 0 
L 7.328125 0 
L 7.328125 8.296875 
Q 12.9375 14.109375 22.625 23.890625 
Q 32.328125 33.6875 34.8125 36.53125 
Q 39.546875 41.84375 41.421875 45.53125 
Q 43.3125 49.21875 43.3125 52.78125 
Q 43.3125 58.59375 39.234375 62.25 
Q 35.15625 65.921875 28.609375 65.921875 
Q 23.96875 65.921875 18.8125 64.3125 
Q 13.671875 62.703125 7.8125 59.421875 
L 7.8125 69.390625 
Q 13.765625 71.78125 18.9375 73 
Q 24.125 74.21875 28.421875 74.21875 
Q 39.75 74.21875 46.484375 68.546875 
Q 53.21875 62.890625 53.21875 53.421875 
Q 53.21875 48.921875 51.53125 44.890625 
Q 49.859375 40.875 45.40625 35.40625 
Q 44.1875 33.984375 37.640625 27.21875 
Q 31.109375 20.453125 19.1875 8.296875 
z
" id="DejaVuSans-32"/>
      </defs>
      <g transform="translate(133.964745 332.318437)scale(0.1 -0.1)">
       <use xlink:href="#DejaVuSans-30"/>
       <use x="63.623047" xlink:href="#DejaVuSans-2e"/>
       <use x="95.410156" xlink:href="#DejaVuSans-32"/>
      </g>
     </g>
    </g>
    <g id="xtick_3">
     <g id="line2d_5">
      <path clip-path="url(#p48fc1d241e)" d="M 200.454769 317.72 
L 200.454769 13.32 
" style="fill:none;stroke:#b0b0b0;stroke-dasharray:1.85,0.8;stroke-dashoffset:0;stroke-width:0.5;"/>
     </g>
     <g id="line2d_6">
      <g>
       <use style="stroke:#000000;stroke-width:0.8;" x="200.454769" xlink:href="#m976376c1cd" y="317.72"/>
      </g>
     </g>
     <g id="text_3">
      <!-- 0.4 -->
      <defs>
       <path d="M 37.796875 64.3125 
L 12.890625 25.390625 
L 37.796875 25.390625 
z
M 35.203125 72.90625 
L 47.609375 72.90625 
L 47.609375 25.390625 
L 58.015625 25.390625 
L 58.015625 17.1875 
L 47.609375 17.1875 
L 47.609375 0 
L 37.796875 0 
L 37.796875 17.1875 
L 4.890625 17.1875 
L 4.890625 26.703125 
z
" id="DejaVuSans-34"/>
      </defs>
      <g transform="translate(192.503207 332.318437)scale(0.1 -0.1)">
       <use xlink:href="#DejaVuSans-30"/>
       <use x="63.623047" xlink:href="#DejaVuSans-2e"/>
       <use x="95.410156" xlink:href="#DejaVuSans-34"/>
      </g>
     </g>
    </g>
    <g id="xtick_4">
     <g id="line2d_7">
      <path clip-path="url(#p48fc1d241e)" d="M 258.993231 317.72 
L 258.993231 13.32 
" style="fill:none;stroke:#b0b0b0;stroke-dasharray:1.85,0.8;stroke-dashoffset:0;stroke-width:0.5;"/>
     </g>
     <g id="line2d_8">
      <g>
       <use style="stroke:#000000;stroke-width:0.8;" x="258.993231" xlink:href="#m976376c1cd" y="317.72"/>
      </g>
     </g>
     <g id="text_4">
      <!-- 0.6 -->
      <defs>
       <path d="M 33.015625 40.375 
Q 26.375 40.375 22.484375 35.828125 
Q 18.609375 31.296875 18.609375 23.390625 
Q 18.609375 15.53125 22.484375 10.953125 
Q 26.375 6.390625 33.015625 6.390625 
Q 39.65625 6.390625 43.53125 10.953125 
Q 47.40625 15.53125 47.40625 23.390625 
Q 47.40625 31.296875 43.53125 35.828125 
Q 39.65625 40.375 33.015625 40.375 
z
M 52.59375 71.296875 
L 52.59375 62.3125 
Q 48.875 64.0625 45.09375 64.984375 
Q 41.3125 65.921875 37.59375 65.921875 
Q 27.828125 65.921875 22.671875 59.328125 
Q 17.53125 52.734375 16.796875 39.40625 
Q 19.671875 43.65625 24.015625 45.921875 
Q 28.375 48.1875 33.59375 48.1875 
Q 44.578125 48.1875 50.953125 41.515625 
Q 57.328125 34.859375 57.328125 23.390625 
Q 57.328125 12.15625 50.6875 5.359375 
Q 44.046875 -1.421875 33.015625 -1.421875 
Q 20.359375 -1.421875 13.671875 8.265625 
Q 6.984375 17.96875 6.984375 36.375 
Q 6.984375 53.65625 15.1875 63.9375 
Q 23.390625 74.21875 37.203125 74.21875 
Q 40.921875 74.21875 44.703125 73.484375 
Q 48.484375 72.75 52.59375 71.296875 
z
" id="DejaVuSans-36"/>
      </defs>
      <g transform="translate(251.041668 332.318437)scale(0.1 -0.1)">
       <use xlink:href="#DejaVuSans-30"/>
       <use x="63.623047" xlink:href="#DejaVuSans-2e"/>
       <use x="95.410156" xlink:href="#DejaVuSans-36"/>
      </g>
     </g>
    </g>
    <g id="xtick_5">
     <g id="line2d_9">
      <path clip-path="url(#p48fc1d241e)" d="M 317.531692 317.72 
L 317.531692 13.32 
" style="fill:none;stroke:#b0b0b0;stroke-dasharray:1.85,0.8;stroke-dashoffset:0;stroke-width:0.5;"/>
     </g>
     <g id="line2d_10">
      <g>
       <use style="stroke:#000000;stroke-width:0.8;" x="317.531692" xlink:href="#m976376c1cd" y="317.72"/>
      </g>
     </g>
     <g id="text_5">
      <!-- 0.8 -->
      <defs>
       <path d="M 31.78125 34.625 
Q 24.75 34.625 20.71875 30.859375 
Q 16.703125 27.09375 16.703125 20.515625 
Q 16.703125 13.921875 20.71875 10.15625 
Q 24.75 6.390625 31.78125 6.390625 
Q 38.8125 6.390625 42.859375 10.171875 
Q 46.921875 13.96875 46.921875 20.515625 
Q 46.921875 27.09375 42.890625 30.859375 
Q 38.875 34.625 31.78125 34.625 
z
M 21.921875 38.8125 
Q 15.578125 40.375 12.03125 44.71875 
Q 8.5 49.078125 8.5 55.328125 
Q 8.5 64.0625 14.71875 69.140625 
Q 20.953125 74.21875 31.78125 74.21875 
Q 42.671875 74.21875 48.875 69.140625 
Q 55.078125 64.0625 55.078125 55.328125 
Q 55.078125 49.078125 51.53125 44.71875 
Q 48 40.375 41.703125 38.8125 
Q 48.828125 37.15625 52.796875 32.3125 
Q 56.78125 27.484375 56.78125 20.515625 
Q 56.78125 9.90625 50.3125 4.234375 
Q 43.84375 -1.421875 31.78125 -1.421875 
Q 19.734375 -1.421875 13.25 4.234375 
Q 6.78125 9.90625 6.78125 20.515625 
Q 6.78125 27.484375 10.78125 32.3125 
Q 14.796875 37.15625 21.921875 38.8125 
z
M 18.3125 54.390625 
Q 18.3125 48.734375 21.84375 45.5625 
Q 25.390625 42.390625 31.78125 42.390625 
Q 38.140625 42.390625 41.71875 45.5625 
Q 45.3125 48.734375 45.3125 54.390625 
Q 45.3125 60.0625 41.71875 63.234375 
Q 38.140625 66.40625 31.78125 66.40625 
Q 25.390625 66.40625 21.84375 63.234375 
Q 18.3125 60.0625 18.3125 54.390625 
z
" id="DejaVuSans-38"/>
      </defs>
      <g transform="translate(309.58013 332.318437)scale(0.1 -0.1)">
       <use xlink:href="#DejaVuSans-30"/>
       <use x="63.623047" xlink:href="#DejaVuSans-2e"/>
       <use x="95.410156" xlink:href="#DejaVuSans-38"/>
      </g>
     </g>
    </g>
    <g id="xtick_6">
     <g id="line2d_11">
      <path clip-path="url(#p48fc1d241e)" d="M 376.070154 317.72 
L 376.070154 13.32 
" style="fill:none;stroke:#b0b0b0;stroke-dasharray:1.85,0.8;stroke-dashoffset:0;stroke-width:0.5;"/>
     </g>
     <g id="line2d_12">
      <g>
       <use style="stroke:#000000;stroke-width:0.8;" x="376.070154" xlink:href="#m976376c1cd" y="317.72"/>
      </g>
     </g>
     <g id="text_6">
      <!-- 1.0 -->
      <defs>
       <path d="M 12.40625 8.296875 
L 28.515625 8.296875 
L 28.515625 63.921875 
L 10.984375 60.40625 
L 10.984375 69.390625 
L 28.421875 72.90625 
L 38.28125 72.90625 
L 38.28125 8.296875 
L 54.390625 8.296875 
L 54.390625 0 
L 12.40625 0 
z
" id="DejaVuSans-31"/>
      </defs>
      <g transform="translate(368.118591 332.318437)scale(0.1 -0.1)">
       <use xlink:href="#DejaVuSans-31"/>
       <use x="63.623047" xlink:href="#DejaVuSans-2e"/>
       <use x="95.410156" xlink:href="#DejaVuSans-30"/>
      </g>
     </g>
    </g>
   </g>
   <g id="matplotlib.axis_2">
    <g id="ytick_1">
     <g id="line2d_13">
      <path clip-path="url(#p48fc1d241e)" d="M 77.524 311.866154 
L 381.924 311.866154 
" style="fill:none;stroke:#b0b0b0;stroke-dasharray:1.85,0.8;stroke-dashoffset:0;stroke-width:0.5;"/>
     </g>
     <g id="line2d_14">
      <defs>
       <path d="M 0 0 
L -3.5 0 
" id="mc0fd315002" style="stroke:#000000;stroke-width:0.8;"/>
      </defs>
      <g>
       <use style="stroke:#000000;stroke-width:0.8;" x="77.524" xlink:href="#mc0fd315002" y="311.866154"/>
      </g>
     </g>
     <g id="text_7">
      <!-- 0.0 -->
      <g transform="translate(54.620875 315.665373)scale(0.1 -0.1)">
       <use xlink:href="#DejaVuSans-30"/>
       <use x="63.623047" xlink:href="#DejaVuSans-2e"/>
       <use x="95.410156" xlink:href="#DejaVuSans-30"/>
      </g>
     </g>
    </g>
    <g id="ytick_2">
     <g id="line2d_15">
      <path clip-path="url(#p48fc1d241e)" d="M 77.524 253.327692 
L 381.924 253.327692 
" style="fill:none;stroke:#b0b0b0;stroke-dasharray:1.85,0.8;stroke-dashoffset:0;stroke-width:0.5;"/>
     </g>
     <g id="line2d_16">
      <g>
       <use style="stroke:#000000;stroke-width:0.8;" x="77.524" xlink:href="#mc0fd315002" y="253.327692"/>
      </g>
     </g>
     <g id="text_8">
      <!-- 0.2 -->
      <g transform="translate(54.620875 257.126911)scale(0.1 -0.1)">
       <use xlink:href="#DejaVuSans-30"/>
       <use x="63.623047" xlink:href="#DejaVuSans-2e"/>
       <use x="95.410156" xlink:href="#DejaVuSans-32"/>
      </g>
     </g>
    </g>
    <g id="ytick_3">
     <g id="line2d_17">
      <path clip-path="url(#p48fc1d241e)" d="M 77.524 194.789231 
L 381.924 194.789231 
" style="fill:none;stroke:#b0b0b0;stroke-dasharray:1.85,0.8;stroke-dashoffset:0;stroke-width:0.5;"/>
     </g>
     <g id="line2d_18">
      <g>
       <use style="stroke:#000000;stroke-width:0.8;" x="77.524" xlink:href="#mc0fd315002" y="194.789231"/>
      </g>
     </g>
     <g id="text_9">
      <!-- 0.4 -->
      <g transform="translate(54.620875 198.58845)scale(0.1 -0.1)">
       <use xlink:href="#DejaVuSans-30"/>
       <use x="63.623047" xlink:href="#DejaVuSans-2e"/>
       <use x="95.410156" xlink:href="#DejaVuSans-34"/>
      </g>
     </g>
    </g>
    <g id="ytick_4">
     <g id="line2d_19">
      <path clip-path="url(#p48fc1d241e)" d="M 77.524 136.250769 
L 381.924 136.250769 
" style="fill:none;stroke:#b0b0b0;stroke-dasharray:1.85,0.8;stroke-dashoffset:0;stroke-width:0.5;"/>
     </g>
     <g id="line2d_20">
      <g>
       <use style="stroke:#000000;stroke-width:0.8;" x="77.524" xlink:href="#mc0fd315002" y="136.250769"/>
      </g>
     </g>
     <g id="text_10">
      <!-- 0.6 -->
      <g transform="translate(54.620875 140.049988)scale(0.1 -0.1)">
       <use xlink:href="#DejaVuSans-30"/>
       <use x="63.623047" xlink:href="#DejaVuSans-2e"/>
       <use x="95.410156" xlink:href="#DejaVuSans-36"/>
      </g>
     </g>
    </g>
    <g id="ytick_5">
     <g id="line2d_21">
      <path clip-path="url(#p48fc1d241e)" d="M 77.524 77.712308 
L 381.924 77.712308 
" style="fill:none;stroke:#b0b0b0;stroke-dasharray:1.85,0.8;stroke-dashoffset:0;stroke-width:0.5;"/>
     </g>
     <g id="line2d_22">
      <g>
       <use style="stroke:#000000;stroke-width:0.8;" x="77.524" xlink:href="#mc0fd315002" y="77.712308"/>
      </g>
     </g>
     <g id="text_11">
      <!-- 0.8 -->
      <g transform="translate(54.620875 81.511526)scale(0.1 -0.1)">
       <use xlink:href="#DejaVuSans-30"/>
       <use x="63.623047" xlink:href="#DejaVuSans-2e"/>
       <use x="95.410156" xlink:href="#DejaVuSans-38"/>
      </g>
     </g>
    </g>
    <g id="ytick_6">
     <g id="line2d_23">
      <path clip-path="url(#p48fc1d241e)" d="M 77.524 19.173846 
L 381.924 19.173846 
" style="fill:none;stroke:#b0b0b0;stroke-dasharray:1.85,0.8;stroke-dashoffset:0;stroke-width:0.5;"/>
     </g>
     <g id="line2d_24">
      <g>
       <use style="stroke:#000000;stroke-width:0.8;" x="77.524" xlink:href="#mc0fd315002" y="19.173846"/>
      </g>
     </g>
     <g id="text_12">
      <!-- 1.0 -->
      <g transform="translate(54.620875 22.973065)scale(0.1 -0.1)">
       <use xlink:href="#DejaVuSans-31"/>
       <use x="63.623047" xlink:href="#DejaVuSans-2e"/>
       <use x="95.410156" xlink:href="#DejaVuSans-30"/>
      </g>
     </g>
    </g>
   </g>
   <g id="line2d_25">
    <path clip-path="url(#p48fc1d241e)" d="M 83.377846 311.866154 
L 376.070154 311.866154 
L 376.070154 19.173846 
L 83.377846 19.173846 
L 83.377846 311.866154 
" style="fill:none;stroke:#000000;stroke-linecap:square;stroke-width:1.5;"/>
   </g>
   <g id="patch_3">
    <path d="M 77.524 317.72 
L 77.524 13.32 
" style="fill:none;stroke:#000000;stroke-linecap:square;stroke-linejoin:miter;stroke-width:0.8;"/>
   </g>
   <g id="patch_4">
    <path d="M 381.924 317.72 
L 381.924 13.32 
" style="fill:none;stroke:#000000;stroke-linecap:square;stroke-linejoin:miter;stroke-width:0.8;"/>
   </g>
   <g id="patch_5">
    <path d="M 77.524 317.72 
L 381.924 317.72 
" style="fill:none;stroke:#000000;stroke-linecap:square;stroke-linejoin:miter;stroke-width:0.8;"/>
   </g>
   <g id="patch_6">
    <path d="M 77.524 13.32 
L 381.924 13.32 
" style="fill:none;stroke:#000000;stroke-linecap:square;stroke-linejoin:miter;stroke-width:0.8;"/>
   </g>
  </g>
  <g id="axes_2">
   <g id="patch_7">
    <path clip-path="url(#p1e85913010)" d="M 384.12 188.35 
L 384.12 165.52 
L 384.12 165.52 
L 384.12 142.69 
L 399.34 142.69 
L 399.34 165.52 
L 399.34 165.52 
L 399.34 188.35 
z
" style="fill:#ffffff;stroke:#ffffff;stroke-linejoin:miter;stroke-width:0.01;"/>
   </g>
   <g id="QuadMesh_2">
    <path clip-path="url(#p1e85913010)" d="M 384.12 188.35 
L 399.34 188.35 
L 399.34 165.52 
L 384.12 165.52 
L 384.12 188.35 
" style="fill:#d3d3d3;"/>
    <path clip-path="url(#p1e85913010)" d="M 384.12 165.52 
L 399.34 165.52 
L 399.34 142.69 
L 384.12 142.69 
L 384.12 165.52 
"/>
   </g>
   <g id="matplotlib.axis_3"/>
   <g id="matplotlib.axis_4">
    <g id="ytick_7">
     <g id="line2d_26">
      <defs>
       <path d="M 0 0 
L 3.5 0 
" id="m6778fb4de0" style="stroke:#000000;stroke-width:0.8;"/>
      </defs>
      <g>
       <use style="stroke:#000000;stroke-width:0.8;" x="399.34" xlink:href="#m6778fb4de0" y="176.935"/>
      </g>
     </g>
     <g id="text_13">
      <!-- Matrix -->
      <defs>
       <path d="M 9.8125 72.90625 
L 24.515625 72.90625 
L 43.109375 23.296875 
L 61.8125 72.90625 
L 76.515625 72.90625 
L 76.515625 0 
L 66.890625 0 
L 66.890625 64.015625 
L 48.09375 14.015625 
L 38.1875 14.015625 
L 19.390625 64.015625 
L 19.390625 0 
L 9.8125 0 
z
" id="DejaVuSans-4d"/>
       <path d="M 34.28125 27.484375 
Q 23.390625 27.484375 19.1875 25 
Q 14.984375 22.515625 14.984375 16.5 
Q 14.984375 11.71875 18.140625 8.90625 
Q 21.296875 6.109375 26.703125 6.109375 
Q 34.1875 6.109375 38.703125 11.40625 
Q 43.21875 16.703125 43.21875 25.484375 
L 43.21875 27.484375 
z
M 52.203125 31.203125 
L 52.203125 0 
L 43.21875 0 
L 43.21875 8.296875 
Q 40.140625 3.328125 35.546875 0.953125 
Q 30.953125 -1.421875 24.3125 -1.421875 
Q 15.921875 -1.421875 10.953125 3.296875 
Q 6 8.015625 6 15.921875 
Q 6 25.140625 12.171875 29.828125 
Q 18.359375 34.515625 30.609375 34.515625 
L 43.21875 34.515625 
L 43.21875 35.40625 
Q 43.21875 41.609375 39.140625 45 
Q 35.0625 48.390625 27.6875 48.390625 
Q 23 48.390625 18.546875 47.265625 
Q 14.109375 46.140625 10.015625 43.890625 
L 10.015625 52.203125 
Q 14.9375 54.109375 19.578125 55.046875 
Q 24.21875 56 28.609375 56 
Q 40.484375 56 46.34375 49.84375 
Q 52.203125 43.703125 52.203125 31.203125 
z
" id="DejaVuSans-61"/>
       <path d="M 18.3125 70.21875 
L 18.3125 54.6875 
L 36.8125 54.6875 
L 36.8125 47.703125 
L 18.3125 47.703125 
L 18.3125 18.015625 
Q 18.3125 11.328125 20.140625 9.421875 
Q 21.96875 7.515625 27.59375 7.515625 
L 36.8125 7.515625 
L 36.8125 0 
L 27.59375 0 
Q 17.1875 0 13.234375 3.875 
Q 9.28125 7.765625 9.28125 18.015625 
L 9.28125 47.703125 
L 2.6875 47.703125 
L 2.6875 54.6875 
L 9.28125 54.6875 
L 9.28125 70.21875 
z
" id="DejaVuSans-74"/>
       <path d="M 41.109375 46.296875 
Q 39.59375 47.171875 37.8125 47.578125 
Q 36.03125 48 33.890625 48 
Q 26.265625 48 22.1875 43.046875 
Q 18.109375 38.09375 18.109375 28.8125 
L 18.109375 0 
L 9.078125 0 
L 9.078125 54.6875 
L 18.109375 54.6875 
L 18.109375 46.1875 
Q 20.953125 51.171875 25.484375 53.578125 
Q 30.03125 56 36.53125 56 
Q 37.453125 56 38.578125 55.875 
Q 39.703125 55.765625 41.0625 55.515625 
z
" id="DejaVuSans-72"/>
       <path d="M 9.421875 54.6875 
L 18.40625 54.6875 
L 18.40625 0 
L 9.421875 0 
z
M 9.421875 75.984375 
L 18.40625 75.984375 
L 18.40625 64.59375 
L 9.421875 64.59375 
z
" id="DejaVuSans-69"/>
       <path d="M 54.890625 54.6875 
L 35.109375 28.078125 
L 55.90625 0 
L 45.3125 0 
L 29.390625 21.484375 
L 13.484375 0 
L 2.875 0 
L 24.125 28.609375 
L 4.6875 54.6875 
L 15.28125 54.6875 
L 29.78125 35.203125 
L 44.28125 54.6875 
z
" id="DejaVuSans-78"/>
      </defs>
      <g transform="translate(406.34 180.099749)scale(0.0833 -0.0833)">
       <use xlink:href="#DejaVuSans-4d"/>
       <use x="86.279297" xlink:href="#DejaVuSans-61"/>
       <use x="147.558594" xlink:href="#DejaVuSans-74"/>
       <use x="186.767578" xlink:href="#DejaVuSans-72"/>
       <use x="227.880859" xlink:href="#DejaVuSans-69"/>
       <use x="255.664062" xlink:href="#DejaVuSans-78"/>
      </g>
     </g>
    </g>
    <g id="ytick_8">
     <g id="line2d_27">
      <g>
       <use style="stroke:#000000;stroke-width:0.8;" x="399.34" xlink:href="#m6778fb4de0" y="154.105"/>
      </g>
     </g>
     <g id="text_14">
      <!-- Blocks -->
      <defs>
       <path d="M 19.671875 34.8125 
L 19.671875 8.109375 
L 35.5 8.109375 
Q 43.453125 8.109375 47.28125 11.40625 
Q 51.125 14.703125 51.125 21.484375 
Q 51.125 28.328125 47.28125 31.5625 
Q 43.453125 34.8125 35.5 34.8125 
z
M 19.671875 64.796875 
L 19.671875 42.828125 
L 34.28125 42.828125 
Q 41.5 42.828125 45.03125 45.53125 
Q 48.578125 48.25 48.578125 53.8125 
Q 48.578125 59.328125 45.03125 62.0625 
Q 41.5 64.796875 34.28125 64.796875 
z
M 9.8125 72.90625 
L 35.015625 72.90625 
Q 46.296875 72.90625 52.390625 68.21875 
Q 58.5 63.53125 58.5 54.890625 
Q 58.5 48.1875 55.375 44.234375 
Q 52.25 40.28125 46.1875 39.3125 
Q 53.46875 37.75 57.5 32.78125 
Q 61.53125 27.828125 61.53125 20.40625 
Q 61.53125 10.640625 54.890625 5.3125 
Q 48.25 0 35.984375 0 
L 9.8125 0 
z
" id="DejaVuSans-42"/>
       <path d="M 9.421875 75.984375 
L 18.40625 75.984375 
L 18.40625 0 
L 9.421875 0 
z
" id="DejaVuSans-6c"/>
       <path d="M 30.609375 48.390625 
Q 23.390625 48.390625 19.1875 42.75 
Q 14.984375 37.109375 14.984375 27.296875 
Q 14.984375 17.484375 19.15625 11.84375 
Q 23.34375 6.203125 30.609375 6.203125 
Q 37.796875 6.203125 41.984375 11.859375 
Q 46.1875 17.53125 46.1875 27.296875 
Q 46.1875 37.015625 41.984375 42.703125 
Q 37.796875 48.390625 30.609375 48.390625 
z
M 30.609375 56 
Q 42.328125 56 49.015625 48.375 
Q 55.71875 40.765625 55.71875 27.296875 
Q 55.71875 13.875 49.015625 6.21875 
Q 42.328125 -1.421875 30.609375 -1.421875 
Q 18.84375 -1.421875 12.171875 6.21875 
Q 5.515625 13.875 5.515625 27.296875 
Q 5.515625 40.765625 12.171875 48.375 
Q 18.84375 56 30.609375 56 
z
" id="DejaVuSans-6f"/>
       <path d="M 48.78125 52.59375 
L 48.78125 44.1875 
Q 44.96875 46.296875 41.140625 47.34375 
Q 37.3125 48.390625 33.40625 48.390625 
Q 24.65625 48.390625 19.8125 42.84375 
Q 14.984375 37.3125 14.984375 27.296875 
Q 14.984375 17.28125 19.8125 11.734375 
Q 24.65625 6.203125 33.40625 6.203125 
Q 37.3125 6.203125 41.140625 7.25 
Q 44.96875 8.296875 48.78125 10.40625 
L 48.78125 2.09375 
Q 45.015625 0.34375 40.984375 -0.53125 
Q 36.96875 -1.421875 32.421875 -1.421875 
Q 20.0625 -1.421875 12.78125 6.34375 
Q 5.515625 14.109375 5.515625 27.296875 
Q 5.515625 40.671875 12.859375 48.328125 
Q 20.21875 56 33.015625 56 
Q 37.15625 56 41.109375 55.140625 
Q 45.0625 54.296875 48.78125 52.59375 
z
" id="DejaVuSans-63"/>
       <path d="M 9.078125 75.984375 
L 18.109375 75.984375 
L 18.109375 31.109375 
L 44.921875 54.6875 
L 56.390625 54.6875 
L 27.390625 29.109375 
L 57.625 0 
L 45.90625 0 
L 18.109375 26.703125 
L 18.109375 0 
L 9.078125 0 
z
" id="DejaVuSans-6b"/>
       <path d="M 44.28125 53.078125 
L 44.28125 44.578125 
Q 40.484375 46.53125 36.375 47.5 
Q 32.28125 48.484375 27.875 48.484375 
Q 21.1875 48.484375 17.84375 46.4375 
Q 14.5 44.390625 14.5 40.28125 
Q 14.5 37.15625 16.890625 35.375 
Q 19.28125 33.59375 26.515625 31.984375 
L 29.59375 31.296875 
Q 39.15625 29.25 43.1875 25.515625 
Q 47.21875 21.78125 47.21875 15.09375 
Q 47.21875 7.46875 41.1875 3.015625 
Q 35.15625 -1.421875 24.609375 -1.421875 
Q 20.21875 -1.421875 15.453125 -0.5625 
Q 10.6875 0.296875 5.421875 2 
L 5.421875 11.28125 
Q 10.40625 8.6875 15.234375 7.390625 
Q 20.0625 6.109375 24.8125 6.109375 
Q 31.15625 6.109375 34.5625 8.28125 
Q 37.984375 10.453125 37.984375 14.40625 
Q 37.984375 18.0625 35.515625 20.015625 
Q 33.0625 21.96875 24.703125 23.78125 
L 21.578125 24.515625 
Q 13.234375 26.265625 9.515625 29.90625 
Q 5.8125 33.546875 5.8125 39.890625 
Q 5.8125 47.609375 11.28125 51.796875 
Q 16.75 56 26.8125 56 
Q 31.78125 56 36.171875 55.265625 
Q 40.578125 54.546875 44.28125 53.078125 
z
" id="DejaVuSans-73"/>
      </defs>
      <g transform="translate(406.34 157.269749)scale(0.0833 -0.0833)">
       <use xlink:href="#DejaVuSans-42"/>
       <use x="68.603516" xlink:href="#DejaVuSans-6c"/>
       <use x="96.386719" xlink:href="#DejaVuSans-6f"/>
       <use x="157.568359" xlink:href="#DejaVuSans-63"/>
       <use x="212.548828" xlink:href="#DejaVuSans-6b"/>
       <use x="270.458984" xlink:href="#DejaVuSans-73"/>
      </g>
     </g>
    </g>
   </g>
   <g id="patch_8">
    <path d="M 384.12 188.35 
L 384.12 165.52 
L 384.12 165.52 
L 384.12 142.69 
L 399.34 142.69 
L 399.34 165.52 
L 399.34 165.52 
L 399.34 188.35 
z
" style="fill:none;stroke:#000000;stroke-linejoin:miter;stroke-width:0.8;"/>
   </g>
  </g>
 </g>
 <defs>
  <clipPath id="p48fc1d241e">
   <rect height="304.4" width="304.4" x="77.524" y="13.32"/>
  </clipPath>
  <clipPath id="p1e85913010">
   <rect height="45.66" width="15.22" x="384.12" y="142.69"/>
  </clipPath>
 </defs>
</svg>
