<?xml version="1.0" encoding="utf-8" standalone="no"?>
<!DOCTYPE svg PUBLIC "-//W3C//DTD SVG 1.1//EN"
  "http://www.w3.org/Graphics/SVG/1.1/DTD/svg11.dtd">
<!-- Created with matplotlib (http://matplotlib.org/) -->
<svg height="345.6pt" version="1.1" viewBox="0 0 460.8 345.6" width="460.8pt" xmlns="http://www.w3.org/2000/svg" xmlns:xlink="http://www.w3.org/1999/xlink">
 <defs>
  <style type="text/css">
*{stroke-linecap:butt;stroke-linejoin:round;}
  </style>
 </defs>
 <g id="figure_1">
  <g id="patch_1">
   <path d="M 0 345.6 
L 460.8 345.6 
L 460.8 0 
L 0 0 
z
" style="fill:#ffffff;"/>
  </g>
  <g id="axes_1">
   <g id="patch_2">
    <path d="M 48.31 317.72 
L 447.48 317.72 
L 447.48 13.32 
L 48.31 13.32 
z
" style="fill:#ffffff;"/>
   </g>
   <g id="matplotlib.axis_1">
    <g id="xtick_1">
     <g id="line2d_1">
      <path clip-path="url(#pdde2bca32b)" d="M 109.479111 317.72 
L 109.479111 13.32 
" style="fill:none;stroke:#b0b0b0;stroke-dasharray:1.85,0.8;stroke-dashoffset:0;stroke-width:0.5;"/>
     </g>
     <g id="line2d_2">
      <defs>
       <path d="M 0 0 
L 0 3.5 
" id="mfc4396ecfa" style="stroke:#000000;stroke-width:0.8;"/>
      </defs>
      <g>
       <use style="stroke:#000000;stroke-width:0.8;" x="109.479111" xlink:href="#mfc4396ecfa" y="317.72"/>
      </g>
     </g>
     <g id="text_1">
      <!-- −1.0 -->
      <defs>
       <path d="M 10.59375 35.5 
L 73.1875 35.5 
L 73.1875 27.203125 
L 10.59375 27.203125 
z
" id="DejaVuSans-2212"/>
       <path d="M 12.40625 8.296875 
L 28.515625 8.296875 
L 28.515625 63.921875 
L 10.984375 60.40625 
L 10.984375 69.390625 
L 28.421875 72.90625 
L 38.28125 72.90625 
L 38.28125 8.296875 
L 54.390625 8.296875 
L 54.390625 0 
L 12.40625 0 
z
" id="DejaVuSans-31"/>
       <path d="M 10.6875 12.40625 
L 21 12.40625 
L 21 0 
L 10.6875 0 
z
" id="DejaVuSans-2e"/>
       <path d="M 31.78125 66.40625 
Q 24.171875 66.40625 20.328125 58.90625 
Q 16.5 51.421875 16.5 36.375 
Q 16.5 21.390625 20.328125 13.890625 
Q 24.171875 6.390625 31.78125 6.390625 
Q 39.453125 6.390625 43.28125 13.890625 
Q 47.125 21.390625 47.125 36.375 
Q 47.125 51.421875 43.28125 58.90625 
Q 39.453125 66.40625 31.78125 66.40625 
z
M 31.78125 74.21875 
Q 44.046875 74.21875 50.515625 64.515625 
Q 56.984375 54.828125 56.984375 36.375 
Q 56.984375 17.96875 50.515625 8.265625 
Q 44.046875 -1.421875 31.78125 -1.421875 
Q 19.53125 -1.421875 13.0625 8.265625 
Q 6.59375 17.96875 6.59375 36.375 
Q 6.59375 54.828125 13.0625 64.515625 
Q 19.53125 74.21875 31.78125 74.21875 
z
" id="DejaVuSans-30"/>
      </defs>
      <g transform="translate(97.337705 332.318437)scale(0.1 -0.1)">
       <use xlink:href="#DejaVuSans-2212"/>
       <use x="83.789062" xlink:href="#DejaVuSans-31"/>
       <use x="147.412109" xlink:href="#DejaVuSans-2e"/>
       <use x="179.199219" xlink:href="#DejaVuSans-30"/>
      </g>
     </g>
    </g>
    <g id="xtick_2">
     <g id="line2d_3">
      <path clip-path="url(#pdde2bca32b)" d="M 178.669638 317.72 
L 178.669638 13.32 
" style="fill:none;stroke:#b0b0b0;stroke-dasharray:1.85,0.8;stroke-dashoffset:0;stroke-width:0.5;"/>
     </g>
     <g id="line2d_4">
      <g>
       <use style="stroke:#000000;stroke-width:0.8;" x="178.669638" xlink:href="#mfc4396ecfa" y="317.72"/>
      </g>
     </g>
     <g id="text_2">
      <!-- −0.5 -->
      <defs>
       <path d="M 10.796875 72.90625 
L 49.515625 72.90625 
L 49.515625 64.59375 
L 19.828125 64.59375 
L 19.828125 46.734375 
Q 21.96875 47.46875 24.109375 47.828125 
Q 26.265625 48.1875 28.421875 48.1875 
Q 40.625 48.1875 47.75 41.5 
Q 54.890625 34.8125 54.890625 23.390625 
Q 54.890625 11.625 47.5625 5.09375 
Q 40.234375 -1.421875 26.90625 -1.421875 
Q 22.3125 -1.421875 17.546875 -0.640625 
Q 12.796875 0.140625 7.71875 1.703125 
L 7.71875 11.625 
Q 12.109375 9.234375 16.796875 8.0625 
Q 21.484375 6.890625 26.703125 6.890625 
Q 35.15625 6.890625 40.078125 11.328125 
Q 45.015625 15.765625 45.015625 23.390625 
Q 45.015625 31 40.078125 35.4375 
Q 35.15625 39.890625 26.703125 39.890625 
Q 22.75 39.890625 18.8125 39.015625 
Q 14.890625 38.140625 10.796875 36.28125 
z
" id="DejaVuSans-35"/>
      </defs>
      <g transform="translate(166.528232 332.318437)scale(0.1 -0.1)">
       <use xlink:href="#DejaVuSans-2212"/>
       <use x="83.789062" xlink:href="#DejaVuSans-30"/>
       <use x="147.412109" xlink:href="#DejaVuSans-2e"/>
       <use x="179.199219" xlink:href="#DejaVuSans-35"/>
      </g>
     </g>
    </g>
    <g id="xtick_3">
     <g id="line2d_5">
      <path clip-path="url(#pdde2bca32b)" d="M 247.860166 317.72 
L 247.860166 13.32 
" style="fill:none;stroke:#b0b0b0;stroke-dasharray:1.85,0.8;stroke-dashoffset:0;stroke-width:0.5;"/>
     </g>
     <g id="line2d_6">
      <g>
       <use style="stroke:#000000;stroke-width:0.8;" x="247.860166" xlink:href="#mfc4396ecfa" y="317.72"/>
      </g>
     </g>
     <g id="text_3">
      <!-- 0.0 -->
      <g transform="translate(239.908603 332.318437)scale(0.1 -0.1)">
       <use xlink:href="#DejaVuSans-30"/>
       <use x="63.623047" xlink:href="#DejaVuSans-2e"/>
       <use x="95.410156" xlink:href="#DejaVuSans-30"/>
      </g>
     </g>
    </g>
    <g id="xtick_4">
     <g id="line2d_7">
      <path clip-path="url(#pdde2bca32b)" d="M 317.050693 317.72 
L 317.050693 13.32 
" style="fill:none;stroke:#b0b0b0;stroke-dasharray:1.85,0.8;stroke-dashoffset:0;stroke-width:0.5;"/>
     </g>
     <g id="line2d_8">
      <g>
       <use style="stroke:#000000;stroke-width:0.8;" x="317.050693" xlink:href="#mfc4396ecfa" y="317.72"/>
      </g>
     </g>
     <g id="text_4">
      <!-- 0.5 -->
      <g transform="translate(309.09913 332.318437)scale(0.1 -0.1)">
       <use xlink:href="#DejaVuSans-30"/>
       <use x="63.623047" xlink:href="#DejaVuSans-2e"/>
       <use x="95.410156" xlink:href="#DejaVuSans-35"/>
      </g>
     </g>
    </g>
    <g id="xtick_5">
     <g id="line2d_9">
      <path clip-path="url(#pdde2bca32b)" d="M 386.24122 317.72 
L 386.24122 13.32 
" style="fill:none;stroke:#b0b0b0;stroke-dasharray:1.85,0.8;stroke-dashoffset:0;stroke-width:0.5;"/>
     </g>
     <g id="line2d_10">
      <g>
       <use style="stroke:#000000;stroke-width:0.8;" x="386.24122" xlink:href="#mfc4396ecfa" y="317.72"/>
      </g>
     </g>
     <g id="text_5">
      <!-- 1.0 -->
      <g transform="translate(378.289658 332.318437)scale(0.1 -0.1)">
       <use xlink:href="#DejaVuSans-31"/>
       <use x="63.623047" xlink:href="#DejaVuSans-2e"/>
       <use x="95.410156" xlink:href="#DejaVuSans-30"/>
      </g>
     </g>
    </g>
   </g>
   <g id="matplotlib.axis_2">
    <g id="ytick_1">
     <g id="line2d_11">
      <path clip-path="url(#pdde2bca32b)" d="M 48.31 303.901055 
L 447.48 303.901055 
" style="fill:none;stroke:#b0b0b0;stroke-dasharray:1.85,0.8;stroke-dashoffset:0;stroke-width:0.5;"/>
     </g>
     <g id="line2d_12">
      <defs>
       <path d="M 0 0 
L -3.5 0 
" id="mba47b8fb2d" style="stroke:#000000;stroke-width:0.8;"/>
      </defs>
      <g>
       <use style="stroke:#000000;stroke-width:0.8;" x="48.31" xlink:href="#mba47b8fb2d" y="303.901055"/>
      </g>
     </g>
     <g id="text_6">
      <!-- −1.00 -->
      <g transform="translate(10.664687 307.700273)scale(0.1 -0.1)">
       <use xlink:href="#DejaVuSans-2212"/>
       <use x="83.789062" xlink:href="#DejaVuSans-31"/>
       <use x="147.412109" xlink:href="#DejaVuSans-2e"/>
       <use x="179.199219" xlink:href="#DejaVuSans-30"/>
       <use x="242.822266" xlink:href="#DejaVuSans-30"/>
      </g>
     </g>
    </g>
    <g id="ytick_2">
     <g id="line2d_13">
      <path clip-path="url(#pdde2bca32b)" d="M 48.31 269.305791 
L 447.48 269.305791 
" style="fill:none;stroke:#b0b0b0;stroke-dasharray:1.85,0.8;stroke-dashoffset:0;stroke-width:0.5;"/>
     </g>
     <g id="line2d_14">
      <g>
       <use style="stroke:#000000;stroke-width:0.8;" x="48.31" xlink:href="#mba47b8fb2d" y="269.305791"/>
      </g>
     </g>
     <g id="text_7">
      <!-- −0.75 -->
      <defs>
       <path d="M 8.203125 72.90625 
L 55.078125 72.90625 
L 55.078125 68.703125 
L 28.609375 0 
L 18.3125 0 
L 43.21875 64.59375 
L 8.203125 64.59375 
z
" id="DejaVuSans-37"/>
      </defs>
      <g transform="translate(10.664687 273.10501)scale(0.1 -0.1)">
       <use xlink:href="#DejaVuSans-2212"/>
       <use x="83.789062" xlink:href="#DejaVuSans-30"/>
       <use x="147.412109" xlink:href="#DejaVuSans-2e"/>
       <use x="179.199219" xlink:href="#DejaVuSans-37"/>
       <use x="242.822266" xlink:href="#DejaVuSans-35"/>
      </g>
     </g>
    </g>
    <g id="ytick_3">
     <g id="line2d_15">
      <path clip-path="url(#pdde2bca32b)" d="M 48.31 234.710527 
L 447.48 234.710527 
" style="fill:none;stroke:#b0b0b0;stroke-dasharray:1.85,0.8;stroke-dashoffset:0;stroke-width:0.5;"/>
     </g>
     <g id="line2d_16">
      <g>
       <use style="stroke:#000000;stroke-width:0.8;" x="48.31" xlink:href="#mba47b8fb2d" y="234.710527"/>
      </g>
     </g>
     <g id="text_8">
      <!-- −0.50 -->
      <g transform="translate(10.664687 238.509746)scale(0.1 -0.1)">
       <use xlink:href="#DejaVuSans-2212"/>
       <use x="83.789062" xlink:href="#DejaVuSans-30"/>
       <use x="147.412109" xlink:href="#DejaVuSans-2e"/>
       <use x="179.199219" xlink:href="#DejaVuSans-35"/>
       <use x="242.822266" xlink:href="#DejaVuSans-30"/>
      </g>
     </g>
    </g>
    <g id="ytick_4">
     <g id="line2d_17">
      <path clip-path="url(#pdde2bca32b)" d="M 48.31 200.115264 
L 447.48 200.115264 
" style="fill:none;stroke:#b0b0b0;stroke-dasharray:1.85,0.8;stroke-dashoffset:0;stroke-width:0.5;"/>
     </g>
     <g id="line2d_18">
      <g>
       <use style="stroke:#000000;stroke-width:0.8;" x="48.31" xlink:href="#mba47b8fb2d" y="200.115264"/>
      </g>
     </g>
     <g id="text_9">
      <!-- −0.25 -->
      <defs>
       <path d="M 19.1875 8.296875 
L 53.609375 8.296875 
L 53.609375 0 
L 7.328125 0 
L 7.328125 8.296875 
Q 12.9375 14.109375 22.625 23.890625 
Q 32.328125 33.6875 34.8125 36.53125 
Q 39.546875 41.84375 41.421875 45.53125 
Q 43.3125 49.21875 43.3125 52.78125 
Q 43.3125 58.59375 39.234375 62.25 
Q 35.15625 65.921875 28.609375 65.921875 
Q 23.96875 65.921875 18.8125 64.3125 
Q 13.671875 62.703125 7.8125 59.421875 
L 7.8125 69.390625 
Q 13.765625 71.78125 18.9375 73 
Q 24.125 74.21875 28.421875 74.21875 
Q 39.75 74.21875 46.484375 68.546875 
Q 53.21875 62.890625 53.21875 53.421875 
Q 53.21875 48.921875 51.53125 44.890625 
Q 49.859375 40.875 45.40625 35.40625 
Q 44.1875 33.984375 37.640625 27.21875 
Q 31.109375 20.453125 19.1875 8.296875 
z
" id="DejaVuSans-32"/>
      </defs>
      <g transform="translate(10.664687 203.914482)scale(0.1 -0.1)">
       <use xlink:href="#DejaVuSans-2212"/>
       <use x="83.789062" xlink:href="#DejaVuSans-30"/>
       <use x="147.412109" xlink:href="#DejaVuSans-2e"/>
       <use x="179.199219" xlink:href="#DejaVuSans-32"/>
       <use x="242.822266" xlink:href="#DejaVuSans-35"/>
      </g>
     </g>
    </g>
    <g id="ytick_5">
     <g id="line2d_19">
      <path clip-path="url(#pdde2bca32b)" d="M 48.31 165.52 
L 447.48 165.52 
" style="fill:none;stroke:#b0b0b0;stroke-dasharray:1.85,0.8;stroke-dashoffset:0;stroke-width:0.5;"/>
     </g>
     <g id="line2d_20">
      <g>
       <use style="stroke:#000000;stroke-width:0.8;" x="48.31" xlink:href="#mba47b8fb2d" y="165.52"/>
      </g>
     </g>
     <g id="text_10">
      <!-- 0.00 -->
      <g transform="translate(19.044375 169.319219)scale(0.1 -0.1)">
       <use xlink:href="#DejaVuSans-30"/>
       <use x="63.623047" xlink:href="#DejaVuSans-2e"/>
       <use x="95.410156" xlink:href="#DejaVuSans-30"/>
       <use x="159.033203" xlink:href="#DejaVuSans-30"/>
      </g>
     </g>
    </g>
    <g id="ytick_6">
     <g id="line2d_21">
      <path clip-path="url(#pdde2bca32b)" d="M 48.31 130.924736 
L 447.48 130.924736 
" style="fill:none;stroke:#b0b0b0;stroke-dasharray:1.85,0.8;stroke-dashoffset:0;stroke-width:0.5;"/>
     </g>
     <g id="line2d_22">
      <g>
       <use style="stroke:#000000;stroke-width:0.8;" x="48.31" xlink:href="#mba47b8fb2d" y="130.924736"/>
      </g>
     </g>
     <g id="text_11">
      <!-- 0.25 -->
      <g transform="translate(19.044375 134.723955)scale(0.1 -0.1)">
       <use xlink:href="#DejaVuSans-30"/>
       <use x="63.623047" xlink:href="#DejaVuSans-2e"/>
       <use x="95.410156" xlink:href="#DejaVuSans-32"/>
       <use x="159.033203" xlink:href="#DejaVuSans-35"/>
      </g>
     </g>
    </g>
    <g id="ytick_7">
     <g id="line2d_23">
      <path clip-path="url(#pdde2bca32b)" d="M 48.31 96.329473 
L 447.48 96.329473 
" style="fill:none;stroke:#b0b0b0;stroke-dasharray:1.85,0.8;stroke-dashoffset:0;stroke-width:0.5;"/>
     </g>
     <g id="line2d_24">
      <g>
       <use style="stroke:#000000;stroke-width:0.8;" x="48.31" xlink:href="#mba47b8fb2d" y="96.329473"/>
      </g>
     </g>
     <g id="text_12">
      <!-- 0.50 -->
      <g transform="translate(19.044375 100.128691)scale(0.1 -0.1)">
       <use xlink:href="#DejaVuSans-30"/>
       <use x="63.623047" xlink:href="#DejaVuSans-2e"/>
       <use x="95.410156" xlink:href="#DejaVuSans-35"/>
       <use x="159.033203" xlink:href="#DejaVuSans-30"/>
      </g>
     </g>
    </g>
    <g id="ytick_8">
     <g id="line2d_25">
      <path clip-path="url(#pdde2bca32b)" d="M 48.31 61.734209 
L 447.48 61.734209 
" style="fill:none;stroke:#b0b0b0;stroke-dasharray:1.85,0.8;stroke-dashoffset:0;stroke-width:0.5;"/>
     </g>
     <g id="line2d_26">
      <g>
       <use style="stroke:#000000;stroke-width:0.8;" x="48.31" xlink:href="#mba47b8fb2d" y="61.734209"/>
      </g>
     </g>
     <g id="text_13">
      <!-- 0.75 -->
      <g transform="translate(19.044375 65.533428)scale(0.1 -0.1)">
       <use xlink:href="#DejaVuSans-30"/>
       <use x="63.623047" xlink:href="#DejaVuSans-2e"/>
       <use x="95.410156" xlink:href="#DejaVuSans-37"/>
       <use x="159.033203" xlink:href="#DejaVuSans-35"/>
      </g>
     </g>
    </g>
    <g id="ytick_9">
     <g id="line2d_27">
      <path clip-path="url(#pdde2bca32b)" d="M 48.31 27.138945 
L 447.48 27.138945 
" style="fill:none;stroke:#b0b0b0;stroke-dasharray:1.85,0.8;stroke-dashoffset:0;stroke-width:0.5;"/>
     </g>
     <g id="line2d_28">
      <g>
       <use style="stroke:#000000;stroke-width:0.8;" x="48.31" xlink:href="#mba47b8fb2d" y="27.138945"/>
      </g>
     </g>
     <g id="text_14">
      <!-- 1.00 -->
      <g transform="translate(19.044375 30.938164)scale(0.1 -0.1)">
       <use xlink:href="#DejaVuSans-31"/>
       <use x="63.623047" xlink:href="#DejaVuSans-2e"/>
       <use x="95.410156" xlink:href="#DejaVuSans-30"/>
       <use x="159.033203" xlink:href="#DejaVuSans-30"/>
      </g>
     </g>
    </g>
   </g>
   <g id="line2d_29">
    <defs>
     <path d="M 0 1.5 
C 0.397805 1.5 0.77937 1.341951 1.06066 1.06066 
C 1.341951 0.77937 1.5 0.397805 1.5 0 
C 1.5 -0.397805 1.341951 -0.77937 1.06066 -1.06066 
C 0.77937 -1.341951 0.397805 -1.5 0 -1.5 
C -0.397805 -1.5 -0.77937 -1.341951 -1.06066 -1.06066 
C -1.341951 -0.77937 -1.5 -0.397805 -1.5 0 
C -1.5 0.397805 -1.341951 0.77937 -1.06066 1.06066 
C -0.77937 1.341951 -0.397805 1.5 0 1.5 
z
" id="m997404c843" style="stroke:#000000;"/>
    </defs>
    <g clip-path="url(#pdde2bca32b)">
     <use style="stroke:#000000;" x="302.235392" xlink:href="#m997404c843" y="161.886624"/>
     <use style="stroke:#000000;" x="188.671637" xlink:href="#m997404c843" y="119.404638"/>
     <use style="stroke:#000000;" x="172.262998" xlink:href="#m997404c843" y="274.589599"/>
     <use style="stroke:#000000;" x="262.062149" xlink:href="#m997404c843" y="267.674292"/>
     <use style="stroke:#000000;" x="308.600861" xlink:href="#m997404c843" y="214.789023"/>
     <use style="stroke:#000000;" x="226.578947" xlink:href="#m997404c843" y="120.805113"/>
     <use style="stroke:#000000;" x="299.014034" xlink:href="#m997404c843" y="150.780385"/>
     <use style="stroke:#000000;" x="242.582838" xlink:href="#m997404c843" y="67.420982"/>
     <use style="stroke:#000000;" x="218.002382" xlink:href="#m997404c843" y="197.39253"/>
     <use style="stroke:#000000;" x="204.457782" xlink:href="#m997404c843" y="216.226168"/>
     <use style="stroke:#000000;" x="311.252446" xlink:href="#m997404c843" y="205.854016"/>
     <use style="stroke:#000000;" x="230.85929" xlink:href="#m997404c843" y="256.552087"/>
     <use style="stroke:#000000;" x="219.642679" xlink:href="#m997404c843" y="210.169797"/>
     <use style="stroke:#000000;" x="313.728276" xlink:href="#m997404c843" y="151.025947"/>
     <use style="stroke:#000000;" x="159.985907" xlink:href="#m997404c843" y="143.77993"/>
     <use style="stroke:#000000;" x="158.037509" xlink:href="#m997404c843" y="159.560465"/>
     <use style="stroke:#000000;" x="256.59239" xlink:href="#m997404c843" y="303.1571"/>
     <use style="stroke:#000000;" x="256.668836" xlink:href="#m997404c843" y="30.364492"/>
     <use style="stroke:#000000;" x="285.057258" xlink:href="#m997404c843" y="53.33681"/>
     <use style="stroke:#000000;" x="344.569646" xlink:href="#m997404c843" y="246.435316"/>
     <use style="stroke:#000000;" x="309.980895" xlink:href="#m997404c843" y="222.951068"/>
     <use style="stroke:#000000;" x="278.587267" xlink:href="#m997404c843" y="159.981948"/>
     <use style="stroke:#000000;" x="309.424065" xlink:href="#m997404c843" y="54.286161"/>
     <use style="stroke:#000000;" x="209.608502" xlink:href="#m997404c843" y="232.62317"/>
     <use style="stroke:#000000;" x="172.653724" xlink:href="#m997404c843" y="147.707856"/>
     <use style="stroke:#000000;" x="190.76803" xlink:href="#m997404c843" y="80.562699"/>
     <use style="stroke:#000000;" x="284.109394" xlink:href="#m997404c843" y="194.754367"/>
     <use style="stroke:#000000;" x="134.970268" xlink:href="#m997404c843" y="101.567739"/>
     <use style="stroke:#000000;" x="229.511162" xlink:href="#m997404c843" y="259.323255"/>
     <use style="stroke:#000000;" x="228.725598" xlink:href="#m997404c843" y="137.650452"/>
     <use style="stroke:#000000;" x="246.11244" xlink:href="#m997404c843" y="64.262581"/>
     <use style="stroke:#000000;" x="227.3328" xlink:href="#m997404c843" y="31.699539"/>
     <use style="stroke:#000000;" x="195.901186" xlink:href="#m997404c843" y="281.935611"/>
     <use style="stroke:#000000;" x="227.476998" xlink:href="#m997404c843" y="185.350759"/>
     <use style="stroke:#000000;" x="356.73538" xlink:href="#m997404c843" y="247.291341"/>
     <use style="stroke:#000000;" x="370.786829" xlink:href="#m997404c843" y="179.181949"/>
     <use style="stroke:#000000;" x="248.368488" xlink:href="#m997404c843" y="152.300853"/>
     <use style="stroke:#000000;" x="282.165646" xlink:href="#m997404c843" y="278.071757"/>
     <use style="stroke:#000000;" x="141.477902" xlink:href="#m997404c843" y="221.74124"/>
     <use style="stroke:#000000;" x="197.29171" xlink:href="#m997404c843" y="47.180884"/>
     <use style="stroke:#000000;" x="224.287288" xlink:href="#m997404c843" y="146.422382"/>
     <use style="stroke:#000000;" x="349.240661" xlink:href="#m997404c843" y="177.306745"/>
     <use style="stroke:#000000;" x="178.795666" xlink:href="#m997404c843" y="95.353612"/>
     <use style="stroke:#000000;" x="243.164693" xlink:href="#m997404c843" y="98.581721"/>
     <use style="stroke:#000000;" x="253.252908" xlink:href="#m997404c843" y="107.760469"/>
     <use style="stroke:#000000;" x="279.105093" xlink:href="#m997404c843" y="71.630295"/>
     <use style="stroke:#000000;" x="338.178934" xlink:href="#m997404c843" y="87.750418"/>
     <use style="stroke:#000000;" x="276.383304" xlink:href="#m997404c843" y="224.598576"/>
     <use style="stroke:#000000;" x="260.333282" xlink:href="#m997404c843" y="219.081839"/>
     <use style="stroke:#000000;" x="204.343152" xlink:href="#m997404c843" y="119.781888"/>
     <use style="stroke:#000000;" x="193.648222" xlink:href="#m997404c843" y="273.071922"/>
     <use style="stroke:#000000;" x="224.895058" xlink:href="#m997404c843" y="119.889553"/>
     <use style="stroke:#000000;" x="298.037348" xlink:href="#m997404c843" y="58.175936"/>
     <use style="stroke:#000000;" x="351.772393" xlink:href="#m997404c843" y="111.188479"/>
     <use style="stroke:#000000;" x="250.744674" xlink:href="#m997404c843" y="182.034983"/>
     <use style="stroke:#000000;" x="294.719805" xlink:href="#m997404c843" y="182.619917"/>
     <use style="stroke:#000000;" x="271.644147" xlink:href="#m997404c843" y="92.151445"/>
     <use style="stroke:#000000;" x="282.428722" xlink:href="#m997404c843" y="147.352781"/>
     <use style="stroke:#000000;" x="296.207476" xlink:href="#m997404c843" y="280.402799"/>
     <use style="stroke:#000000;" x="342.607581" xlink:href="#m997404c843" y="142.639775"/>
     <use style="stroke:#000000;" x="320.837585" xlink:href="#m997404c843" y="210.613851"/>
     <use style="stroke:#000000;" x="176.916731" xlink:href="#m997404c843" y="47.183004"/>
     <use style="stroke:#000000;" x="163.232667" xlink:href="#m997404c843" y="96.131034"/>
     <use style="stroke:#000000;" x="267.913506" xlink:href="#m997404c843" y="145.02194"/>
     <use style="stroke:#000000;" x="135.968709" xlink:href="#m997404c843" y="95.874479"/>
     <use style="stroke:#000000;" x="283.077859" xlink:href="#m997404c843" y="66.054721"/>
     <use style="stroke:#000000;" x="309.693348" xlink:href="#m997404c843" y="76.539843"/>
     <use style="stroke:#000000;" x="273.995332" xlink:href="#m997404c843" y="268.300813"/>
     <use style="stroke:#000000;" x="263.576155" xlink:href="#m997404c843" y="281.267425"/>
     <use style="stroke:#000000;" x="153.473117" xlink:href="#m997404c843" y="265.592869"/>
     <use style="stroke:#000000;" x="151.843229" xlink:href="#m997404c843" y="193.36816"/>
     <use style="stroke:#000000;" x="301.97533" xlink:href="#m997404c843" y="186.468993"/>
     <use style="stroke:#000000;" x="197.701579" xlink:href="#m997404c843" y="148.30031"/>
     <use style="stroke:#000000;" x="300.990269" xlink:href="#m997404c843" y="270.068672"/>
     <use style="stroke:#000000;" x="262.911388" xlink:href="#m997404c843" y="248.161304"/>
     <use style="stroke:#000000;" x="217.125892" xlink:href="#m997404c843" y="79.268653"/>
     <use style="stroke:#000000;" x="365.52073" xlink:href="#m997404c843" y="174.379827"/>
     <use style="stroke:#000000;" x="342.421475" xlink:href="#m997404c843" y="80.294372"/>
     <use style="stroke:#000000;" x="121.543576" xlink:href="#m997404c843" y="151.241088"/>
     <use style="stroke:#000000;" x="193.827366" xlink:href="#m997404c843" y="45.977548"/>
     <use style="stroke:#000000;" x="219.68182" xlink:href="#m997404c843" y="142.776947"/>
     <use style="stroke:#000000;" x="304.585004" xlink:href="#m997404c843" y="246.861566"/>
     <use style="stroke:#000000;" x="207.98286" xlink:href="#m997404c843" y="199.012132"/>
     <use style="stroke:#000000;" x="320.523452" xlink:href="#m997404c843" y="118.917704"/>
     <use style="stroke:#000000;" x="273.648005" xlink:href="#m997404c843" y="295.786466"/>
     <use style="stroke:#000000;" x="300.91596" xlink:href="#m997404c843" y="127.90793"/>
     <use style="stroke:#000000;" x="219.872955" xlink:href="#m997404c843" y="97.77399"/>
     <use style="stroke:#000000;" x="176.138897" xlink:href="#m997404c843" y="173.016655"/>
     <use style="stroke:#000000;" x="204.534722" xlink:href="#m997404c843" y="270.204062"/>
    </g>
   </g>
   <g id="line2d_30">
    <defs>
     <path d="M -3 3 
L 3 -3 
M -3 -3 
L 3 3 
" id="m5ddae75945" style="stroke:#000000;"/>
    </defs>
    <g clip-path="url(#pdde2bca32b)">
     <use style="stroke:#000000;" x="380.917479" xlink:href="#m5ddae75945" y="69.620206"/>
     <use style="stroke:#000000;" x="125.995691" xlink:href="#m5ddae75945" y="74.434093"/>
     <use style="stroke:#000000;" x="198.861901" xlink:href="#m5ddae75945" y="31.669296"/>
     <use style="stroke:#000000;" x="382.244716" xlink:href="#m5ddae75945" y="290.456219"/>
     <use style="stroke:#000000;" x="142.864555" xlink:href="#m5ddae75945" y="257.975736"/>
     <use style="stroke:#000000;" x="132.504331" xlink:href="#m5ddae75945" y="78.383193"/>
     <use style="stroke:#000000;" x="354.504031" xlink:href="#m5ddae75945" y="281.995621"/>
     <use style="stroke:#000000;" x="113.943064" xlink:href="#m5ddae75945" y="52.083055"/>
     <use style="stroke:#000000;" x="208.393215" xlink:href="#m5ddae75945" y="301.845715"/>
     <use style="stroke:#000000;" x="384.956624" xlink:href="#m5ddae75945" y="105.252958"/>
     <use style="stroke:#000000;" x="151.305463" xlink:href="#m5ddae75945" y="294.989886"/>
    </g>
   </g>
   <g id="line2d_31">
    <path clip-path="url(#pdde2bca32b)" d="M 386.24122 165.52 
L 385.962614 156.743331 
L 385.127919 148.002003 
L 383.740494 139.331213 
L 381.805928 130.765877 
L 379.332009 122.340483 
L 376.328699 114.088957 
L 372.808092 106.044527 
L 368.784364 98.239583 
L 364.273717 90.705553 
L 359.294313 83.472775 
L 353.866203 76.570373 
L 348.011245 70.026139 
L 341.753014 63.866425 
L 335.116709 58.116034 
L 328.129052 52.798121 
L 320.818182 47.934099 
L 313.213535 43.543554 
L 305.345733 39.644165 
L 297.246457 36.251634 
L 288.94832 33.379621 
L 280.484736 31.03969 
L 271.889783 29.241264 
L 263.198073 27.991585 
L 254.444601 27.295684 
L 245.664617 27.156364 
L 236.893473 27.574185 
L 228.166488 28.547465 
L 219.518803 30.072285 
L 210.985238 32.142506 
L 202.600156 34.74979 
L 194.39732 37.88364 
L 186.409759 41.531437 
L 178.669638 45.678491 
L 171.208123 50.308105 
L 164.055258 55.401637 
L 157.239846 60.938577 
L 150.789331 66.896629 
L 144.729685 73.251802 
L 139.085309 79.978508 
L 133.878931 87.049658 
L 129.131516 94.436781 
L 124.862179 102.110131 
L 121.088111 110.03881 
L 117.82451 118.190892 
L 115.084516 126.533552 
L 112.879163 135.033196 
L 111.217331 143.6556 
L 110.105711 152.366044 
L 109.54878 161.129455 
L 109.54878 169.910545 
L 110.105711 178.673956 
L 111.217331 187.3844 
L 112.879163 196.006804 
L 115.084516 204.506448 
L 117.82451 212.849108 
L 121.088111 221.00119 
L 124.862179 228.929869 
L 129.131516 236.603219 
L 133.878931 243.990342 
L 139.085309 251.061492 
L 144.729685 257.788198 
L 150.789331 264.143371 
L 157.239846 270.101423 
L 164.055258 275.638363 
L 171.208123 280.731895 
L 178.669638 285.361509 
L 186.409759 289.508563 
L 194.39732 293.15636 
L 202.600156 296.29021 
L 210.985238 298.897494 
L 219.518803 300.967715 
L 228.166488 302.492535 
L 236.893473 303.465815 
L 245.664617 303.883636 
L 254.444601 303.744316 
L 263.198073 303.048415 
L 271.889783 301.798736 
L 280.484736 300.00031 
L 288.94832 297.660379 
L 297.246457 294.788366 
L 305.345733 291.395835 
L 313.213535 287.496446 
L 320.818182 283.105901 
L 328.129052 278.241879 
L 335.116709 272.923966 
L 341.753014 267.173575 
L 348.011245 261.013861 
L 353.866203 254.469627 
L 359.294313 247.567225 
L 364.273717 240.334447 
L 368.784364 232.800417 
L 372.808092 224.995473 
L 376.328699 216.951043 
L 379.332009 208.699517 
L 381.805928 200.274123 
L 383.740494 191.708787 
L 385.127919 183.037997 
L 385.962614 174.296669 
L 386.24122 165.52 
L 386.24122 165.52 
" style="fill:none;stroke:#000000;stroke-linecap:square;stroke-width:1.5;"/>
   </g>
   <g id="patch_3">
    <path d="M 48.31 317.72 
L 48.31 13.32 
" style="fill:none;stroke:#000000;stroke-linecap:square;stroke-linejoin:miter;stroke-width:0.8;"/>
   </g>
   <g id="patch_4">
    <path d="M 447.48 317.72 
L 447.48 13.32 
" style="fill:none;stroke:#000000;stroke-linecap:square;stroke-linejoin:miter;stroke-width:0.8;"/>
   </g>
   <g id="patch_5">
    <path d="M 48.31 317.72 
L 447.48 317.72 
" style="fill:none;stroke:#000000;stroke-linecap:square;stroke-linejoin:miter;stroke-width:0.8;"/>
   </g>
   <g id="patch_6">
    <path d="M 48.31 13.32 
L 447.48 13.32 
" style="fill:none;stroke:#000000;stroke-linecap:square;stroke-linejoin:miter;stroke-width:0.8;"/>
   </g>
   <g id="legend_1">
    <g id="patch_7">
     <path d="M 368.834688 65.354375 
L 440.48 65.354375 
Q 442.48 65.354375 442.48 63.354375 
L 442.48 20.32 
Q 442.48 18.32 440.48 18.32 
L 368.834688 18.32 
Q 366.834688 18.32 366.834688 20.32 
L 366.834688 63.354375 
Q 366.834688 65.354375 368.834688 65.354375 
z
" style="fill:#ffffff;opacity:0.8;stroke:#cccccc;stroke-linejoin:miter;"/>
    </g>
    <g id="line2d_32"/>
    <g id="line2d_33">
     <g>
      <use style="stroke:#000000;" x="380.834688" xlink:href="#m997404c843" y="26.418437"/>
     </g>
    </g>
    <g id="text_15">
     <!-- Inside -->
     <defs>
      <path d="M 9.8125 72.90625 
L 19.671875 72.90625 
L 19.671875 0 
L 9.8125 0 
z
" id="DejaVuSans-49"/>
      <path d="M 54.890625 33.015625 
L 54.890625 0 
L 45.90625 0 
L 45.90625 32.71875 
Q 45.90625 40.484375 42.875 44.328125 
Q 39.84375 48.1875 33.796875 48.1875 
Q 26.515625 48.1875 22.3125 43.546875 
Q 18.109375 38.921875 18.109375 30.90625 
L 18.109375 0 
L 9.078125 0 
L 9.078125 54.6875 
L 18.109375 54.6875 
L 18.109375 46.1875 
Q 21.34375 51.125 25.703125 53.5625 
Q 30.078125 56 35.796875 56 
Q 45.21875 56 50.046875 50.171875 
Q 54.890625 44.34375 54.890625 33.015625 
z
" id="DejaVuSans-6e"/>
      <path d="M 44.28125 53.078125 
L 44.28125 44.578125 
Q 40.484375 46.53125 36.375 47.5 
Q 32.28125 48.484375 27.875 48.484375 
Q 21.1875 48.484375 17.84375 46.4375 
Q 14.5 44.390625 14.5 40.28125 
Q 14.5 37.15625 16.890625 35.375 
Q 19.28125 33.59375 26.515625 31.984375 
L 29.59375 31.296875 
Q 39.15625 29.25 43.1875 25.515625 
Q 47.21875 21.78125 47.21875 15.09375 
Q 47.21875 7.46875 41.1875 3.015625 
Q 35.15625 -1.421875 24.609375 -1.421875 
Q 20.21875 -1.421875 15.453125 -0.5625 
Q 10.6875 0.296875 5.421875 2 
L 5.421875 11.28125 
Q 10.40625 8.6875 15.234375 7.390625 
Q 20.0625 6.109375 24.8125 6.109375 
Q 31.15625 6.109375 34.5625 8.28125 
Q 37.984375 10.453125 37.984375 14.40625 
Q 37.984375 18.0625 35.515625 20.015625 
Q 33.0625 21.96875 24.703125 23.78125 
L 21.578125 24.515625 
Q 13.234375 26.265625 9.515625 29.90625 
Q 5.8125 33.546875 5.8125 39.890625 
Q 5.8125 47.609375 11.28125 51.796875 
Q 16.75 56 26.8125 56 
Q 31.78125 56 36.171875 55.265625 
Q 40.578125 54.546875 44.28125 53.078125 
z
" id="DejaVuSans-73"/>
      <path d="M 9.421875 54.6875 
L 18.40625 54.6875 
L 18.40625 0 
L 9.421875 0 
z
M 9.421875 75.984375 
L 18.40625 75.984375 
L 18.40625 64.59375 
L 9.421875 64.59375 
z
" id="DejaVuSans-69"/>
      <path d="M 45.40625 46.390625 
L 45.40625 75.984375 
L 54.390625 75.984375 
L 54.390625 0 
L 45.40625 0 
L 45.40625 8.203125 
Q 42.578125 3.328125 38.25 0.953125 
Q 33.9375 -1.421875 27.875 -1.421875 
Q 17.96875 -1.421875 11.734375 6.484375 
Q 5.515625 14.40625 5.515625 27.296875 
Q 5.515625 40.1875 11.734375 48.09375 
Q 17.96875 56 27.875 56 
Q 33.9375 56 38.25 53.625 
Q 42.578125 51.265625 45.40625 46.390625 
z
M 14.796875 27.296875 
Q 14.796875 17.390625 18.875 11.75 
Q 22.953125 6.109375 30.078125 6.109375 
Q 37.203125 6.109375 41.296875 11.75 
Q 45.40625 17.390625 45.40625 27.296875 
Q 45.40625 37.203125 41.296875 42.84375 
Q 37.203125 48.484375 30.078125 48.484375 
Q 22.953125 48.484375 18.875 42.84375 
Q 14.796875 37.203125 14.796875 27.296875 
z
" id="DejaVuSans-64"/>
      <path d="M 56.203125 29.59375 
L 56.203125 25.203125 
L 14.890625 25.203125 
Q 15.484375 15.921875 20.484375 11.0625 
Q 25.484375 6.203125 34.421875 6.203125 
Q 39.59375 6.203125 44.453125 7.46875 
Q 49.3125 8.734375 54.109375 11.28125 
L 54.109375 2.78125 
Q 49.265625 0.734375 44.1875 -0.34375 
Q 39.109375 -1.421875 33.890625 -1.421875 
Q 20.796875 -1.421875 13.15625 6.1875 
Q 5.515625 13.8125 5.515625 26.8125 
Q 5.515625 40.234375 12.765625 48.109375 
Q 20.015625 56 32.328125 56 
Q 43.359375 56 49.78125 48.890625 
Q 56.203125 41.796875 56.203125 29.59375 
z
M 47.21875 32.234375 
Q 47.125 39.59375 43.09375 43.984375 
Q 39.0625 48.390625 32.421875 48.390625 
Q 24.90625 48.390625 20.390625 44.140625 
Q 15.875 39.890625 15.1875 32.171875 
z
" id="DejaVuSans-65"/>
     </defs>
     <g transform="translate(398.834688 29.918437)scale(0.1 -0.1)">
      <use xlink:href="#DejaVuSans-49"/>
      <use x="29.492188" xlink:href="#DejaVuSans-6e"/>
      <use x="92.871094" xlink:href="#DejaVuSans-73"/>
      <use x="144.970703" xlink:href="#DejaVuSans-69"/>
      <use x="172.753906" xlink:href="#DejaVuSans-64"/>
      <use x="236.230469" xlink:href="#DejaVuSans-65"/>
     </g>
    </g>
    <g id="line2d_34"/>
    <g id="line2d_35">
     <g>
      <use style="stroke:#000000;" x="380.834688" xlink:href="#m5ddae75945" y="41.096563"/>
     </g>
    </g>
    <g id="text_16">
     <!-- Outside -->
     <defs>
      <path d="M 39.40625 66.21875 
Q 28.65625 66.21875 22.328125 58.203125 
Q 16.015625 50.203125 16.015625 36.375 
Q 16.015625 22.609375 22.328125 14.59375 
Q 28.65625 6.59375 39.40625 6.59375 
Q 50.140625 6.59375 56.421875 14.59375 
Q 62.703125 22.609375 62.703125 36.375 
Q 62.703125 50.203125 56.421875 58.203125 
Q 50.140625 66.21875 39.40625 66.21875 
z
M 39.40625 74.21875 
Q 54.734375 74.21875 63.90625 63.9375 
Q 73.09375 53.65625 73.09375 36.375 
Q 73.09375 19.140625 63.90625 8.859375 
Q 54.734375 -1.421875 39.40625 -1.421875 
Q 24.03125 -1.421875 14.8125 8.828125 
Q 5.609375 19.09375 5.609375 36.375 
Q 5.609375 53.65625 14.8125 63.9375 
Q 24.03125 74.21875 39.40625 74.21875 
z
" id="DejaVuSans-4f"/>
      <path d="M 8.5 21.578125 
L 8.5 54.6875 
L 17.484375 54.6875 
L 17.484375 21.921875 
Q 17.484375 14.15625 20.5 10.265625 
Q 23.53125 6.390625 29.59375 6.390625 
Q 36.859375 6.390625 41.078125 11.03125 
Q 45.3125 15.671875 45.3125 23.6875 
L 45.3125 54.6875 
L 54.296875 54.6875 
L 54.296875 0 
L 45.3125 0 
L 45.3125 8.40625 
Q 42.046875 3.421875 37.71875 1 
Q 33.40625 -1.421875 27.6875 -1.421875 
Q 18.265625 -1.421875 13.375 4.4375 
Q 8.5 10.296875 8.5 21.578125 
z
M 31.109375 56 
z
" id="DejaVuSans-75"/>
      <path d="M 18.3125 70.21875 
L 18.3125 54.6875 
L 36.8125 54.6875 
L 36.8125 47.703125 
L 18.3125 47.703125 
L 18.3125 18.015625 
Q 18.3125 11.328125 20.140625 9.421875 
Q 21.96875 7.515625 27.59375 7.515625 
L 36.8125 7.515625 
L 36.8125 0 
L 27.59375 0 
Q 17.1875 0 13.234375 3.875 
Q 9.28125 7.765625 9.28125 18.015625 
L 9.28125 47.703125 
L 2.6875 47.703125 
L 2.6875 54.6875 
L 9.28125 54.6875 
L 9.28125 70.21875 
z
" id="DejaVuSans-74"/>
     </defs>
     <g transform="translate(398.834688 44.596563)scale(0.1 -0.1)">
      <use xlink:href="#DejaVuSans-4f"/>
      <use x="78.710938" xlink:href="#DejaVuSans-75"/>
      <use x="142.089844" xlink:href="#DejaVuSans-74"/>
      <use x="181.298828" xlink:href="#DejaVuSans-73"/>
      <use x="233.398438" xlink:href="#DejaVuSans-69"/>
      <use x="261.181641" xlink:href="#DejaVuSans-64"/>
      <use x="324.658203" xlink:href="#DejaVuSans-65"/>
     </g>
    </g>
    <g id="line2d_36">
     <path d="M 370.834688 55.774687 
L 390.834688 55.774687 
" style="fill:none;stroke:#000000;stroke-linecap:square;stroke-width:1.5;"/>
    </g>
    <g id="line2d_37"/>
    <g id="text_17">
     <!-- Polygon -->
     <defs>
      <path d="M 19.671875 64.796875 
L 19.671875 37.40625 
L 32.078125 37.40625 
Q 38.96875 37.40625 42.71875 40.96875 
Q 46.484375 44.53125 46.484375 51.125 
Q 46.484375 57.671875 42.71875 61.234375 
Q 38.96875 64.796875 32.078125 64.796875 
z
M 9.8125 72.90625 
L 32.078125 72.90625 
Q 44.34375 72.90625 50.609375 67.359375 
Q 56.890625 61.8125 56.890625 51.125 
Q 56.890625 40.328125 50.609375 34.8125 
Q 44.34375 29.296875 32.078125 29.296875 
L 19.671875 29.296875 
L 19.671875 0 
L 9.8125 0 
z
" id="DejaVuSans-50"/>
      <path d="M 30.609375 48.390625 
Q 23.390625 48.390625 19.1875 42.75 
Q 14.984375 37.109375 14.984375 27.296875 
Q 14.984375 17.484375 19.15625 11.84375 
Q 23.34375 6.203125 30.609375 6.203125 
Q 37.796875 6.203125 41.984375 11.859375 
Q 46.1875 17.53125 46.1875 27.296875 
Q 46.1875 37.015625 41.984375 42.703125 
Q 37.796875 48.390625 30.609375 48.390625 
z
M 30.609375 56 
Q 42.328125 56 49.015625 48.375 
Q 55.71875 40.765625 55.71875 27.296875 
Q 55.71875 13.875 49.015625 6.21875 
Q 42.328125 -1.421875 30.609375 -1.421875 
Q 18.84375 -1.421875 12.171875 6.21875 
Q 5.515625 13.875 5.515625 27.296875 
Q 5.515625 40.765625 12.171875 48.375 
Q 18.84375 56 30.609375 56 
z
" id="DejaVuSans-6f"/>
      <path d="M 9.421875 75.984375 
L 18.40625 75.984375 
L 18.40625 0 
L 9.421875 0 
z
" id="DejaVuSans-6c"/>
      <path d="M 32.171875 -5.078125 
Q 28.375 -14.84375 24.75 -17.8125 
Q 21.140625 -20.796875 15.09375 -20.796875 
L 7.90625 -20.796875 
L 7.90625 -13.28125 
L 13.1875 -13.28125 
Q 16.890625 -13.28125 18.9375 -11.515625 
Q 21 -9.765625 23.484375 -3.21875 
L 25.09375 0.875 
L 2.984375 54.6875 
L 12.5 54.6875 
L 29.59375 11.921875 
L 46.6875 54.6875 
L 56.203125 54.6875 
z
" id="DejaVuSans-79"/>
      <path d="M 45.40625 27.984375 
Q 45.40625 37.75 41.375 43.109375 
Q 37.359375 48.484375 30.078125 48.484375 
Q 22.859375 48.484375 18.828125 43.109375 
Q 14.796875 37.75 14.796875 27.984375 
Q 14.796875 18.265625 18.828125 12.890625 
Q 22.859375 7.515625 30.078125 7.515625 
Q 37.359375 7.515625 41.375 12.890625 
Q 45.40625 18.265625 45.40625 27.984375 
z
M 54.390625 6.78125 
Q 54.390625 -7.171875 48.1875 -13.984375 
Q 42 -20.796875 29.203125 -20.796875 
Q 24.46875 -20.796875 20.265625 -20.09375 
Q 16.0625 -19.390625 12.109375 -17.921875 
L 12.109375 -9.1875 
Q 16.0625 -11.328125 19.921875 -12.34375 
Q 23.78125 -13.375 27.78125 -13.375 
Q 36.625 -13.375 41.015625 -8.765625 
Q 45.40625 -4.15625 45.40625 5.171875 
L 45.40625 9.625 
Q 42.625 4.78125 38.28125 2.390625 
Q 33.9375 0 27.875 0 
Q 17.828125 0 11.671875 7.65625 
Q 5.515625 15.328125 5.515625 27.984375 
Q 5.515625 40.671875 11.671875 48.328125 
Q 17.828125 56 27.875 56 
Q 33.9375 56 38.28125 53.609375 
Q 42.625 51.21875 45.40625 46.390625 
L 45.40625 54.6875 
L 54.390625 54.6875 
z
" id="DejaVuSans-67"/>
     </defs>
     <g transform="translate(398.834688 59.274687)scale(0.1 -0.1)">
      <use xlink:href="#DejaVuSans-50"/>
      <use x="60.255859" xlink:href="#DejaVuSans-6f"/>
      <use x="121.4375" xlink:href="#DejaVuSans-6c"/>
      <use x="149.220703" xlink:href="#DejaVuSans-79"/>
      <use x="208.400391" xlink:href="#DejaVuSans-67"/>
      <use x="271.876953" xlink:href="#DejaVuSans-6f"/>
      <use x="333.058594" xlink:href="#DejaVuSans-6e"/>
     </g>
    </g>
   </g>
  </g>
 </g>
 <defs>
  <clipPath id="pdde2bca32b">
   <rect height="304.4" width="399.17" x="48.31" y="13.32"/>
  </clipPath>
 </defs>
</svg>
