<?xml version="1.0" encoding="utf-8" standalone="no"?>
<!DOCTYPE svg PUBLIC "-//W3C//DTD SVG 1.1//EN"
  "http://www.w3.org/Graphics/SVG/1.1/DTD/svg11.dtd">
<!-- Created with matplotlib (http://matplotlib.org/) -->
<svg height="230.4pt" version="1.1" viewBox="0 0 460.8 230.4" width="460.8pt" xmlns="http://www.w3.org/2000/svg" xmlns:xlink="http://www.w3.org/1999/xlink">
 <defs>
  <style type="text/css">
*{stroke-linecap:butt;stroke-linejoin:round;}
  </style>
 </defs>
 <g id="figure_1">
  <g id="patch_1">
   <path d="M 0 230.4 
L 460.8 230.4 
L 460.8 0 
L 0 0 
z
" style="fill:#ffffff;"/>
  </g>
  <g id="axes_1">
   <g id="patch_2">
    <path d="M 172.026 188.872 
L 447.48 188.872 
L 447.48 13.32 
L 172.026 13.32 
z
" style="fill:#ffffff;"/>
   </g>
   <g id="matplotlib.axis_1">
    <g id="xtick_1">
     <g id="line2d_1">
      <path clip-path="url(#p59598e89fd)" d="M 184.546636 188.872 
L 184.546636 13.32 
" style="fill:none;stroke:#b0b0b0;stroke-dasharray:1.85,0.8;stroke-dashoffset:0;stroke-width:0.5;"/>
     </g>
     <g id="line2d_2">
      <defs>
       <path d="M 0 0 
L 0 3.5 
" id="m5514b6f115" style="stroke:#000000;stroke-width:0.8;"/>
      </defs>
      <g>
       <use style="stroke:#000000;stroke-width:0.8;" x="184.546636" xlink:href="#m5514b6f115" y="188.872"/>
      </g>
     </g>
     <g id="text_1">
      <!-- 0 -->
      <defs>
       <path d="M 31.78125 66.40625 
Q 24.171875 66.40625 20.328125 58.90625 
Q 16.5 51.421875 16.5 36.375 
Q 16.5 21.390625 20.328125 13.890625 
Q 24.171875 6.390625 31.78125 6.390625 
Q 39.453125 6.390625 43.28125 13.890625 
Q 47.125 21.390625 47.125 36.375 
Q 47.125 51.421875 43.28125 58.90625 
Q 39.453125 66.40625 31.78125 66.40625 
z
M 31.78125 74.21875 
Q 44.046875 74.21875 50.515625 64.515625 
Q 56.984375 54.828125 56.984375 36.375 
Q 56.984375 17.96875 50.515625 8.265625 
Q 44.046875 -1.421875 31.78125 -1.421875 
Q 19.53125 -1.421875 13.0625 8.265625 
Q 6.59375 17.96875 6.59375 36.375 
Q 6.59375 54.828125 13.0625 64.515625 
Q 19.53125 74.21875 31.78125 74.21875 
z
" id="DejaVuSans-30"/>
      </defs>
      <g transform="translate(182.338849 201.145316)scale(0.0694 -0.0694)">
       <use xlink:href="#DejaVuSans-30"/>
      </g>
     </g>
    </g>
    <g id="xtick_2">
     <g id="line2d_3">
      <path clip-path="url(#p59598e89fd)" d="M 221.372037 188.872 
L 221.372037 13.32 
" style="fill:none;stroke:#b0b0b0;stroke-dasharray:1.85,0.8;stroke-dashoffset:0;stroke-width:0.5;"/>
     </g>
     <g id="line2d_4">
      <g>
       <use style="stroke:#000000;stroke-width:0.8;" x="221.372037" xlink:href="#m5514b6f115" y="188.872"/>
      </g>
     </g>
     <g id="text_2">
      <!-- 25 -->
      <defs>
       <path d="M 19.1875 8.296875 
L 53.609375 8.296875 
L 53.609375 0 
L 7.328125 0 
L 7.328125 8.296875 
Q 12.9375 14.109375 22.625 23.890625 
Q 32.328125 33.6875 34.8125 36.53125 
Q 39.546875 41.84375 41.421875 45.53125 
Q 43.3125 49.21875 43.3125 52.78125 
Q 43.3125 58.59375 39.234375 62.25 
Q 35.15625 65.921875 28.609375 65.921875 
Q 23.96875 65.921875 18.8125 64.3125 
Q 13.671875 62.703125 7.8125 59.421875 
L 7.8125 69.390625 
Q 13.765625 71.78125 18.9375 73 
Q 24.125 74.21875 28.421875 74.21875 
Q 39.75 74.21875 46.484375 68.546875 
Q 53.21875 62.890625 53.21875 53.421875 
Q 53.21875 48.921875 51.53125 44.890625 
Q 49.859375 40.875 45.40625 35.40625 
Q 44.1875 33.984375 37.640625 27.21875 
Q 31.109375 20.453125 19.1875 8.296875 
z
" id="DejaVuSans-32"/>
       <path d="M 10.796875 72.90625 
L 49.515625 72.90625 
L 49.515625 64.59375 
L 19.828125 64.59375 
L 19.828125 46.734375 
Q 21.96875 47.46875 24.109375 47.828125 
Q 26.265625 48.1875 28.421875 48.1875 
Q 40.625 48.1875 47.75 41.5 
Q 54.890625 34.8125 54.890625 23.390625 
Q 54.890625 11.625 47.5625 5.09375 
Q 40.234375 -1.421875 26.90625 -1.421875 
Q 22.3125 -1.421875 17.546875 -0.640625 
Q 12.796875 0.140625 7.71875 1.703125 
L 7.71875 11.625 
Q 12.109375 9.234375 16.796875 8.0625 
Q 21.484375 6.890625 26.703125 6.890625 
Q 35.15625 6.890625 40.078125 11.328125 
Q 45.015625 15.765625 45.015625 23.390625 
Q 45.015625 31 40.078125 35.4375 
Q 35.15625 39.890625 26.703125 39.890625 
Q 22.75 39.890625 18.8125 39.015625 
Q 14.890625 38.140625 10.796875 36.28125 
z
" id="DejaVuSans-35"/>
      </defs>
      <g transform="translate(216.956462 201.145316)scale(0.0694 -0.0694)">
       <use xlink:href="#DejaVuSans-32"/>
       <use x="63.623047" xlink:href="#DejaVuSans-35"/>
      </g>
     </g>
    </g>
    <g id="xtick_3">
     <g id="line2d_5">
      <path clip-path="url(#p59598e89fd)" d="M 258.197439 188.872 
L 258.197439 13.32 
" style="fill:none;stroke:#b0b0b0;stroke-dasharray:1.85,0.8;stroke-dashoffset:0;stroke-width:0.5;"/>
     </g>
     <g id="line2d_6">
      <g>
       <use style="stroke:#000000;stroke-width:0.8;" x="258.197439" xlink:href="#m5514b6f115" y="188.872"/>
      </g>
     </g>
     <g id="text_3">
      <!-- 50 -->
      <g transform="translate(253.781864 201.145316)scale(0.0694 -0.0694)">
       <use xlink:href="#DejaVuSans-35"/>
       <use x="63.623047" xlink:href="#DejaVuSans-30"/>
      </g>
     </g>
    </g>
    <g id="xtick_4">
     <g id="line2d_7">
      <path clip-path="url(#p59598e89fd)" d="M 295.02284 188.872 
L 295.02284 13.32 
" style="fill:none;stroke:#b0b0b0;stroke-dasharray:1.85,0.8;stroke-dashoffset:0;stroke-width:0.5;"/>
     </g>
     <g id="line2d_8">
      <g>
       <use style="stroke:#000000;stroke-width:0.8;" x="295.02284" xlink:href="#m5514b6f115" y="188.872"/>
      </g>
     </g>
     <g id="text_4">
      <!-- 75 -->
      <defs>
       <path d="M 8.203125 72.90625 
L 55.078125 72.90625 
L 55.078125 68.703125 
L 28.609375 0 
L 18.3125 0 
L 43.21875 64.59375 
L 8.203125 64.59375 
z
" id="DejaVuSans-37"/>
      </defs>
      <g transform="translate(290.607265 201.145316)scale(0.0694 -0.0694)">
       <use xlink:href="#DejaVuSans-37"/>
       <use x="63.623047" xlink:href="#DejaVuSans-35"/>
      </g>
     </g>
    </g>
    <g id="xtick_5">
     <g id="line2d_9">
      <path clip-path="url(#p59598e89fd)" d="M 331.848241 188.872 
L 331.848241 13.32 
" style="fill:none;stroke:#b0b0b0;stroke-dasharray:1.85,0.8;stroke-dashoffset:0;stroke-width:0.5;"/>
     </g>
     <g id="line2d_10">
      <g>
       <use style="stroke:#000000;stroke-width:0.8;" x="331.848241" xlink:href="#m5514b6f115" y="188.872"/>
      </g>
     </g>
     <g id="text_5">
      <!-- 100 -->
      <defs>
       <path d="M 12.40625 8.296875 
L 28.515625 8.296875 
L 28.515625 63.921875 
L 10.984375 60.40625 
L 10.984375 69.390625 
L 28.421875 72.90625 
L 38.28125 72.90625 
L 38.28125 8.296875 
L 54.390625 8.296875 
L 54.390625 0 
L 12.40625 0 
z
" id="DejaVuSans-31"/>
      </defs>
      <g transform="translate(325.224878 201.145316)scale(0.0694 -0.0694)">
       <use xlink:href="#DejaVuSans-31"/>
       <use x="63.623047" xlink:href="#DejaVuSans-30"/>
       <use x="127.246094" xlink:href="#DejaVuSans-30"/>
      </g>
     </g>
    </g>
    <g id="xtick_6">
     <g id="line2d_11">
      <path clip-path="url(#p59598e89fd)" d="M 368.673642 188.872 
L 368.673642 13.32 
" style="fill:none;stroke:#b0b0b0;stroke-dasharray:1.85,0.8;stroke-dashoffset:0;stroke-width:0.5;"/>
     </g>
     <g id="line2d_12">
      <g>
       <use style="stroke:#000000;stroke-width:0.8;" x="368.673642" xlink:href="#m5514b6f115" y="188.872"/>
      </g>
     </g>
     <g id="text_6">
      <!-- 125 -->
      <g transform="translate(362.050279 201.145316)scale(0.0694 -0.0694)">
       <use xlink:href="#DejaVuSans-31"/>
       <use x="63.623047" xlink:href="#DejaVuSans-32"/>
       <use x="127.246094" xlink:href="#DejaVuSans-35"/>
      </g>
     </g>
    </g>
    <g id="xtick_7">
     <g id="line2d_13">
      <path clip-path="url(#p59598e89fd)" d="M 405.499043 188.872 
L 405.499043 13.32 
" style="fill:none;stroke:#b0b0b0;stroke-dasharray:1.85,0.8;stroke-dashoffset:0;stroke-width:0.5;"/>
     </g>
     <g id="line2d_14">
      <g>
       <use style="stroke:#000000;stroke-width:0.8;" x="405.499043" xlink:href="#m5514b6f115" y="188.872"/>
      </g>
     </g>
     <g id="text_7">
      <!-- 150 -->
      <g transform="translate(398.87568 201.145316)scale(0.0694 -0.0694)">
       <use xlink:href="#DejaVuSans-31"/>
       <use x="63.623047" xlink:href="#DejaVuSans-35"/>
       <use x="127.246094" xlink:href="#DejaVuSans-30"/>
      </g>
     </g>
    </g>
    <g id="xtick_8">
     <g id="line2d_15">
      <path clip-path="url(#p59598e89fd)" d="M 442.324444 188.872 
L 442.324444 13.32 
" style="fill:none;stroke:#b0b0b0;stroke-dasharray:1.85,0.8;stroke-dashoffset:0;stroke-width:0.5;"/>
     </g>
     <g id="line2d_16">
      <g>
       <use style="stroke:#000000;stroke-width:0.8;" x="442.324444" xlink:href="#m5514b6f115" y="188.872"/>
      </g>
     </g>
     <g id="text_8">
      <!-- 175 -->
      <g transform="translate(435.701081 201.145316)scale(0.0694 -0.0694)">
       <use xlink:href="#DejaVuSans-31"/>
       <use x="63.623047" xlink:href="#DejaVuSans-37"/>
       <use x="127.246094" xlink:href="#DejaVuSans-35"/>
      </g>
     </g>
    </g>
   </g>
   <g id="matplotlib.axis_2">
    <g id="ytick_1">
     <g id="line2d_17">
      <path clip-path="url(#p59598e89fd)" d="M 172.026 167.382993 
L 447.48 167.382993 
" style="fill:none;stroke:#b0b0b0;stroke-dasharray:1.85,0.8;stroke-dashoffset:0;stroke-width:0.5;"/>
     </g>
     <g id="line2d_18">
      <defs>
       <path d="M 0 0 
L -3.5 0 
" id="m74eb10a86a" style="stroke:#000000;stroke-width:0.8;"/>
      </defs>
      <g>
       <use style="stroke:#000000;stroke-width:0.8;" x="172.026" xlink:href="#m74eb10a86a" y="167.382993"/>
      </g>
     </g>
     <g id="text_9">
      <!-- 0 -->
      <g transform="translate(160.610425 170.019651)scale(0.0694 -0.0694)">
       <use xlink:href="#DejaVuSans-30"/>
      </g>
     </g>
    </g>
    <g id="ytick_2">
     <g id="line2d_19">
      <path clip-path="url(#p59598e89fd)" d="M 172.026 137.922672 
L 447.48 137.922672 
" style="fill:none;stroke:#b0b0b0;stroke-dasharray:1.85,0.8;stroke-dashoffset:0;stroke-width:0.5;"/>
     </g>
     <g id="line2d_20">
      <g>
       <use style="stroke:#000000;stroke-width:0.8;" x="172.026" xlink:href="#m74eb10a86a" y="137.922672"/>
      </g>
     </g>
     <g id="text_10">
      <!-- 20 -->
      <g transform="translate(156.19485 140.55933)scale(0.0694 -0.0694)">
       <use xlink:href="#DejaVuSans-32"/>
       <use x="63.623047" xlink:href="#DejaVuSans-30"/>
      </g>
     </g>
    </g>
    <g id="ytick_3">
     <g id="line2d_21">
      <path clip-path="url(#p59598e89fd)" d="M 172.026 108.462352 
L 447.48 108.462352 
" style="fill:none;stroke:#b0b0b0;stroke-dasharray:1.85,0.8;stroke-dashoffset:0;stroke-width:0.5;"/>
     </g>
     <g id="line2d_22">
      <g>
       <use style="stroke:#000000;stroke-width:0.8;" x="172.026" xlink:href="#m74eb10a86a" y="108.462352"/>
      </g>
     </g>
     <g id="text_11">
      <!-- 40 -->
      <defs>
       <path d="M 37.796875 64.3125 
L 12.890625 25.390625 
L 37.796875 25.390625 
z
M 35.203125 72.90625 
L 47.609375 72.90625 
L 47.609375 25.390625 
L 58.015625 25.390625 
L 58.015625 17.1875 
L 47.609375 17.1875 
L 47.609375 0 
L 37.796875 0 
L 37.796875 17.1875 
L 4.890625 17.1875 
L 4.890625 26.703125 
z
" id="DejaVuSans-34"/>
      </defs>
      <g transform="translate(156.19485 111.099009)scale(0.0694 -0.0694)">
       <use xlink:href="#DejaVuSans-34"/>
       <use x="63.623047" xlink:href="#DejaVuSans-30"/>
      </g>
     </g>
    </g>
    <g id="ytick_4">
     <g id="line2d_23">
      <path clip-path="url(#p59598e89fd)" d="M 172.026 79.002031 
L 447.48 79.002031 
" style="fill:none;stroke:#b0b0b0;stroke-dasharray:1.85,0.8;stroke-dashoffset:0;stroke-width:0.5;"/>
     </g>
     <g id="line2d_24">
      <g>
       <use style="stroke:#000000;stroke-width:0.8;" x="172.026" xlink:href="#m74eb10a86a" y="79.002031"/>
      </g>
     </g>
     <g id="text_12">
      <!-- 60 -->
      <defs>
       <path d="M 33.015625 40.375 
Q 26.375 40.375 22.484375 35.828125 
Q 18.609375 31.296875 18.609375 23.390625 
Q 18.609375 15.53125 22.484375 10.953125 
Q 26.375 6.390625 33.015625 6.390625 
Q 39.65625 6.390625 43.53125 10.953125 
Q 47.40625 15.53125 47.40625 23.390625 
Q 47.40625 31.296875 43.53125 35.828125 
Q 39.65625 40.375 33.015625 40.375 
z
M 52.59375 71.296875 
L 52.59375 62.3125 
Q 48.875 64.0625 45.09375 64.984375 
Q 41.3125 65.921875 37.59375 65.921875 
Q 27.828125 65.921875 22.671875 59.328125 
Q 17.53125 52.734375 16.796875 39.40625 
Q 19.671875 43.65625 24.015625 45.921875 
Q 28.375 48.1875 33.59375 48.1875 
Q 44.578125 48.1875 50.953125 41.515625 
Q 57.328125 34.859375 57.328125 23.390625 
Q 57.328125 12.15625 50.6875 5.359375 
Q 44.046875 -1.421875 33.015625 -1.421875 
Q 20.359375 -1.421875 13.671875 8.265625 
Q 6.984375 17.96875 6.984375 36.375 
Q 6.984375 53.65625 15.1875 63.9375 
Q 23.390625 74.21875 37.203125 74.21875 
Q 40.921875 74.21875 44.703125 73.484375 
Q 48.484375 72.75 52.59375 71.296875 
z
" id="DejaVuSans-36"/>
      </defs>
      <g transform="translate(156.19485 81.638689)scale(0.0694 -0.0694)">
       <use xlink:href="#DejaVuSans-36"/>
       <use x="63.623047" xlink:href="#DejaVuSans-30"/>
      </g>
     </g>
    </g>
    <g id="ytick_5">
     <g id="line2d_25">
      <path clip-path="url(#p59598e89fd)" d="M 172.026 49.54171 
L 447.48 49.54171 
" style="fill:none;stroke:#b0b0b0;stroke-dasharray:1.85,0.8;stroke-dashoffset:0;stroke-width:0.5;"/>
     </g>
     <g id="line2d_26">
      <g>
       <use style="stroke:#000000;stroke-width:0.8;" x="172.026" xlink:href="#m74eb10a86a" y="49.54171"/>
      </g>
     </g>
     <g id="text_13">
      <!-- 80 -->
      <defs>
       <path d="M 31.78125 34.625 
Q 24.75 34.625 20.71875 30.859375 
Q 16.703125 27.09375 16.703125 20.515625 
Q 16.703125 13.921875 20.71875 10.15625 
Q 24.75 6.390625 31.78125 6.390625 
Q 38.8125 6.390625 42.859375 10.171875 
Q 46.921875 13.96875 46.921875 20.515625 
Q 46.921875 27.09375 42.890625 30.859375 
Q 38.875 34.625 31.78125 34.625 
z
M 21.921875 38.8125 
Q 15.578125 40.375 12.03125 44.71875 
Q 8.5 49.078125 8.5 55.328125 
Q 8.5 64.0625 14.71875 69.140625 
Q 20.953125 74.21875 31.78125 74.21875 
Q 42.671875 74.21875 48.875 69.140625 
Q 55.078125 64.0625 55.078125 55.328125 
Q 55.078125 49.078125 51.53125 44.71875 
Q 48 40.375 41.703125 38.8125 
Q 48.828125 37.15625 52.796875 32.3125 
Q 56.78125 27.484375 56.78125 20.515625 
Q 56.78125 9.90625 50.3125 4.234375 
Q 43.84375 -1.421875 31.78125 -1.421875 
Q 19.734375 -1.421875 13.25 4.234375 
Q 6.78125 9.90625 6.78125 20.515625 
Q 6.78125 27.484375 10.78125 32.3125 
Q 14.796875 37.15625 21.921875 38.8125 
z
M 18.3125 54.390625 
Q 18.3125 48.734375 21.84375 45.5625 
Q 25.390625 42.390625 31.78125 42.390625 
Q 38.140625 42.390625 41.71875 45.5625 
Q 45.3125 48.734375 45.3125 54.390625 
Q 45.3125 60.0625 41.71875 63.234375 
Q 38.140625 66.40625 31.78125 66.40625 
Q 25.390625 66.40625 21.84375 63.234375 
Q 18.3125 60.0625 18.3125 54.390625 
z
" id="DejaVuSans-38"/>
      </defs>
      <g transform="translate(156.19485 52.178368)scale(0.0694 -0.0694)">
       <use xlink:href="#DejaVuSans-38"/>
       <use x="63.623047" xlink:href="#DejaVuSans-30"/>
      </g>
     </g>
    </g>
    <g id="ytick_6">
     <g id="line2d_27">
      <path clip-path="url(#p59598e89fd)" d="M 172.026 20.081389 
L 447.48 20.081389 
" style="fill:none;stroke:#b0b0b0;stroke-dasharray:1.85,0.8;stroke-dashoffset:0;stroke-width:0.5;"/>
     </g>
     <g id="line2d_28">
      <g>
       <use style="stroke:#000000;stroke-width:0.8;" x="172.026" xlink:href="#m74eb10a86a" y="20.081389"/>
      </g>
     </g>
     <g id="text_14">
      <!-- 100 -->
      <g transform="translate(151.779275 22.718047)scale(0.0694 -0.0694)">
       <use xlink:href="#DejaVuSans-31"/>
       <use x="63.623047" xlink:href="#DejaVuSans-30"/>
       <use x="127.246094" xlink:href="#DejaVuSans-30"/>
      </g>
     </g>
    </g>
   </g>
   <g id="line2d_29">
    <path clip-path="url(#p59598e89fd)" d="M 252.066746 79.002031 
L 255.392462 79.002031 
L 255.392462 86.465059 
L 255.340121 86.359763 
L 254.474746 84.541576 
L 253.640564 82.708867 
L 252.837819 80.862172 
L 252.066746 79.002031 
L 252.066746 79.002031 
" style="fill:none;stroke:#ff0000;stroke-dasharray:0.25,0.4125;stroke-dashoffset:0;stroke-width:0.25;"/>
   </g>
   <g id="line2d_30">
    <path clip-path="url(#p59598e89fd)" d="M 255.392462 79.002031 
L 258.718179 79.002031 
L 258.718179 92.783381 
L 258.120838 91.721912 
L 257.163434 89.950456 
L 256.236438 88.162899 
L 255.392462 86.465059 
L 255.392462 79.002031 
" style="fill:none;stroke:#ff0000;stroke-dasharray:0.25,0.4125;stroke-dashoffset:0;stroke-width:0.25;"/>
   </g>
   <g id="line2d_31">
    <path clip-path="url(#p59598e89fd)" d="M 258.718179 79.002031 
L 262.043896 79.002031 
L 262.043896 98.312375 
L 261.172664 96.93453 
L 260.125746 95.214459 
L 259.108372 93.47675 
L 258.718179 92.783381 
L 258.718179 79.002031 
" style="fill:none;stroke:#ff0000;stroke-dasharray:0.25,0.4125;stroke-dashoffset:0;stroke-width:0.25;"/>
   </g>
   <g id="line2d_32">
    <path clip-path="url(#p59598e89fd)" d="M 262.043896 79.002031 
L 265.369613 79.002031 
L 265.369613 103.232295 
L 264.48758 101.983921 
L 263.3539 100.319755 
L 262.24882 98.636461 
L 262.043896 98.312375 
L 262.043896 79.002031 
" style="fill:none;stroke:#ff0000;stroke-dasharray:0.25,0.4125;stroke-dashoffset:0;stroke-width:0.25;"/>
   </g>
   <g id="line2d_33">
    <path clip-path="url(#p59598e89fd)" d="M 265.369613 79.002031 
L 268.695329 79.002031 
L 268.695329 107.668728 
L 268.056877 106.85682 
L 266.839412 105.252931 
L 265.649531 103.628473 
L 265.369613 103.232295 
L 265.369613 79.002031 
" style="fill:none;stroke:#ff0000;stroke-dasharray:0.25,0.4125;stroke-dashoffset:0;stroke-width:0.25;"/>
   </g>
   <g id="line2d_34">
    <path clip-path="url(#p59598e89fd)" d="M 268.695329 79.002031 
L 272.021046 79.002031 
L 272.021046 111.712117 
L 271.871177 111.540424 
L 270.573127 110.001025 
L 269.30157 108.439672 
L 268.695329 107.668728 
L 268.695329 79.002031 
" style="fill:none;stroke:#ff0000;stroke-dasharray:0.25,0.4125;stroke-dashoffset:0;stroke-width:0.25;"/>
   </g>
   <g id="line2d_35">
    <path clip-path="url(#p59598e89fd)" d="M 272.021046 79.002031 
L 272.927599 79.002031 
L 275.346763 80.211613 
L 275.346763 115.408833 
L 274.545233 114.551563 
L 273.195341 113.057417 
L 272.021046 111.712117 
L 272.021046 79.002031 
" style="fill:none;stroke:#ff0000;stroke-dasharray:0.25,0.4125;stroke-dashoffset:0;stroke-width:0.25;"/>
   </g>
   <g id="line2d_36">
    <path clip-path="url(#p59598e89fd)" d="M 275.346763 80.211613 
L 278.672479 81.874471 
L 278.672479 118.819857 
L 277.320616 117.469575 
L 275.920459 116.022426 
L 275.346763 115.408833 
L 275.346763 80.211613 
" style="fill:none;stroke:#ff0000;stroke-dasharray:0.25,0.4125;stroke-dashoffset:0;stroke-width:0.25;"/>
   </g>
   <g id="line2d_37">
    <path clip-path="url(#p59598e89fd)" d="M 278.672479 81.874471 
L 281.998196 83.537329 
L 281.998196 121.963473 
L 281.666554 121.664554 
L 280.194083 120.291051 
L 278.745296 118.892589 
L 278.672479 118.819857 
L 278.672479 81.874471 
" style="fill:none;stroke:#ff0000;stroke-dasharray:0.25,0.4125;stroke-dashoffset:0;stroke-width:0.25;"/>
   </g>
   <g id="line2d_38">
    <path clip-path="url(#p59598e89fd)" d="M 281.998196 83.537329 
L 285.323913 85.200188 
L 285.323913 124.876065 
L 284.680821 124.335084 
L 283.162279 123.012696 
L 281.998196 121.963473 
L 281.998196 83.537329 
" style="fill:none;stroke:#ff0000;stroke-dasharray:0.25,0.4125;stroke-dashoffset:0;stroke-width:0.25;"/>
   </g>
   <g id="line2d_39">
    <path clip-path="url(#p59598e89fd)" d="M 285.323913 85.200188 
L 288.649629 86.863046 
L 288.649629 127.579666 
L 287.784577 126.901061 
L 286.221737 125.631332 
L 285.323913 124.876065 
L 285.323913 85.200188 
" style="fill:none;stroke:#ff0000;stroke-dasharray:0.25,0.4125;stroke-dashoffset:0;stroke-width:0.25;"/>
   </g>
   <g id="line2d_40">
    <path clip-path="url(#p59598e89fd)" d="M 288.649629 86.863046 
L 291.975346 88.525904 
L 291.975346 130.091008 
L 290.974198 129.359487 
L 289.368885 128.1439 
L 288.649629 127.579666 
L 288.649629 86.863046 
" style="fill:none;stroke:#ff0000;stroke-dasharray:0.25,0.4125;stroke-dashoffset:0;stroke-width:0.25;"/>
   </g>
   <g id="line2d_41">
    <path clip-path="url(#p59598e89fd)" d="M 291.975346 88.525904 
L 295.301063 90.188763 
L 295.301063 132.424454 
L 294.245958 131.707491 
L 292.600047 130.547466 
L 291.975346 130.091008 
L 291.975346 88.525904 
" style="fill:none;stroke:#ff0000;stroke-dasharray:0.25,0.4125;stroke-dashoffset:0;stroke-width:0.25;"/>
   </g>
   <g id="line2d_42">
    <path clip-path="url(#p59598e89fd)" d="M 295.301063 90.188763 
L 298.62678 91.851621 
L 298.62678 134.592398 
L 297.596037 133.942332 
L 295.91145 132.839223 
L 295.301063 132.424454 
L 295.301063 90.188763 
" style="fill:none;stroke:#ff0000;stroke-dasharray:0.25,0.4125;stroke-dashoffset:0;stroke-width:0.25;"/>
   </g>
   <g id="line2d_43">
    <path clip-path="url(#p59598e89fd)" d="M 298.62678 91.851621 
L 301.952496 93.514479 
L 301.952496 136.605578 
L 301.020521 136.061399 
L 299.299226 135.016495 
L 298.62678 134.592398 
L 298.62678 91.851621 
" style="fill:none;stroke:#ff0000;stroke-dasharray:0.25,0.4125;stroke-dashoffset:0;stroke-width:0.25;"/>
   </g>
   <g id="line2d_44">
    <path clip-path="url(#p59598e89fd)" d="M 301.952496 93.514479 
L 305.278213 95.177338 
L 305.278213 138.47333 
L 304.515412 138.062218 
L 302.759419 137.076739 
L 301.952496 136.605578 
L 301.952496 93.514479 
" style="fill:none;stroke:#ff0000;stroke-dasharray:0.25,0.4125;stroke-dashoffset:0;stroke-width:0.25;"/>
   </g>
   <g id="line2d_45">
    <path clip-path="url(#p59598e89fd)" d="M 305.278213 95.177338 
L 308.60393 96.840196 
L 308.60393 140.203798 
L 308.076628 139.942452 
L 306.287988 139.017549 
L 305.278213 138.47333 
L 305.278213 95.177338 
" style="fill:none;stroke:#ff0000;stroke-dasharray:0.25,0.4125;stroke-dashoffset:0;stroke-width:0.25;"/>
   </g>
   <g id="line2d_46">
    <path clip-path="url(#p59598e89fd)" d="M 308.60393 96.840196 
L 311.929646 98.503054 
L 311.929646 141.804102 
L 311.700011 141.699904 
L 309.880812 140.836657 
L 308.60393 140.203798 
L 308.60393 96.840196 
" style="fill:none;stroke:#ff0000;stroke-dasharray:0.25,0.4125;stroke-dashoffset:0;stroke-width:0.25;"/>
   </g>
   <g id="line2d_47">
    <path clip-path="url(#p59598e89fd)" d="M 311.929646 98.503054 
L 315.255363 100.165913 
L 315.255363 143.277943 
L 313.533694 142.531941 
L 311.929646 141.804102 
L 311.929646 98.503054 
" style="fill:none;stroke:#ff0000;stroke-dasharray:0.25,0.4125;stroke-dashoffset:0;stroke-width:0.25;"/>
   </g>
   <g id="line2d_48">
    <path clip-path="url(#p59598e89fd)" d="M 315.255363 100.165913 
L 318.58108 101.828771 
L 318.58108 144.627916 
L 317.24237 144.101419 
L 315.381327 143.332524 
L 315.255363 143.277943 
L 315.255363 100.165913 
" style="fill:none;stroke:#ff0000;stroke-dasharray:0.25,0.4125;stroke-dashoffset:0;stroke-width:0.25;"/>
   </g>
   <g id="line2d_49">
    <path clip-path="url(#p59598e89fd)" d="M 318.58108 101.828771 
L 321.906796 103.491629 
L 321.906796 145.86368 
L 321.002508 145.54326 
L 319.116279 144.838403 
L 318.58108 144.627916 
L 318.58108 101.828771 
" style="fill:none;stroke:#ff0000;stroke-dasharray:0.25,0.4125;stroke-dashoffset:0;stroke-width:0.25;"/>
   </g>
   <g id="line2d_50">
    <path clip-path="url(#p59598e89fd)" d="M 321.906796 103.491629 
L 325.232513 105.154488 
L 325.232513 146.989515 
L 324.809716 146.855779 
L 322.900505 146.215784 
L 321.906796 145.86368 
L 321.906796 103.491629 
" style="fill:none;stroke:#ff0000;stroke-dasharray:0.25,0.4125;stroke-dashoffset:0;stroke-width:0.25;"/>
   </g>
   <g id="line2d_51">
    <path clip-path="url(#p59598e89fd)" d="M 325.232513 105.154488 
L 328.55823 106.817346 
L 328.55823 148.007289 
L 326.729584 147.463057 
L 325.232513 146.989515 
L 325.232513 105.154488 
" style="fill:none;stroke:#ff0000;stroke-dasharray:0.25,0.4125;stroke-dashoffset:0;stroke-width:0.25;"/>
   </g>
   <g id="line2d_52">
    <path clip-path="url(#p59598e89fd)" d="M 328.55823 106.817346 
L 331.883947 108.480205 
L 331.883947 148.913833 
L 330.599046 148.578767 
L 328.659549 148.037442 
L 328.55823 148.007289 
L 328.55823 106.817346 
" style="fill:none;stroke:#ff0000;stroke-dasharray:0.25,0.4125;stroke-dashoffset:0;stroke-width:0.25;"/>
   </g>
   <g id="line2d_53">
    <path clip-path="url(#p59598e89fd)" d="M 331.883947 108.480205 
L 335.209663 110.143063 
L 335.209663 149.720004 
L 334.50437 149.561609 
L 332.547509 149.086872 
L 331.883947 148.913833 
L 331.883947 108.480205 
" style="fill:none;stroke:#ff0000;stroke-dasharray:0.25,0.4125;stroke-dashoffset:0;stroke-width:0.25;"/>
   </g>
   <g id="line2d_54">
    <path clip-path="url(#p59598e89fd)" d="M 335.209663 110.143063 
L 338.53538 111.805921 
L 338.53538 150.42827 
L 338.440997 150.410437 
L 336.469057 150.00284 
L 335.209663 149.720004 
L 335.209663 110.143063 
" style="fill:none;stroke:#ff0000;stroke-dasharray:0.25,0.4125;stroke-dashoffset:0;stroke-width:0.25;"/>
   </g>
   <g id="line2d_55">
    <path clip-path="url(#p59598e89fd)" d="M 338.53538 111.805921 
L 341.861097 113.46878 
L 341.861097 151.031204 
L 340.419613 150.784279 
L 338.53538 150.42827 
L 338.53538 111.805921 
" style="fill:none;stroke:#ff0000;stroke-dasharray:0.25,0.4125;stroke-dashoffset:0;stroke-width:0.25;"/>
   </g>
   <g id="line2d_56">
    <path clip-path="url(#p59598e89fd)" d="M 341.861097 113.46878 
L 345.186813 115.131638 
L 345.186813 151.538268 
L 344.394563 151.430275 
L 342.404329 151.124258 
L 341.861097 151.031204 
L 341.861097 113.46878 
" style="fill:none;stroke:#ff0000;stroke-dasharray:0.25,0.4125;stroke-dashoffset:0;stroke-width:0.25;"/>
   </g>
   <g id="line2d_57">
    <path clip-path="url(#p59598e89fd)" d="M 345.186813 115.131638 
L 348.51253 116.794496 
L 348.51253 151.952604 
L 348.389266 151.940074 
L 346.389737 151.70224 
L 345.186813 151.538268 
L 345.186813 115.131638 
" style="fill:none;stroke:#ff0000;stroke-dasharray:0.25,0.4125;stroke-dashoffset:0;stroke-width:0.25;"/>
   </g>
   <g id="line2d_58">
    <path clip-path="url(#p59598e89fd)" d="M 348.51253 116.794496 
L 351.838247 118.457355 
L 351.838247 152.265742 
L 350.392566 152.143708 
L 348.51253 151.952604 
L 348.51253 116.794496 
" style="fill:none;stroke:#ff0000;stroke-dasharray:0.25,0.4125;stroke-dashoffset:0;stroke-width:0.25;"/>
   </g>
   <g id="line2d_59">
    <path clip-path="url(#p59598e89fd)" d="M 351.838247 118.457355 
L 355.163963 120.120213 
L 355.163963 152.485996 
L 354.408143 152.448145 
L 352.399054 152.313081 
L 351.838247 152.265742 
L 351.838247 118.457355 
" style="fill:none;stroke:#ff0000;stroke-dasharray:0.25,0.4125;stroke-dashoffset:0;stroke-width:0.25;"/>
   </g>
   <g id="line2d_60">
    <path clip-path="url(#p59598e89fd)" d="M 355.163963 120.120213 
L 358.48968 121.783071 
L 358.48968 152.616115 
L 358.431778 152.615196 
L 356.419247 152.54886 
L 355.163963 152.485996 
L 355.163963 120.120213 
" style="fill:none;stroke:#ff0000;stroke-dasharray:0.25,0.4125;stroke-dashoffset:0;stroke-width:0.25;"/>
   </g>
   <g id="line2d_61">
    <path clip-path="url(#p59598e89fd)" d="M 358.48968 121.783071 
L 361.815397 123.44593 
L 361.815397 152.645455 
L 360.445148 152.647135 
L 358.48968 152.616115 
L 358.48968 121.783071 
" style="fill:none;stroke:#ff0000;stroke-dasharray:0.25,0.4125;stroke-dashoffset:0;stroke-width:0.25;"/>
   </g>
   <g id="line2d_62">
    <path clip-path="url(#p59598e89fd)" d="M 361.815397 123.44593 
L 365.141114 125.108788 
L 365.141114 152.584096 
L 364.472056 152.607792 
L 362.45877 152.644666 
L 361.815397 152.645455 
L 361.815397 123.44593 
" style="fill:none;stroke:#ff0000;stroke-dasharray:0.25,0.4125;stroke-dashoffset:0;stroke-width:0.25;"/>
   </g>
   <g id="line2d_63">
    <path clip-path="url(#p59598e89fd)" d="M 365.141114 125.108788 
L 368.46683 126.771646 
L 368.46683 152.43237 
L 366.484419 152.536521 
L 365.141114 152.584096 
L 365.141114 125.108788 
" style="fill:none;stroke:#ff0000;stroke-dasharray:0.25,0.4125;stroke-dashoffset:0;stroke-width:0.25;"/>
   </g>
   <g id="line2d_64">
    <path clip-path="url(#p59598e89fd)" d="M 368.46683 126.771646 
L 371.792547 128.434505 
L 371.792547 152.178937 
L 370.504021 152.290887 
L 368.495269 152.430876 
L 368.46683 152.43237 
L 368.46683 126.771646 
" style="fill:none;stroke:#ff0000;stroke-dasharray:0.25,0.4125;stroke-dashoffset:0;stroke-width:0.25;"/>
   </g>
   <g id="line2d_65">
    <path clip-path="url(#p59598e89fd)" d="M 371.792547 128.434505 
L 375.118264 130.097363 
L 375.118264 151.834539 
L 374.512883 151.908051 
L 372.510088 152.116595 
L 371.792547 152.178937 
L 371.792547 128.434505 
" style="fill:none;stroke:#ff0000;stroke-dasharray:0.25,0.4125;stroke-dashoffset:0;stroke-width:0.25;"/>
   </g>
   <g id="line2d_66">
    <path clip-path="url(#p59598e89fd)" d="M 375.118264 130.097363 
L 378.44398 131.760221 
L 378.44398 151.397114 
L 376.511823 151.665316 
L 375.118264 151.834539 
L 375.118264 130.097363 
" style="fill:none;stroke:#ff0000;stroke-dasharray:0.25,0.4125;stroke-dashoffset:0;stroke-width:0.25;"/>
   </g>
   <g id="line2d_67">
    <path clip-path="url(#p59598e89fd)" d="M 378.44398 131.760221 
L 381.769697 133.42308 
L 381.769697 150.856132 
L 380.495802 151.077565 
L 378.506323 151.38846 
L 378.44398 151.397114 
L 378.44398 131.760221 
" style="fill:none;stroke:#ff0000;stroke-dasharray:0.25,0.4125;stroke-dashoffset:0;stroke-width:0.25;"/>
   </g>
   <g id="line2d_68">
    <path clip-path="url(#p59598e89fd)" d="M 381.769697 133.42308 
L 385.095414 135.085938 
L 385.095414 150.220514 
L 384.457372 150.354028 
L 382.479678 150.732721 
L 381.769697 150.856132 
L 381.769697 133.42308 
" style="fill:none;stroke:#ff0000;stroke-dasharray:0.25,0.4125;stroke-dashoffset:0;stroke-width:0.25;"/>
   </g>
   <g id="line2d_69">
    <path clip-path="url(#p59598e89fd)" d="M 385.095414 135.085938 
L 388.42113 136.748796 
L 388.42113 149.488386 
L 388.391906 149.495552 
L 386.428306 149.941599 
L 385.095414 150.220514 
L 385.095414 135.085938 
" style="fill:none;stroke:#ff0000;stroke-dasharray:0.25,0.4125;stroke-dashoffset:0;stroke-width:0.25;"/>
   </g>
   <g id="line2d_70">
    <path clip-path="url(#p59598e89fd)" d="M 388.42113 136.748796 
L 390.768882 137.922672 
L 391.746847 137.922672 
L 391.746847 148.647467 
L 390.347597 149.016018 
L 388.42113 149.488386 
L 388.42113 136.748796 
" style="fill:none;stroke:#ff0000;stroke-dasharray:0.25,0.4125;stroke-dashoffset:0;stroke-width:0.25;"/>
   </g>
   <g id="line2d_71">
    <path clip-path="url(#p59598e89fd)" d="M 391.746847 137.922672 
L 395.072564 137.922672 
L 395.072564 147.704943 
L 394.232973 147.95706 
L 392.294809 148.503138 
L 391.746847 148.647467 
L 391.746847 137.922672 
" style="fill:none;stroke:#ff0000;stroke-dasharray:0.25,0.4125;stroke-dashoffset:0;stroke-width:0.25;"/>
   </g>
   <g id="line2d_72">
    <path clip-path="url(#p59598e89fd)" d="M 395.072564 137.922672 
L 398.398281 137.922672 
L 398.398281 146.658366 
L 398.079897 146.765961 
L 396.161523 147.377945 
L 395.072564 147.704943 
L 395.072564 137.922672 
" style="fill:none;stroke:#ff0000;stroke-dasharray:0.25,0.4125;stroke-dashoffset:0;stroke-width:0.25;"/>
   </g>
   <g id="line2d_73">
    <path clip-path="url(#p59598e89fd)" d="M 398.398281 137.922672 
L 401.723997 137.922672 
L 401.723997 145.501205 
L 399.987533 146.121288 
L 398.398281 146.658366 
L 398.398281 137.922672 
" style="fill:none;stroke:#ff0000;stroke-dasharray:0.25,0.4125;stroke-dashoffset:0;stroke-width:0.25;"/>
   </g>
   <g id="line2d_74">
    <path clip-path="url(#p59598e89fd)" d="M 401.723997 137.922672 
L 405.049714 137.922672 
L 405.049714 144.227067 
L 403.76837 144.734634 
L 401.883876 145.444113 
L 401.723997 145.501205 
L 401.723997 137.922672 
" style="fill:none;stroke:#ff0000;stroke-dasharray:0.25,0.4125;stroke-dashoffset:0;stroke-width:0.25;"/>
   </g>
   <g id="line2d_75">
    <path clip-path="url(#p59598e89fd)" d="M 405.049714 137.922672 
L 408.375431 137.922672 
L 408.375431 142.837558 
L 407.499619 143.219602 
L 405.640467 143.993058 
L 405.049714 144.227067 
L 405.049714 137.922672 
" style="fill:none;stroke:#ff0000;stroke-dasharray:0.25,0.4125;stroke-dashoffset:0;stroke-width:0.25;"/>
   </g>
   <g id="line2d_76">
    <path clip-path="url(#p59598e89fd)" d="M 408.375431 137.922672 
L 411.701147 137.922672 
L 411.701147 141.32763 
L 411.176922 141.577962 
L 409.345284 142.414492 
L 408.375431 142.837558 
L 408.375431 137.922672 
" style="fill:none;stroke:#ff0000;stroke-dasharray:0.25,0.4125;stroke-dashoffset:0;stroke-width:0.25;"/>
   </g>
   <g id="line2d_77">
    <path clip-path="url(#p59598e89fd)" d="M 411.701147 137.922672 
L 415.026864 137.922672 
L 415.026864 139.691526 
L 414.795985 139.811631 
L 412.994 140.710258 
L 411.701147 141.32763 
L 411.701147 137.922672 
" style="fill:none;stroke:#ff0000;stroke-dasharray:0.25,0.4125;stroke-dashoffset:0;stroke-width:0.25;"/>
   </g>
   <g id="line2d_78">
    <path clip-path="url(#p59598e89fd)" d="M 415.026864 137.922672 
L 418.352581 137.922672 
L 418.352581 137.922672 
L 416.582353 138.882346 
L 415.026864 139.691526 
L 415.026864 137.922672 
" style="fill:none;stroke:#ff0000;stroke-dasharray:0.25,0.4125;stroke-dashoffset:0;stroke-width:0.25;"/>
   </g>
   <g id="line2d_79">
    <path clip-path="url(#p59598e89fd)" d="M 252.066746 79.002031 
L 252.837819 80.862172 
L 253.640564 82.708867 
L 254.474746 84.541576 
L 255.340121 86.359763 
L 256.236438 88.162899 
L 257.163434 89.950456 
L 258.120838 91.721912 
L 259.108372 93.47675 
L 260.125746 95.214459 
L 261.172664 96.93453 
L 262.24882 98.636461 
L 263.3539 100.319755 
L 264.48758 101.983921 
L 265.649531 103.628473 
L 266.839412 105.252931 
L 268.056877 106.85682 
L 269.30157 108.439672 
L 270.573127 110.001025 
L 271.871177 111.540424 
L 273.195341 113.057417 
L 274.545233 114.551563 
L 275.920459 116.022426 
L 277.320616 117.469575 
L 278.745296 118.892589 
L 280.194083 120.291051 
L 281.666554 121.664554 
L 283.162279 123.012696 
L 284.680821 124.335084 
L 286.221737 125.631332 
L 287.784577 126.901061 
L 289.368885 128.1439 
L 290.974198 129.359487 
L 292.600047 130.547466 
L 294.245958 131.707491 
L 295.91145 132.839223 
L 297.596037 133.942332 
L 299.299226 135.016495 
L 301.020521 136.061399 
L 302.759419 137.076739 
L 304.515412 138.062218 
L 306.287988 139.017549 
L 308.076628 139.942452 
L 309.880812 140.836657 
L 311.700011 141.699904 
L 313.533694 142.531941 
L 315.381327 143.332524 
L 317.24237 144.101419 
L 319.116279 144.838403 
L 321.002508 145.54326 
L 322.900505 146.215784 
L 324.809716 146.855779 
L 326.729584 147.463057 
L 328.659549 148.037442 
L 330.599046 148.578767 
L 332.547509 149.086872 
L 334.50437 149.561609 
L 336.469057 150.00284 
L 338.440997 150.410437 
L 340.419613 150.784279 
L 342.404329 151.124258 
L 344.394563 151.430275 
L 346.389737 151.70224 
L 348.389266 151.940074 
L 350.392566 152.143708 
L 352.399054 152.313081 
L 354.408143 152.448145 
L 356.419247 152.54886 
L 358.431778 152.615196 
L 360.445148 152.647135 
L 362.45877 152.644666 
L 364.472056 152.607792 
L 366.484419 152.536521 
L 368.495269 152.430876 
L 370.504021 152.290887 
L 372.510088 152.116595 
L 374.512883 151.908051 
L 376.511823 151.665316 
L 378.506323 151.38846 
L 380.495802 151.077565 
L 382.479678 150.732721 
L 384.457372 150.354028 
L 386.428306 149.941599 
L 388.391906 149.495552 
L 390.347597 149.016018 
L 392.294809 148.503138 
L 394.232973 147.95706 
L 396.161523 147.377945 
L 398.079897 146.765961 
L 399.987533 146.121288 
L 401.883876 145.444113 
L 403.76837 144.734634 
L 405.640467 143.993058 
L 407.499619 143.219602 
L 409.345284 142.414492 
L 411.176922 141.577962 
L 412.994 140.710258 
L 414.795985 139.811631 
L 416.582353 138.882346 
L 418.352581 137.922672 
" style="fill:none;stroke:#ff0000;stroke-linecap:square;stroke-width:1.5;"/>
   </g>
   <g id="line2d_80">
    <defs>
     <path d="M 0 1.5 
C 0.397805 1.5 0.77937 1.341951 1.06066 1.06066 
C 1.341951 0.77937 1.5 0.397805 1.5 0 
C 1.5 -0.397805 1.341951 -0.77937 1.06066 -1.06066 
C 0.77937 -1.341951 0.397805 -1.5 0 -1.5 
C -0.397805 -1.5 -0.77937 -1.341951 -1.06066 -1.06066 
C -1.341951 -0.77937 -1.5 -0.397805 -1.5 0 
C -1.5 0.397805 -1.341951 0.77937 -1.06066 1.06066 
C -0.77937 1.341951 -0.397805 1.5 0 1.5 
z
" id="m955bead8f1" style="stroke:#ff0000;"/>
    </defs>
    <g clip-path="url(#p59598e89fd)">
     <use style="fill:#ff0000;stroke:#ff0000;" x="361.307511" xlink:href="#m955bead8f1" y="34.809007"/>
    </g>
   </g>
   <g id="line2d_81">
    <path clip-path="url(#p59598e89fd)" d="M 184.546636 167.382993 
L 184.546636 79.002031 
L 272.927599 79.002031 
L 390.768882 137.922672 
L 434.959364 137.922672 
L 434.959364 167.382993 
L 184.546636 167.382993 
" style="fill:none;stroke:#000000;stroke-linecap:square;stroke-width:1.5;"/>
   </g>
   <g id="patch_3">
    <path d="M 172.026 188.872 
L 172.026 13.32 
" style="fill:none;stroke:#000000;stroke-linecap:square;stroke-linejoin:miter;stroke-width:0.8;"/>
   </g>
   <g id="patch_4">
    <path d="M 447.48 188.872 
L 447.48 13.32 
" style="fill:none;stroke:#000000;stroke-linecap:square;stroke-linejoin:miter;stroke-width:0.8;"/>
   </g>
   <g id="patch_5">
    <path d="M 172.026 188.872 
L 447.48 188.872 
" style="fill:none;stroke:#000000;stroke-linecap:square;stroke-linejoin:miter;stroke-width:0.8;"/>
   </g>
   <g id="patch_6">
    <path d="M 172.026 13.32 
L 447.48 13.32 
" style="fill:none;stroke:#000000;stroke-linecap:square;stroke-linejoin:miter;stroke-width:0.8;"/>
   </g>
  </g>
  <g id="axes_2">
   <g id="patch_7">
    <path d="M 45.308 188.872 
L 137.126 188.872 
L 137.126 13.32 
L 45.308 13.32 
z
" style="fill:#ffffff;"/>
   </g>
   <g id="matplotlib.axis_3">
    <g id="xtick_9">
     <g id="line2d_82">
      <path clip-path="url(#pb53de2ce9c)" d="M 49.481545 188.872 
L 49.481545 13.32 
" style="fill:none;stroke:#b0b0b0;stroke-dasharray:1.85,0.8;stroke-dashoffset:0;stroke-width:0.5;"/>
     </g>
     <g id="line2d_83">
      <g>
       <use style="stroke:#000000;stroke-width:0.8;" x="49.481545" xlink:href="#m5514b6f115" y="188.872"/>
      </g>
     </g>
     <g id="text_15">
      <!-- 0.0 -->
      <defs>
       <path d="M 10.6875 12.40625 
L 21 12.40625 
L 21 0 
L 10.6875 0 
z
" id="DejaVuSans-2e"/>
      </defs>
      <g transform="translate(43.963161 201.145316)scale(0.0694 -0.0694)">
       <use xlink:href="#DejaVuSans-30"/>
       <use x="63.623047" xlink:href="#DejaVuSans-2e"/>
       <use x="95.410156" xlink:href="#DejaVuSans-30"/>
      </g>
     </g>
    </g>
    <g id="xtick_10">
     <g id="line2d_84">
      <path clip-path="url(#pb53de2ce9c)" d="M 77.305182 188.872 
L 77.305182 13.32 
" style="fill:none;stroke:#b0b0b0;stroke-dasharray:1.85,0.8;stroke-dashoffset:0;stroke-width:0.5;"/>
     </g>
     <g id="line2d_85">
      <g>
       <use style="stroke:#000000;stroke-width:0.8;" x="77.305182" xlink:href="#m5514b6f115" y="188.872"/>
      </g>
     </g>
     <g id="text_16">
      <!-- 0.2 -->
      <g transform="translate(71.786797 201.145316)scale(0.0694 -0.0694)">
       <use xlink:href="#DejaVuSans-30"/>
       <use x="63.623047" xlink:href="#DejaVuSans-2e"/>
       <use x="95.410156" xlink:href="#DejaVuSans-32"/>
      </g>
     </g>
    </g>
    <g id="xtick_11">
     <g id="line2d_86">
      <path clip-path="url(#pb53de2ce9c)" d="M 105.128818 188.872 
L 105.128818 13.32 
" style="fill:none;stroke:#b0b0b0;stroke-dasharray:1.85,0.8;stroke-dashoffset:0;stroke-width:0.5;"/>
     </g>
     <g id="line2d_87">
      <g>
       <use style="stroke:#000000;stroke-width:0.8;" x="105.128818" xlink:href="#m5514b6f115" y="188.872"/>
      </g>
     </g>
     <g id="text_17">
      <!-- 0.4 -->
      <g transform="translate(99.610434 201.145316)scale(0.0694 -0.0694)">
       <use xlink:href="#DejaVuSans-30"/>
       <use x="63.623047" xlink:href="#DejaVuSans-2e"/>
       <use x="95.410156" xlink:href="#DejaVuSans-34"/>
      </g>
     </g>
    </g>
    <g id="xtick_12">
     <g id="line2d_88">
      <path clip-path="url(#pb53de2ce9c)" d="M 132.952455 188.872 
L 132.952455 13.32 
" style="fill:none;stroke:#b0b0b0;stroke-dasharray:1.85,0.8;stroke-dashoffset:0;stroke-width:0.5;"/>
     </g>
     <g id="line2d_89">
      <g>
       <use style="stroke:#000000;stroke-width:0.8;" x="132.952455" xlink:href="#m5514b6f115" y="188.872"/>
      </g>
     </g>
     <g id="text_18">
      <!-- 0.6 -->
      <g transform="translate(127.43407 201.145316)scale(0.0694 -0.0694)">
       <use xlink:href="#DejaVuSans-30"/>
       <use x="63.623047" xlink:href="#DejaVuSans-2e"/>
       <use x="95.410156" xlink:href="#DejaVuSans-36"/>
      </g>
     </g>
    </g>
    <g id="text_19">
     <!-- $\lambda_a$ -->
     <defs>
      <path d="M 36.71875 67.4375 
L 48.828125 0 
L 39.3125 0 
L 31.84375 40.4375 
L 5.125 0 
L -4.390625 0 
L 29.734375 52.4375 
L 28.03125 62.109375 
Q 26.953125 68.265625 21.734375 68.265625 
L 17.046875 68.265625 
L 18.5 75.984375 
L 24.21875 75.875 
Q 35.203125 75.734375 36.71875 67.4375 
z
" id="DejaVuSans-Oblique-3bb"/>
      <path d="M 53.71875 31.203125 
L 47.609375 0 
L 38.625 0 
L 40.28125 8.296875 
Q 36.328125 3.421875 31.265625 1 
Q 26.21875 -1.421875 20.015625 -1.421875 
Q 13.03125 -1.421875 8.5625 2.84375 
Q 4.109375 7.125 4.109375 13.8125 
Q 4.109375 23.390625 11.75 28.953125 
Q 19.390625 34.515625 32.8125 34.515625 
L 45.3125 34.515625 
L 45.796875 36.921875 
Q 45.90625 37.3125 45.953125 37.765625 
Q 46 38.234375 46 39.203125 
Q 46 43.5625 42.453125 45.96875 
Q 38.921875 48.390625 32.515625 48.390625 
Q 28.125 48.390625 23.5 47.265625 
Q 18.890625 46.140625 14.015625 43.890625 
L 15.578125 52.203125 
Q 20.65625 54.109375 25.515625 55.046875 
Q 30.375 56 34.90625 56 
Q 44.578125 56 49.625 51.796875 
Q 54.6875 47.609375 54.6875 39.59375 
Q 54.6875 37.984375 54.4375 35.8125 
Q 54.203125 33.640625 53.71875 31.203125 
z
M 44 27.484375 
L 35.015625 27.484375 
Q 23.96875 27.484375 18.671875 24.53125 
Q 13.375 21.578125 13.375 15.375 
Q 13.375 11.078125 16.078125 8.640625 
Q 18.796875 6.203125 23.578125 6.203125 
Q 30.90625 6.203125 36.375 11.453125 
Q 41.84375 16.703125 43.609375 25.484375 
z
" id="DejaVuSans-Oblique-61"/>
     </defs>
     <g transform="translate(85.967 214.187056)scale(0.1 -0.1)">
      <use transform="translate(0 0.015625)" xlink:href="#DejaVuSans-Oblique-3bb"/>
      <use transform="translate(59.179688 -16.390625)scale(0.7)" xlink:href="#DejaVuSans-Oblique-61"/>
     </g>
    </g>
   </g>
   <g id="matplotlib.axis_4">
    <g id="ytick_7">
     <g id="line2d_90">
      <path clip-path="url(#pb53de2ce9c)" d="M 45.308 170.646132 
L 137.126 170.646132 
" style="fill:none;stroke:#b0b0b0;stroke-dasharray:1.85,0.8;stroke-dashoffset:0;stroke-width:0.5;"/>
     </g>
     <g id="line2d_91">
      <g>
       <use style="stroke:#000000;stroke-width:0.8;" x="45.308" xlink:href="#m74eb10a86a" y="170.646132"/>
      </g>
     </g>
     <g id="text_20">
      <!-- 1.9 -->
      <defs>
       <path d="M 10.984375 1.515625 
L 10.984375 10.5 
Q 14.703125 8.734375 18.5 7.8125 
Q 22.3125 6.890625 25.984375 6.890625 
Q 35.75 6.890625 40.890625 13.453125 
Q 46.046875 20.015625 46.78125 33.40625 
Q 43.953125 29.203125 39.59375 26.953125 
Q 35.25 24.703125 29.984375 24.703125 
Q 19.046875 24.703125 12.671875 31.3125 
Q 6.296875 37.9375 6.296875 49.421875 
Q 6.296875 60.640625 12.9375 67.421875 
Q 19.578125 74.21875 30.609375 74.21875 
Q 43.265625 74.21875 49.921875 64.515625 
Q 56.59375 54.828125 56.59375 36.375 
Q 56.59375 19.140625 48.40625 8.859375 
Q 40.234375 -1.421875 26.421875 -1.421875 
Q 22.703125 -1.421875 18.890625 -0.6875 
Q 15.09375 0.046875 10.984375 1.515625 
z
M 30.609375 32.421875 
Q 37.25 32.421875 41.125 36.953125 
Q 45.015625 41.5 45.015625 49.421875 
Q 45.015625 57.28125 41.125 61.84375 
Q 37.25 66.40625 30.609375 66.40625 
Q 23.96875 66.40625 20.09375 61.84375 
Q 16.21875 57.28125 16.21875 49.421875 
Q 16.21875 41.5 20.09375 36.953125 
Q 23.96875 32.421875 30.609375 32.421875 
z
" id="DejaVuSans-39"/>
      </defs>
      <g transform="translate(27.271231 173.282789)scale(0.0694 -0.0694)">
       <use xlink:href="#DejaVuSans-31"/>
       <use x="63.623047" xlink:href="#DejaVuSans-2e"/>
       <use x="95.410156" xlink:href="#DejaVuSans-39"/>
      </g>
     </g>
    </g>
    <g id="ytick_8">
     <g id="line2d_92">
      <path clip-path="url(#pb53de2ce9c)" d="M 45.308 140.960179 
L 137.126 140.960179 
" style="fill:none;stroke:#b0b0b0;stroke-dasharray:1.85,0.8;stroke-dashoffset:0;stroke-width:0.5;"/>
     </g>
     <g id="line2d_93">
      <g>
       <use style="stroke:#000000;stroke-width:0.8;" x="45.308" xlink:href="#m74eb10a86a" y="140.960179"/>
      </g>
     </g>
     <g id="text_21">
      <!-- 2.0 -->
      <g transform="translate(27.271231 143.596837)scale(0.0694 -0.0694)">
       <use xlink:href="#DejaVuSans-32"/>
       <use x="63.623047" xlink:href="#DejaVuSans-2e"/>
       <use x="95.410156" xlink:href="#DejaVuSans-30"/>
      </g>
     </g>
    </g>
    <g id="ytick_9">
     <g id="line2d_94">
      <path clip-path="url(#pb53de2ce9c)" d="M 45.308 111.274226 
L 137.126 111.274226 
" style="fill:none;stroke:#b0b0b0;stroke-dasharray:1.85,0.8;stroke-dashoffset:0;stroke-width:0.5;"/>
     </g>
     <g id="line2d_95">
      <g>
       <use style="stroke:#000000;stroke-width:0.8;" x="45.308" xlink:href="#m74eb10a86a" y="111.274226"/>
      </g>
     </g>
     <g id="text_22">
      <!-- 2.1 -->
      <g transform="translate(27.271231 113.910884)scale(0.0694 -0.0694)">
       <use xlink:href="#DejaVuSans-32"/>
       <use x="63.623047" xlink:href="#DejaVuSans-2e"/>
       <use x="95.410156" xlink:href="#DejaVuSans-31"/>
      </g>
     </g>
    </g>
    <g id="ytick_10">
     <g id="line2d_96">
      <path clip-path="url(#pb53de2ce9c)" d="M 45.308 81.588274 
L 137.126 81.588274 
" style="fill:none;stroke:#b0b0b0;stroke-dasharray:1.85,0.8;stroke-dashoffset:0;stroke-width:0.5;"/>
     </g>
     <g id="line2d_97">
      <g>
       <use style="stroke:#000000;stroke-width:0.8;" x="45.308" xlink:href="#m74eb10a86a" y="81.588274"/>
      </g>
     </g>
     <g id="text_23">
      <!-- 2.2 -->
      <g transform="translate(27.271231 84.224931)scale(0.0694 -0.0694)">
       <use xlink:href="#DejaVuSans-32"/>
       <use x="63.623047" xlink:href="#DejaVuSans-2e"/>
       <use x="95.410156" xlink:href="#DejaVuSans-32"/>
      </g>
     </g>
    </g>
    <g id="ytick_11">
     <g id="line2d_98">
      <path clip-path="url(#pb53de2ce9c)" d="M 45.308 51.902321 
L 137.126 51.902321 
" style="fill:none;stroke:#b0b0b0;stroke-dasharray:1.85,0.8;stroke-dashoffset:0;stroke-width:0.5;"/>
     </g>
     <g id="line2d_99">
      <g>
       <use style="stroke:#000000;stroke-width:0.8;" x="45.308" xlink:href="#m74eb10a86a" y="51.902321"/>
      </g>
     </g>
     <g id="text_24">
      <!-- 2.3 -->
      <defs>
       <path d="M 40.578125 39.3125 
Q 47.65625 37.796875 51.625 33 
Q 55.609375 28.21875 55.609375 21.1875 
Q 55.609375 10.40625 48.1875 4.484375 
Q 40.765625 -1.421875 27.09375 -1.421875 
Q 22.515625 -1.421875 17.65625 -0.515625 
Q 12.796875 0.390625 7.625 2.203125 
L 7.625 11.71875 
Q 11.71875 9.328125 16.59375 8.109375 
Q 21.484375 6.890625 26.8125 6.890625 
Q 36.078125 6.890625 40.9375 10.546875 
Q 45.796875 14.203125 45.796875 21.1875 
Q 45.796875 27.640625 41.28125 31.265625 
Q 36.765625 34.90625 28.71875 34.90625 
L 20.21875 34.90625 
L 20.21875 43.015625 
L 29.109375 43.015625 
Q 36.375 43.015625 40.234375 45.921875 
Q 44.09375 48.828125 44.09375 54.296875 
Q 44.09375 59.90625 40.109375 62.90625 
Q 36.140625 65.921875 28.71875 65.921875 
Q 24.65625 65.921875 20.015625 65.03125 
Q 15.375 64.15625 9.8125 62.3125 
L 9.8125 71.09375 
Q 15.4375 72.65625 20.34375 73.4375 
Q 25.25 74.21875 29.59375 74.21875 
Q 40.828125 74.21875 47.359375 69.109375 
Q 53.90625 64.015625 53.90625 55.328125 
Q 53.90625 49.265625 50.4375 45.09375 
Q 46.96875 40.921875 40.578125 39.3125 
z
" id="DejaVuSans-33"/>
      </defs>
      <g transform="translate(27.271231 54.538979)scale(0.0694 -0.0694)">
       <use xlink:href="#DejaVuSans-32"/>
       <use x="63.623047" xlink:href="#DejaVuSans-2e"/>
       <use x="95.410156" xlink:href="#DejaVuSans-33"/>
      </g>
     </g>
    </g>
    <g id="ytick_12">
     <g id="line2d_100">
      <path clip-path="url(#pb53de2ce9c)" d="M 45.308 22.216368 
L 137.126 22.216368 
" style="fill:none;stroke:#b0b0b0;stroke-dasharray:1.85,0.8;stroke-dashoffset:0;stroke-width:0.5;"/>
     </g>
     <g id="line2d_101">
      <g>
       <use style="stroke:#000000;stroke-width:0.8;" x="45.308" xlink:href="#m74eb10a86a" y="22.216368"/>
      </g>
     </g>
     <g id="text_25">
      <!-- 2.4 -->
      <g transform="translate(27.271231 24.853026)scale(0.0694 -0.0694)">
       <use xlink:href="#DejaVuSans-32"/>
       <use x="63.623047" xlink:href="#DejaVuSans-2e"/>
       <use x="95.410156" xlink:href="#DejaVuSans-34"/>
      </g>
     </g>
    </g>
    <g id="text_26">
     <!-- $f_\mathrm{s}$ -->
     <defs>
      <path d="M 47.796875 75.984375 
L 46.390625 68.5 
L 37.796875 68.5 
Q 32.90625 68.5 30.6875 66.578125 
Q 28.46875 64.65625 27.390625 59.515625 
L 26.421875 54.6875 
L 41.21875 54.6875 
L 39.890625 47.703125 
L 25.09375 47.703125 
L 15.828125 0 
L 6.78125 0 
L 16.109375 47.703125 
L 7.515625 47.703125 
L 8.796875 54.6875 
L 17.390625 54.6875 
L 18.109375 58.5 
Q 19.96875 68.171875 24.625 72.078125 
Q 29.296875 75.984375 39.3125 75.984375 
z
" id="DejaVuSans-Oblique-66"/>
      <path d="M 44.28125 53.078125 
L 44.28125 44.578125 
Q 40.484375 46.53125 36.375 47.5 
Q 32.28125 48.484375 27.875 48.484375 
Q 21.1875 48.484375 17.84375 46.4375 
Q 14.5 44.390625 14.5 40.28125 
Q 14.5 37.15625 16.890625 35.375 
Q 19.28125 33.59375 26.515625 31.984375 
L 29.59375 31.296875 
Q 39.15625 29.25 43.1875 25.515625 
Q 47.21875 21.78125 47.21875 15.09375 
Q 47.21875 7.46875 41.1875 3.015625 
Q 35.15625 -1.421875 24.609375 -1.421875 
Q 20.21875 -1.421875 15.453125 -0.5625 
Q 10.6875 0.296875 5.421875 2 
L 5.421875 11.28125 
Q 10.40625 8.6875 15.234375 7.390625 
Q 20.0625 6.109375 24.8125 6.109375 
Q 31.15625 6.109375 34.5625 8.28125 
Q 37.984375 10.453125 37.984375 14.40625 
Q 37.984375 18.0625 35.515625 20.015625 
Q 33.0625 21.96875 24.703125 23.78125 
L 21.578125 24.515625 
Q 13.234375 26.265625 9.515625 29.90625 
Q 5.8125 33.546875 5.8125 39.890625 
Q 5.8125 47.609375 11.28125 51.796875 
Q 16.75 56 26.8125 56 
Q 31.78125 56 36.171875 55.265625 
Q 40.578125 54.546875 44.28125 53.078125 
z
" id="DejaVuSans-73"/>
     </defs>
     <g transform="translate(21.191544 104.846)rotate(-90)scale(0.1 -0.1)">
      <use transform="translate(0 0.015625)" xlink:href="#DejaVuSans-Oblique-66"/>
      <use transform="translate(35.205078 -16.390625)scale(0.7)" xlink:href="#DejaVuSans-73"/>
     </g>
    </g>
   </g>
   <g id="line2d_102">
    <path clip-path="url(#pb53de2ce9c)" d="M 49.481545 117.355492 
L 50.324686 117.471723 
L 51.167826 117.58403 
L 52.010967 117.692415 
L 52.854107 117.796877 
L 53.697248 117.897415 
L 54.540388 117.994031 
L 55.383529 118.086723 
L 56.226669 118.175493 
L 57.06981 118.260339 
L 57.91295 118.341263 
L 58.756091 118.418263 
L 59.599231 118.491341 
L 60.442372 118.560495 
L 61.285512 118.625726 
L 62.128653 118.687034 
L 62.971793 118.744419 
L 63.814934 118.797882 
L 64.658074 118.847421 
L 65.501215 118.893037 
L 66.344355 118.93473 
L 67.187496 118.9725 
L 68.030636 119.006347 
L 68.873777 119.036271 
L 69.716917 119.062272 
L 70.560058 119.084349 
L 71.403198 119.102504 
L 72.246339 119.116736 
L 73.089479 119.127045 
L 73.93262 119.13343 
L 74.77576 119.135893 
L 75.618901 119.134433 
L 76.462041 119.129049 
L 77.305182 119.119743 
L 78.148322 119.106513 
L 78.991463 119.089361 
L 79.834603 119.068285 
L 80.677744 119.043286 
L 81.520884 119.014365 
L 82.364025 118.98152 
L 83.207165 118.944752 
L 84.050306 118.904061 
L 84.893446 118.859448 
L 85.736587 118.810911 
L 86.579727 118.758451 
L 87.422868 118.702068 
L 88.266008 118.641762 
L 89.109149 118.577533 
L 89.952289 118.509381 
L 90.79543 118.437306 
L 91.63857 118.361307 
L 92.481711 118.281386 
L 93.324851 118.197542 
L 94.167992 118.109775 
L 95.011132 118.018085 
L 95.854273 117.922471 
L 96.697413 117.822935 
L 97.540554 117.719475 
L 98.383694 117.612093 
L 99.226835 117.500787 
L 100.069975 117.385559 
L 100.913116 117.266407 
L 101.756256 117.143333 
L 102.599397 117.016335 
L 103.442537 116.885414 
L 104.285678 116.750571 
L 105.128818 116.611804 
L 105.971959 116.469114 
L 106.815099 116.322501 
L 107.65824 116.171965 
L 108.50138 116.017506 
L 109.344521 115.859124 
L 110.187661 115.696819 
L 111.030802 115.530591 
L 111.873942 115.36044 
L 112.717083 115.186366 
L 113.560223 115.008369 
L 114.403364 114.826449 
L 115.246504 114.640606 
L 116.089645 114.450839 
L 116.932785 114.25715 
L 117.775926 114.059538 
L 118.619066 113.858002 
L 119.462207 113.652544 
L 120.305347 113.443162 
L 121.148488 113.229858 
L 121.991628 113.01263 
L 122.834769 112.79148 
L 123.677909 112.566406 
L 124.52105 112.337409 
L 125.36419 112.10449 
L 126.207331 111.867647 
L 127.050471 111.626881 
L 127.893612 111.382192 
L 128.736752 111.133581 
L 129.579893 110.881046 
L 130.423033 110.624588 
L 131.266174 110.364207 
L 132.109314 110.099903 
L 132.952455 109.831676 
" style="fill:none;stroke:#000000;stroke-linecap:square;stroke-width:0.5;"/>
   </g>
   <g id="line2d_103">
    <defs>
     <path d="M -1.25 1.25 
L 1.25 1.25 
L 1.25 -1.25 
L -1.25 -1.25 
z
" id="maa26e628be" style="stroke:#000000;stroke-linejoin:miter;"/>
    </defs>
    <g clip-path="url(#pb53de2ce9c)">
     <use style="stroke:#000000;stroke-linejoin:miter;" x="49.481545" xlink:href="#maa26e628be" y="117.294102"/>
     <use style="stroke:#000000;stroke-linejoin:miter;" x="58.756091" xlink:href="#maa26e628be" y="118.45611"/>
     <use style="stroke:#000000;stroke-linejoin:miter;" x="68.030636" xlink:href="#maa26e628be" y="119.058995"/>
     <use style="stroke:#000000;stroke-linejoin:miter;" x="77.305182" xlink:href="#maa26e628be" y="119.147166"/>
     <use style="stroke:#000000;stroke-linejoin:miter;" x="86.579727" xlink:href="#maa26e628be" y="118.75172"/>
     <use style="stroke:#000000;stroke-linejoin:miter;" x="95.854273" xlink:href="#maa26e628be" y="117.892314"/>
     <use style="stroke:#000000;stroke-linejoin:miter;" x="105.128818" xlink:href="#maa26e628be" y="116.578234"/>
     <use style="stroke:#000000;stroke-linejoin:miter;" x="114.403364" xlink:href="#maa26e628be" y="114.808775"/>
     <use style="stroke:#000000;stroke-linejoin:miter;" x="123.677909" xlink:href="#maa26e628be" y="112.573405"/>
     <use style="stroke:#000000;stroke-linejoin:miter;" x="132.952455" xlink:href="#maa26e628be" y="109.856281"/>
     <use style="stroke:#000000;stroke-linejoin:miter;" x="87.772222" xlink:href="#maa26e628be" y="118.666917"/>
    </g>
   </g>
   <g id="line2d_104">
    <path clip-path="url(#pb53de2ce9c)" d="M 49.481545 180.437118 
L 50.324686 179.27756 
L 51.167826 178.10898 
L 52.010967 176.931378 
L 52.854107 175.744754 
L 53.697248 174.549107 
L 54.540388 173.344439 
L 55.383529 172.130749 
L 56.226669 170.908036 
L 57.06981 169.676302 
L 57.91295 168.435545 
L 58.756091 167.185766 
L 59.599231 165.926965 
L 60.442372 164.659142 
L 61.285512 163.382297 
L 62.128653 162.09643 
L 62.971793 160.801541 
L 63.814934 159.497629 
L 64.658074 158.184696 
L 65.501215 156.862741 
L 66.344355 155.531763 
L 67.187496 154.191763 
L 68.030636 152.842742 
L 68.873777 151.484698 
L 69.716917 150.117632 
L 70.560058 148.741544 
L 71.403198 147.356434 
L 72.246339 145.962301 
L 73.089479 144.559147 
L 73.93262 143.146971 
L 74.77576 141.725772 
L 75.618901 140.295552 
L 76.462041 138.856309 
L 77.305182 137.408044 
L 78.148322 135.950758 
L 78.991463 134.484449 
L 79.834603 133.009118 
L 80.677744 131.524765 
L 81.520884 130.03139 
L 82.364025 128.528992 
L 83.207165 127.017573 
L 84.050306 125.497132 
L 84.893446 123.967668 
L 85.736587 122.429183 
L 86.579727 120.881675 
L 87.422868 119.325145 
L 88.266008 117.759593 
L 89.109149 116.185019 
L 89.952289 114.601423 
L 90.79543 113.008805 
L 91.63857 111.407165 
L 92.481711 109.796503 
L 93.324851 108.176818 
L 94.167992 106.548112 
L 95.011132 104.910383 
L 95.854273 103.263633 
L 96.697413 101.60786 
L 97.540554 99.943065 
L 98.383694 98.269248 
L 99.226835 96.586409 
L 100.069975 94.894548 
L 100.913116 93.193665 
L 101.756256 91.48376 
L 102.599397 89.764833 
L 103.442537 88.036883 
L 104.285678 86.299912 
L 105.128818 84.553918 
L 105.971959 82.798902 
L 106.815099 81.034865 
L 107.65824 79.261805 
L 108.50138 77.479723 
L 109.344521 75.688619 
L 110.187661 73.888493 
L 111.030802 72.079345 
L 111.873942 70.261174 
L 112.717083 68.433982 
L 113.560223 66.597767 
L 114.403364 64.752531 
L 115.246504 62.898272 
L 116.089645 61.034992 
L 116.932785 59.162689 
L 117.775926 57.281364 
L 118.619066 55.391017 
L 119.462207 53.491648 
L 120.305347 51.583257 
L 121.148488 49.665843 
L 121.991628 47.739408 
L 122.834769 45.803951 
L 123.677909 43.859471 
L 124.52105 41.90597 
L 125.36419 39.943446 
L 126.207331 37.9719 
L 127.050471 35.991332 
L 127.893612 34.001742 
L 128.736752 32.00313 
L 129.579893 29.995496 
L 130.423033 27.97884 
L 131.266174 25.953162 
L 132.109314 23.918461 
L 132.952455 21.874739 
" style="fill:none;stroke:#000000;stroke-linecap:square;stroke-width:0.5;"/>
   </g>
   <g id="line2d_105">
    <defs>
     <path d="M 0 1.25 
C 0.331504 1.25 0.649475 1.118292 0.883883 0.883883 
C 1.118292 0.649475 1.25 0.331504 1.25 0 
C 1.25 -0.331504 1.118292 -0.649475 0.883883 -0.883883 
C 0.649475 -1.118292 0.331504 -1.25 0 -1.25 
C -0.331504 -1.25 -0.649475 -1.118292 -0.883883 -0.883883 
C -1.118292 -0.649475 -1.25 -0.331504 -1.25 0 
C -1.25 0.331504 -1.118292 0.649475 -0.883883 0.883883 
C -0.649475 1.118292 -0.331504 1.25 0 1.25 
z
" id="m99b3dc220e" style="stroke:#000000;"/>
    </defs>
    <g clip-path="url(#pb53de2ce9c)">
     <use style="stroke:#000000;" x="49.481545" xlink:href="#m99b3dc220e" y="180.892364"/>
     <use style="stroke:#000000;" x="58.756091" xlink:href="#m99b3dc220e" y="167.072579"/>
     <use style="stroke:#000000;" x="68.030636" xlink:href="#m99b3dc220e" y="152.473094"/>
     <use style="stroke:#000000;" x="77.305182" xlink:href="#m99b3dc220e" y="137.036985"/>
     <use style="stroke:#000000;" x="86.579727" xlink:href="#m99b3dc220e" y="120.691769"/>
     <use style="stroke:#000000;" x="95.854273" xlink:href="#m99b3dc220e" y="103.348427"/>
     <use style="stroke:#000000;" x="105.128818" xlink:href="#m99b3dc220e" y="84.899425"/>
     <use style="stroke:#000000;" x="114.403364" xlink:href="#m99b3dc220e" y="65.215181"/>
     <use style="stroke:#000000;" x="123.677909" xlink:href="#m99b3dc220e" y="44.130177"/>
     <use style="stroke:#000000;" x="132.952455" xlink:href="#m99b3dc220e" y="21.299636"/>
     <use style="stroke:#000000;" x="87.772222" xlink:href="#m99b3dc220e" y="118.519803"/>
    </g>
   </g>
   <g id="line2d_106">
    <defs>
     <path d="M 0 -2.5 
L -0.561285 -0.772542 
L -2.377641 -0.772542 
L -0.908178 0.295085 
L -1.469463 2.022542 
L -0 0.954915 
L 1.469463 2.022542 
L 0.908178 0.295085 
L 2.377641 -0.772542 
L 0.561285 -0.772542 
z
" id="m938f867763" style="stroke:#ff0000;stroke-linejoin:bevel;"/>
    </defs>
    <g clip-path="url(#pb53de2ce9c)">
     <use style="fill:#ff0000;stroke:#ff0000;stroke-linejoin:bevel;" x="87.739045" xlink:href="#m938f867763" y="118.695714"/>
    </g>
   </g>
   <g id="patch_8">
    <path d="M 45.308 188.872 
L 45.308 13.32 
" style="fill:none;stroke:#000000;stroke-linecap:square;stroke-linejoin:miter;stroke-width:0.8;"/>
   </g>
   <g id="patch_9">
    <path d="M 137.126 188.872 
L 137.126 13.32 
" style="fill:none;stroke:#000000;stroke-linecap:square;stroke-linejoin:miter;stroke-width:0.8;"/>
   </g>
   <g id="patch_10">
    <path d="M 45.308 188.872 
L 137.126 188.872 
" style="fill:none;stroke:#000000;stroke-linecap:square;stroke-linejoin:miter;stroke-width:0.8;"/>
   </g>
   <g id="patch_11">
    <path d="M 45.308 13.32 
L 137.126 13.32 
" style="fill:none;stroke:#000000;stroke-linecap:square;stroke-linejoin:miter;stroke-width:0.8;"/>
   </g>
   <g id="legend_1">
    <g id="patch_12">
     <path d="M 51.139 32.210878 
L 131.295 32.210878 
Q 132.961 32.210878 132.961 30.544878 
L 132.961 19.151 
Q 132.961 17.485 131.295 17.485 
L 51.139 17.485 
Q 49.473 17.485 49.473 19.151 
L 49.473 30.544878 
Q 49.473 32.210878 51.139 32.210878 
z
" style="fill:#ffffff;opacity:0.25;stroke:#cccccc;stroke-linejoin:miter;"/>
    </g>
    <g id="line2d_107"/>
    <g id="line2d_108">
     <g>
      <use style="stroke:#000000;stroke-linejoin:miter;" x="61.135" xlink:href="#maa26e628be" y="24.230998"/>
     </g>
    </g>
    <g id="text_27">
     <!-- $f_\mathrm{m}$ -->
     <defs>
      <path d="M 52 44.1875 
Q 55.375 50.25 60.0625 53.125 
Q 64.75 56 71.09375 56 
Q 79.640625 56 84.28125 50.015625 
Q 88.921875 44.046875 88.921875 33.015625 
L 88.921875 0 
L 79.890625 0 
L 79.890625 32.71875 
Q 79.890625 40.578125 77.09375 44.375 
Q 74.3125 48.1875 68.609375 48.1875 
Q 61.625 48.1875 57.5625 43.546875 
Q 53.515625 38.921875 53.515625 30.90625 
L 53.515625 0 
L 44.484375 0 
L 44.484375 32.71875 
Q 44.484375 40.625 41.703125 44.40625 
Q 38.921875 48.1875 33.109375 48.1875 
Q 26.21875 48.1875 22.15625 43.53125 
Q 18.109375 38.875 18.109375 30.90625 
L 18.109375 0 
L 9.078125 0 
L 9.078125 54.6875 
L 18.109375 54.6875 
L 18.109375 46.1875 
Q 21.1875 51.21875 25.484375 53.609375 
Q 29.78125 56 35.6875 56 
Q 41.65625 56 45.828125 52.96875 
Q 50 49.953125 52 44.1875 
z
" id="DejaVuSans-6d"/>
     </defs>
     <g transform="translate(76.129 27.146498)scale(0.0833 -0.0833)">
      <use transform="translate(0 0.015625)" xlink:href="#DejaVuSans-Oblique-66"/>
      <use transform="translate(35.205078 -16.390625)scale(0.7)" xlink:href="#DejaVuSans-6d"/>
     </g>
    </g>
    <g id="line2d_109"/>
    <g id="line2d_110">
     <g>
      <use style="stroke:#000000;" x="109.3871" xlink:href="#m99b3dc220e" y="24.230998"/>
     </g>
    </g>
    <g id="text_28">
     <!-- $f_\mathrm{f}$ -->
     <defs>
      <path d="M 37.109375 75.984375 
L 37.109375 68.5 
L 28.515625 68.5 
Q 23.6875 68.5 21.796875 66.546875 
Q 19.921875 64.59375 19.921875 59.515625 
L 19.921875 54.6875 
L 34.71875 54.6875 
L 34.71875 47.703125 
L 19.921875 47.703125 
L 19.921875 0 
L 10.890625 0 
L 10.890625 47.703125 
L 2.296875 47.703125 
L 2.296875 54.6875 
L 10.890625 54.6875 
L 10.890625 58.5 
Q 10.890625 67.625 15.140625 71.796875 
Q 19.390625 75.984375 28.609375 75.984375 
z
" id="DejaVuSans-66"/>
     </defs>
     <g transform="translate(124.3811 27.146498)scale(0.0833 -0.0833)">
      <use transform="translate(0 0.015625)" xlink:href="#DejaVuSans-Oblique-66"/>
      <use transform="translate(35.205078 -16.390625)scale(0.7)" xlink:href="#DejaVuSans-66"/>
     </g>
    </g>
   </g>
   <g id="legend_2">
    <g id="patch_13">
     <path d="M 57.7304 184.707 
L 124.7036 184.707 
Q 126.3696 184.707 126.3696 183.041 
L 126.3696 162.319344 
Q 126.3696 160.653344 124.7036 160.653344 
L 57.7304 160.653344 
Q 56.0644 160.653344 56.0644 162.319344 
L 56.0644 183.041 
Q 56.0644 184.707 57.7304 184.707 
z
" style="fill:#ffffff;opacity:0.25;stroke:#cccccc;stroke-linejoin:miter;"/>
    </g>
    <g id="line2d_111"/>
    <g id="line2d_112">
     <g>
      <use style="fill:#ff0000;stroke:#ff0000;stroke-linejoin:bevel;" x="67.7264" xlink:href="#m938f867763" y="172.929421"/>
     </g>
    </g>
    <g id="text_29">
     <!-- $f_\mathrm{s}=2.075$ -->
     <defs>
      <path d="M 10.59375 45.40625 
L 73.1875 45.40625 
L 73.1875 37.203125 
L 10.59375 37.203125 
z
M 10.59375 25.484375 
L 73.1875 25.484375 
L 73.1875 17.1875 
L 10.59375 17.1875 
z
" id="DejaVuSans-3d"/>
     </defs>
     <g transform="translate(82.7204 170.314842)scale(0.0833 -0.0833)">
      <use transform="translate(0 0.015625)" xlink:href="#DejaVuSans-Oblique-66"/>
      <use transform="translate(35.205078 -16.390625)scale(0.7)" xlink:href="#DejaVuSans-73"/>
      <use transform="translate(93.891602 0.015625)" xlink:href="#DejaVuSans-3d"/>
      <use transform="translate(197.163086 0.015625)" xlink:href="#DejaVuSans-32"/>
      <use transform="translate(260.786133 0.015625)" xlink:href="#DejaVuSans-2e"/>
      <use transform="translate(292.573242 0.015625)" xlink:href="#DejaVuSans-30"/>
      <use transform="translate(356.196289 0.015625)" xlink:href="#DejaVuSans-37"/>
      <use transform="translate(419.819336 0.015625)" xlink:href="#DejaVuSans-35"/>
     </g>
     <!-- $\lambda=0.275$ -->
     <g transform="translate(82.7204 179.64262)scale(0.0833 -0.0833)">
      <use transform="translate(0 0.015625)" xlink:href="#DejaVuSans-Oblique-3bb"/>
      <use transform="translate(78.662109 0.015625)" xlink:href="#DejaVuSans-3d"/>
      <use transform="translate(181.933594 0.015625)" xlink:href="#DejaVuSans-30"/>
      <use transform="translate(245.556641 0.015625)" xlink:href="#DejaVuSans-2e"/>
      <use transform="translate(277.265625 0.015625)" xlink:href="#DejaVuSans-32"/>
      <use transform="translate(340.888672 0.015625)" xlink:href="#DejaVuSans-37"/>
      <use transform="translate(404.511719 0.015625)" xlink:href="#DejaVuSans-35"/>
     </g>
    </g>
   </g>
   <g id="legend_3">
    <g id="patch_14">
     <path d="M 57.7304 184.707 
L 124.7036 184.707 
Q 126.3696 184.707 126.3696 183.041 
L 126.3696 162.319344 
Q 126.3696 160.653344 124.7036 160.653344 
L 57.7304 160.653344 
Q 56.0644 160.653344 56.0644 162.319344 
L 56.0644 183.041 
Q 56.0644 184.707 57.7304 184.707 
z
" style="fill:#ffffff;opacity:0.25;stroke:#cccccc;stroke-linejoin:miter;"/>
    </g>
    <g id="line2d_113"/>
    <g id="line2d_114">
     <g>
      <use style="fill:#ff0000;stroke:#ff0000;stroke-linejoin:bevel;" x="67.7264" xlink:href="#m938f867763" y="172.929421"/>
     </g>
    </g>
    <g id="text_30">
     <!-- $f_\mathrm{s}=2.075$ -->
     <g transform="translate(82.7204 170.314842)scale(0.0833 -0.0833)">
      <use transform="translate(0 0.015625)" xlink:href="#DejaVuSans-Oblique-66"/>
      <use transform="translate(35.205078 -16.390625)scale(0.7)" xlink:href="#DejaVuSans-73"/>
      <use transform="translate(93.891602 0.015625)" xlink:href="#DejaVuSans-3d"/>
      <use transform="translate(197.163086 0.015625)" xlink:href="#DejaVuSans-32"/>
      <use transform="translate(260.786133 0.015625)" xlink:href="#DejaVuSans-2e"/>
      <use transform="translate(292.573242 0.015625)" xlink:href="#DejaVuSans-30"/>
      <use transform="translate(356.196289 0.015625)" xlink:href="#DejaVuSans-37"/>
      <use transform="translate(419.819336 0.015625)" xlink:href="#DejaVuSans-35"/>
     </g>
     <!-- $\lambda=0.275$ -->
     <g transform="translate(82.7204 179.64262)scale(0.0833 -0.0833)">
      <use transform="translate(0 0.015625)" xlink:href="#DejaVuSans-Oblique-3bb"/>
      <use transform="translate(78.662109 0.015625)" xlink:href="#DejaVuSans-3d"/>
      <use transform="translate(181.933594 0.015625)" xlink:href="#DejaVuSans-30"/>
      <use transform="translate(245.556641 0.015625)" xlink:href="#DejaVuSans-2e"/>
      <use transform="translate(277.265625 0.015625)" xlink:href="#DejaVuSans-32"/>
      <use transform="translate(340.888672 0.015625)" xlink:href="#DejaVuSans-37"/>
      <use transform="translate(404.511719 0.015625)" xlink:href="#DejaVuSans-35"/>
     </g>
    </g>
   </g>
  </g>
 </g>
 <defs>
  <clipPath id="p59598e89fd">
   <rect height="175.552" width="275.454" x="172.026" y="13.32"/>
  </clipPath>
  <clipPath id="pb53de2ce9c">
   <rect height="175.552" width="91.818" x="45.308" y="13.32"/>
  </clipPath>
 </defs>
</svg>
