<?xml version="1.0" encoding="utf-8" standalone="no"?>
<!DOCTYPE svg PUBLIC "-//W3C//DTD SVG 1.1//EN"
  "http://www.w3.org/Graphics/SVG/1.1/DTD/svg11.dtd">
<!-- Created with matplotlib (http://matplotlib.org/) -->
<svg height="230.4pt" version="1.1" viewBox="0 0 460.8 230.4" width="460.8pt" xmlns="http://www.w3.org/2000/svg" xmlns:xlink="http://www.w3.org/1999/xlink">
 <defs>
  <style type="text/css">
*{stroke-linecap:butt;stroke-linejoin:round;}
  </style>
 </defs>
 <g id="figure_1">
  <g id="patch_1">
   <path d="M 0 230.4 
L 460.8 230.4 
L 460.8 0 
L 0 0 
z
" style="fill:#ffffff;"/>
  </g>
  <g id="axes_1">
   <g id="patch_2">
    <path d="M 175.3335 188.872 
L 447.48 188.872 
L 447.48 13.32 
L 175.3335 13.32 
z
" style="fill:#ffffff;"/>
   </g>
   <g id="matplotlib.axis_1">
    <g id="xtick_1">
     <g id="line2d_1">
      <path clip-path="url(#pff81e278c7)" d="M 187.703795 188.872 
L 187.703795 13.32 
" style="fill:none;stroke:#b0b0b0;stroke-dasharray:1.85,0.8;stroke-dashoffset:0;stroke-width:0.5;"/>
     </g>
     <g id="line2d_2">
      <defs>
       <path d="M 0 0 
L 0 3.5 
" id="ma957f06a9f" style="stroke:#000000;stroke-width:0.8;"/>
      </defs>
      <g>
       <use style="stroke:#000000;stroke-width:0.8;" x="187.703795" xlink:href="#ma957f06a9f" y="188.872"/>
      </g>
     </g>
     <g id="text_1">
      <!-- 0 -->
      <defs>
       <path d="M 31.78125 66.40625 
Q 24.171875 66.40625 20.328125 58.90625 
Q 16.5 51.421875 16.5 36.375 
Q 16.5 21.390625 20.328125 13.890625 
Q 24.171875 6.390625 31.78125 6.390625 
Q 39.453125 6.390625 43.28125 13.890625 
Q 47.125 21.390625 47.125 36.375 
Q 47.125 51.421875 43.28125 58.90625 
Q 39.453125 66.40625 31.78125 66.40625 
z
M 31.78125 74.21875 
Q 44.046875 74.21875 50.515625 64.515625 
Q 56.984375 54.828125 56.984375 36.375 
Q 56.984375 17.96875 50.515625 8.265625 
Q 44.046875 -1.421875 31.78125 -1.421875 
Q 19.53125 -1.421875 13.0625 8.265625 
Q 6.59375 17.96875 6.59375 36.375 
Q 6.59375 54.828125 13.0625 64.515625 
Q 19.53125 74.21875 31.78125 74.21875 
z
" id="DejaVuSans-30"/>
      </defs>
      <g transform="translate(185.496008 201.145316)scale(0.0694 -0.0694)">
       <use xlink:href="#DejaVuSans-30"/>
      </g>
     </g>
    </g>
    <g id="xtick_2">
     <g id="line2d_3">
      <path clip-path="url(#pff81e278c7)" d="M 224.087017 188.872 
L 224.087017 13.32 
" style="fill:none;stroke:#b0b0b0;stroke-dasharray:1.85,0.8;stroke-dashoffset:0;stroke-width:0.5;"/>
     </g>
     <g id="line2d_4">
      <g>
       <use style="stroke:#000000;stroke-width:0.8;" x="224.087017" xlink:href="#ma957f06a9f" y="188.872"/>
      </g>
     </g>
     <g id="text_2">
      <!-- 25 -->
      <defs>
       <path d="M 19.1875 8.296875 
L 53.609375 8.296875 
L 53.609375 0 
L 7.328125 0 
L 7.328125 8.296875 
Q 12.9375 14.109375 22.625 23.890625 
Q 32.328125 33.6875 34.8125 36.53125 
Q 39.546875 41.84375 41.421875 45.53125 
Q 43.3125 49.21875 43.3125 52.78125 
Q 43.3125 58.59375 39.234375 62.25 
Q 35.15625 65.921875 28.609375 65.921875 
Q 23.96875 65.921875 18.8125 64.3125 
Q 13.671875 62.703125 7.8125 59.421875 
L 7.8125 69.390625 
Q 13.765625 71.78125 18.9375 73 
Q 24.125 74.21875 28.421875 74.21875 
Q 39.75 74.21875 46.484375 68.546875 
Q 53.21875 62.890625 53.21875 53.421875 
Q 53.21875 48.921875 51.53125 44.890625 
Q 49.859375 40.875 45.40625 35.40625 
Q 44.1875 33.984375 37.640625 27.21875 
Q 31.109375 20.453125 19.1875 8.296875 
z
" id="DejaVuSans-32"/>
       <path d="M 10.796875 72.90625 
L 49.515625 72.90625 
L 49.515625 64.59375 
L 19.828125 64.59375 
L 19.828125 46.734375 
Q 21.96875 47.46875 24.109375 47.828125 
Q 26.265625 48.1875 28.421875 48.1875 
Q 40.625 48.1875 47.75 41.5 
Q 54.890625 34.8125 54.890625 23.390625 
Q 54.890625 11.625 47.5625 5.09375 
Q 40.234375 -1.421875 26.90625 -1.421875 
Q 22.3125 -1.421875 17.546875 -0.640625 
Q 12.796875 0.140625 7.71875 1.703125 
L 7.71875 11.625 
Q 12.109375 9.234375 16.796875 8.0625 
Q 21.484375 6.890625 26.703125 6.890625 
Q 35.15625 6.890625 40.078125 11.328125 
Q 45.015625 15.765625 45.015625 23.390625 
Q 45.015625 31 40.078125 35.4375 
Q 35.15625 39.890625 26.703125 39.890625 
Q 22.75 39.890625 18.8125 39.015625 
Q 14.890625 38.140625 10.796875 36.28125 
z
" id="DejaVuSans-35"/>
      </defs>
      <g transform="translate(219.671442 201.145316)scale(0.0694 -0.0694)">
       <use xlink:href="#DejaVuSans-32"/>
       <use x="63.623047" xlink:href="#DejaVuSans-35"/>
      </g>
     </g>
    </g>
    <g id="xtick_3">
     <g id="line2d_5">
      <path clip-path="url(#pff81e278c7)" d="M 260.470239 188.872 
L 260.470239 13.32 
" style="fill:none;stroke:#b0b0b0;stroke-dasharray:1.85,0.8;stroke-dashoffset:0;stroke-width:0.5;"/>
     </g>
     <g id="line2d_6">
      <g>
       <use style="stroke:#000000;stroke-width:0.8;" x="260.470239" xlink:href="#ma957f06a9f" y="188.872"/>
      </g>
     </g>
     <g id="text_3">
      <!-- 50 -->
      <g transform="translate(256.054664 201.145316)scale(0.0694 -0.0694)">
       <use xlink:href="#DejaVuSans-35"/>
       <use x="63.623047" xlink:href="#DejaVuSans-30"/>
      </g>
     </g>
    </g>
    <g id="xtick_4">
     <g id="line2d_7">
      <path clip-path="url(#pff81e278c7)" d="M 296.853461 188.872 
L 296.853461 13.32 
" style="fill:none;stroke:#b0b0b0;stroke-dasharray:1.85,0.8;stroke-dashoffset:0;stroke-width:0.5;"/>
     </g>
     <g id="line2d_8">
      <g>
       <use style="stroke:#000000;stroke-width:0.8;" x="296.853461" xlink:href="#ma957f06a9f" y="188.872"/>
      </g>
     </g>
     <g id="text_4">
      <!-- 75 -->
      <defs>
       <path d="M 8.203125 72.90625 
L 55.078125 72.90625 
L 55.078125 68.703125 
L 28.609375 0 
L 18.3125 0 
L 43.21875 64.59375 
L 8.203125 64.59375 
z
" id="DejaVuSans-37"/>
      </defs>
      <g transform="translate(292.437886 201.145316)scale(0.0694 -0.0694)">
       <use xlink:href="#DejaVuSans-37"/>
       <use x="63.623047" xlink:href="#DejaVuSans-35"/>
      </g>
     </g>
    </g>
    <g id="xtick_5">
     <g id="line2d_9">
      <path clip-path="url(#pff81e278c7)" d="M 333.236683 188.872 
L 333.236683 13.32 
" style="fill:none;stroke:#b0b0b0;stroke-dasharray:1.85,0.8;stroke-dashoffset:0;stroke-width:0.5;"/>
     </g>
     <g id="line2d_10">
      <g>
       <use style="stroke:#000000;stroke-width:0.8;" x="333.236683" xlink:href="#ma957f06a9f" y="188.872"/>
      </g>
     </g>
     <g id="text_5">
      <!-- 100 -->
      <defs>
       <path d="M 12.40625 8.296875 
L 28.515625 8.296875 
L 28.515625 63.921875 
L 10.984375 60.40625 
L 10.984375 69.390625 
L 28.421875 72.90625 
L 38.28125 72.90625 
L 38.28125 8.296875 
L 54.390625 8.296875 
L 54.390625 0 
L 12.40625 0 
z
" id="DejaVuSans-31"/>
      </defs>
      <g transform="translate(326.613321 201.145316)scale(0.0694 -0.0694)">
       <use xlink:href="#DejaVuSans-31"/>
       <use x="63.623047" xlink:href="#DejaVuSans-30"/>
       <use x="127.246094" xlink:href="#DejaVuSans-30"/>
      </g>
     </g>
    </g>
    <g id="xtick_6">
     <g id="line2d_11">
      <path clip-path="url(#pff81e278c7)" d="M 369.619905 188.872 
L 369.619905 13.32 
" style="fill:none;stroke:#b0b0b0;stroke-dasharray:1.85,0.8;stroke-dashoffset:0;stroke-width:0.5;"/>
     </g>
     <g id="line2d_12">
      <g>
       <use style="stroke:#000000;stroke-width:0.8;" x="369.619905" xlink:href="#ma957f06a9f" y="188.872"/>
      </g>
     </g>
     <g id="text_6">
      <!-- 125 -->
      <g transform="translate(362.996543 201.145316)scale(0.0694 -0.0694)">
       <use xlink:href="#DejaVuSans-31"/>
       <use x="63.623047" xlink:href="#DejaVuSans-32"/>
       <use x="127.246094" xlink:href="#DejaVuSans-35"/>
      </g>
     </g>
    </g>
    <g id="xtick_7">
     <g id="line2d_13">
      <path clip-path="url(#pff81e278c7)" d="M 406.003127 188.872 
L 406.003127 13.32 
" style="fill:none;stroke:#b0b0b0;stroke-dasharray:1.85,0.8;stroke-dashoffset:0;stroke-width:0.5;"/>
     </g>
     <g id="line2d_14">
      <g>
       <use style="stroke:#000000;stroke-width:0.8;" x="406.003127" xlink:href="#ma957f06a9f" y="188.872"/>
      </g>
     </g>
     <g id="text_7">
      <!-- 150 -->
      <g transform="translate(399.379765 201.145316)scale(0.0694 -0.0694)">
       <use xlink:href="#DejaVuSans-31"/>
       <use x="63.623047" xlink:href="#DejaVuSans-35"/>
       <use x="127.246094" xlink:href="#DejaVuSans-30"/>
      </g>
     </g>
    </g>
    <g id="xtick_8">
     <g id="line2d_15">
      <path clip-path="url(#pff81e278c7)" d="M 442.386349 188.872 
L 442.386349 13.32 
" style="fill:none;stroke:#b0b0b0;stroke-dasharray:1.85,0.8;stroke-dashoffset:0;stroke-width:0.5;"/>
     </g>
     <g id="line2d_16">
      <g>
       <use style="stroke:#000000;stroke-width:0.8;" x="442.386349" xlink:href="#ma957f06a9f" y="188.872"/>
      </g>
     </g>
     <g id="text_8">
      <!-- 175 -->
      <g transform="translate(435.762986 201.145316)scale(0.0694 -0.0694)">
       <use xlink:href="#DejaVuSans-31"/>
       <use x="63.623047" xlink:href="#DejaVuSans-37"/>
       <use x="127.246094" xlink:href="#DejaVuSans-35"/>
      </g>
     </g>
    </g>
   </g>
   <g id="matplotlib.axis_2">
    <g id="ytick_1">
     <g id="line2d_17">
      <path clip-path="url(#pff81e278c7)" d="M 175.3335 166.587056 
L 447.48 166.587056 
" style="fill:none;stroke:#b0b0b0;stroke-dasharray:1.85,0.8;stroke-dashoffset:0;stroke-width:0.5;"/>
     </g>
     <g id="line2d_18">
      <defs>
       <path d="M 0 0 
L -3.5 0 
" id="me67b981da4" style="stroke:#000000;stroke-width:0.8;"/>
      </defs>
      <g>
       <use style="stroke:#000000;stroke-width:0.8;" x="175.3335" xlink:href="#me67b981da4" y="166.587056"/>
      </g>
     </g>
     <g id="text_9">
      <!-- 0 -->
      <g transform="translate(163.917925 169.223713)scale(0.0694 -0.0694)">
       <use xlink:href="#DejaVuSans-30"/>
      </g>
     </g>
    </g>
    <g id="ytick_2">
     <g id="line2d_19">
      <path clip-path="url(#pff81e278c7)" d="M 175.3335 137.480478 
L 447.48 137.480478 
" style="fill:none;stroke:#b0b0b0;stroke-dasharray:1.85,0.8;stroke-dashoffset:0;stroke-width:0.5;"/>
     </g>
     <g id="line2d_20">
      <g>
       <use style="stroke:#000000;stroke-width:0.8;" x="175.3335" xlink:href="#me67b981da4" y="137.480478"/>
      </g>
     </g>
     <g id="text_10">
      <!-- 20 -->
      <g transform="translate(159.50235 140.117136)scale(0.0694 -0.0694)">
       <use xlink:href="#DejaVuSans-32"/>
       <use x="63.623047" xlink:href="#DejaVuSans-30"/>
      </g>
     </g>
    </g>
    <g id="ytick_3">
     <g id="line2d_21">
      <path clip-path="url(#pff81e278c7)" d="M 175.3335 108.3739 
L 447.48 108.3739 
" style="fill:none;stroke:#b0b0b0;stroke-dasharray:1.85,0.8;stroke-dashoffset:0;stroke-width:0.5;"/>
     </g>
     <g id="line2d_22">
      <g>
       <use style="stroke:#000000;stroke-width:0.8;" x="175.3335" xlink:href="#me67b981da4" y="108.3739"/>
      </g>
     </g>
     <g id="text_11">
      <!-- 40 -->
      <defs>
       <path d="M 37.796875 64.3125 
L 12.890625 25.390625 
L 37.796875 25.390625 
z
M 35.203125 72.90625 
L 47.609375 72.90625 
L 47.609375 25.390625 
L 58.015625 25.390625 
L 58.015625 17.1875 
L 47.609375 17.1875 
L 47.609375 0 
L 37.796875 0 
L 37.796875 17.1875 
L 4.890625 17.1875 
L 4.890625 26.703125 
z
" id="DejaVuSans-34"/>
      </defs>
      <g transform="translate(159.50235 111.010558)scale(0.0694 -0.0694)">
       <use xlink:href="#DejaVuSans-34"/>
       <use x="63.623047" xlink:href="#DejaVuSans-30"/>
      </g>
     </g>
    </g>
    <g id="ytick_4">
     <g id="line2d_23">
      <path clip-path="url(#pff81e278c7)" d="M 175.3335 79.267323 
L 447.48 79.267323 
" style="fill:none;stroke:#b0b0b0;stroke-dasharray:1.85,0.8;stroke-dashoffset:0;stroke-width:0.5;"/>
     </g>
     <g id="line2d_24">
      <g>
       <use style="stroke:#000000;stroke-width:0.8;" x="175.3335" xlink:href="#me67b981da4" y="79.267323"/>
      </g>
     </g>
     <g id="text_12">
      <!-- 60 -->
      <defs>
       <path d="M 33.015625 40.375 
Q 26.375 40.375 22.484375 35.828125 
Q 18.609375 31.296875 18.609375 23.390625 
Q 18.609375 15.53125 22.484375 10.953125 
Q 26.375 6.390625 33.015625 6.390625 
Q 39.65625 6.390625 43.53125 10.953125 
Q 47.40625 15.53125 47.40625 23.390625 
Q 47.40625 31.296875 43.53125 35.828125 
Q 39.65625 40.375 33.015625 40.375 
z
M 52.59375 71.296875 
L 52.59375 62.3125 
Q 48.875 64.0625 45.09375 64.984375 
Q 41.3125 65.921875 37.59375 65.921875 
Q 27.828125 65.921875 22.671875 59.328125 
Q 17.53125 52.734375 16.796875 39.40625 
Q 19.671875 43.65625 24.015625 45.921875 
Q 28.375 48.1875 33.59375 48.1875 
Q 44.578125 48.1875 50.953125 41.515625 
Q 57.328125 34.859375 57.328125 23.390625 
Q 57.328125 12.15625 50.6875 5.359375 
Q 44.046875 -1.421875 33.015625 -1.421875 
Q 20.359375 -1.421875 13.671875 8.265625 
Q 6.984375 17.96875 6.984375 36.375 
Q 6.984375 53.65625 15.1875 63.9375 
Q 23.390625 74.21875 37.203125 74.21875 
Q 40.921875 74.21875 44.703125 73.484375 
Q 48.484375 72.75 52.59375 71.296875 
z
" id="DejaVuSans-36"/>
      </defs>
      <g transform="translate(159.50235 81.903981)scale(0.0694 -0.0694)">
       <use xlink:href="#DejaVuSans-36"/>
       <use x="63.623047" xlink:href="#DejaVuSans-30"/>
      </g>
     </g>
    </g>
    <g id="ytick_5">
     <g id="line2d_25">
      <path clip-path="url(#pff81e278c7)" d="M 175.3335 50.160745 
L 447.48 50.160745 
" style="fill:none;stroke:#b0b0b0;stroke-dasharray:1.85,0.8;stroke-dashoffset:0;stroke-width:0.5;"/>
     </g>
     <g id="line2d_26">
      <g>
       <use style="stroke:#000000;stroke-width:0.8;" x="175.3335" xlink:href="#me67b981da4" y="50.160745"/>
      </g>
     </g>
     <g id="text_13">
      <!-- 80 -->
      <defs>
       <path d="M 31.78125 34.625 
Q 24.75 34.625 20.71875 30.859375 
Q 16.703125 27.09375 16.703125 20.515625 
Q 16.703125 13.921875 20.71875 10.15625 
Q 24.75 6.390625 31.78125 6.390625 
Q 38.8125 6.390625 42.859375 10.171875 
Q 46.921875 13.96875 46.921875 20.515625 
Q 46.921875 27.09375 42.890625 30.859375 
Q 38.875 34.625 31.78125 34.625 
z
M 21.921875 38.8125 
Q 15.578125 40.375 12.03125 44.71875 
Q 8.5 49.078125 8.5 55.328125 
Q 8.5 64.0625 14.71875 69.140625 
Q 20.953125 74.21875 31.78125 74.21875 
Q 42.671875 74.21875 48.875 69.140625 
Q 55.078125 64.0625 55.078125 55.328125 
Q 55.078125 49.078125 51.53125 44.71875 
Q 48 40.375 41.703125 38.8125 
Q 48.828125 37.15625 52.796875 32.3125 
Q 56.78125 27.484375 56.78125 20.515625 
Q 56.78125 9.90625 50.3125 4.234375 
Q 43.84375 -1.421875 31.78125 -1.421875 
Q 19.734375 -1.421875 13.25 4.234375 
Q 6.78125 9.90625 6.78125 20.515625 
Q 6.78125 27.484375 10.78125 32.3125 
Q 14.796875 37.15625 21.921875 38.8125 
z
M 18.3125 54.390625 
Q 18.3125 48.734375 21.84375 45.5625 
Q 25.390625 42.390625 31.78125 42.390625 
Q 38.140625 42.390625 41.71875 45.5625 
Q 45.3125 48.734375 45.3125 54.390625 
Q 45.3125 60.0625 41.71875 63.234375 
Q 38.140625 66.40625 31.78125 66.40625 
Q 25.390625 66.40625 21.84375 63.234375 
Q 18.3125 60.0625 18.3125 54.390625 
z
" id="DejaVuSans-38"/>
      </defs>
      <g transform="translate(159.50235 52.797403)scale(0.0694 -0.0694)">
       <use xlink:href="#DejaVuSans-38"/>
       <use x="63.623047" xlink:href="#DejaVuSans-30"/>
      </g>
     </g>
    </g>
    <g id="ytick_6">
     <g id="line2d_27">
      <path clip-path="url(#pff81e278c7)" d="M 175.3335 21.054168 
L 447.48 21.054168 
" style="fill:none;stroke:#b0b0b0;stroke-dasharray:1.85,0.8;stroke-dashoffset:0;stroke-width:0.5;"/>
     </g>
     <g id="line2d_28">
      <g>
       <use style="stroke:#000000;stroke-width:0.8;" x="175.3335" xlink:href="#me67b981da4" y="21.054168"/>
      </g>
     </g>
     <g id="text_14">
      <!-- 100 -->
      <g transform="translate(155.086775 23.690826)scale(0.0694 -0.0694)">
       <use xlink:href="#DejaVuSans-31"/>
       <use x="63.623047" xlink:href="#DejaVuSans-30"/>
       <use x="127.246094" xlink:href="#DejaVuSans-30"/>
      </g>
     </g>
    </g>
   </g>
   <g id="line2d_29">
    <path clip-path="url(#pff81e278c7)" d="M 254.413161 79.267323 
L 257.698944 79.267323 
L 257.698944 86.640739 
L 257.647231 86.536708 
L 256.792247 84.740352 
L 255.968081 82.92965 
L 255.174975 81.105129 
L 254.413161 79.267323 
L 254.413161 79.267323 
" style="fill:none;stroke:#ff0000;stroke-dasharray:0.25,0.4125;stroke-dashoffset:0;stroke-width:0.25;"/>
   </g>
   <g id="line2d_30">
    <path clip-path="url(#pff81e278c7)" d="M 257.698944 79.267323 
L 260.984727 79.267323 
L 260.984727 92.883194 
L 260.394559 91.834471 
L 259.448651 90.084285 
L 258.532785 88.318192 
L 257.698944 86.640739 
L 257.698944 79.267323 
" style="fill:none;stroke:#ff0000;stroke-dasharray:0.25,0.4125;stroke-dashoffset:0;stroke-width:0.25;"/>
   </g>
   <g id="line2d_31">
    <path clip-path="url(#pff81e278c7)" d="M 260.984727 79.267323 
L 264.27051 79.267323 
L 264.27051 98.345799 
L 263.40974 96.984498 
L 262.375393 95.285081 
L 261.370235 93.568238 
L 260.984727 92.883194 
L 260.984727 79.267323 
" style="fill:none;stroke:#ff0000;stroke-dasharray:0.25,0.4125;stroke-dashoffset:0;stroke-width:0.25;"/>
   </g>
   <g id="line2d_32">
    <path clip-path="url(#pff81e278c7)" d="M 264.27051 79.267323 
L 267.556294 79.267323 
L 267.556294 103.206643 
L 266.684852 101.97326 
L 265.564784 100.329076 
L 264.472974 98.665994 
L 264.27051 98.345799 
L 264.27051 79.267323 
" style="fill:none;stroke:#ff0000;stroke-dasharray:0.25,0.4125;stroke-dashoffset:0;stroke-width:0.25;"/>
   </g>
   <g id="line2d_33">
    <path clip-path="url(#pff81e278c7)" d="M 267.556294 79.267323 
L 270.842077 79.267323 
L 270.842077 107.589806 
L 270.211291 106.787647 
L 269.008445 105.203017 
L 267.832851 103.598065 
L 267.556294 103.206643 
L 267.556294 79.267323 
" style="fill:none;stroke:#ff0000;stroke-dasharray:0.25,0.4125;stroke-dashoffset:0;stroke-width:0.25;"/>
   </g>
   <g id="line2d_34">
    <path clip-path="url(#pff81e278c7)" d="M 270.842077 79.267323 
L 274.12786 79.267323 
L 274.12786 111.584644 
L 273.979791 111.415013 
L 272.697327 109.894099 
L 271.441038 108.351494 
L 270.842077 107.589806 
L 270.842077 79.267323 
" style="fill:none;stroke:#ff0000;stroke-dasharray:0.25,0.4125;stroke-dashoffset:0;stroke-width:0.25;"/>
   </g>
   <g id="line2d_35">
    <path clip-path="url(#pff81e278c7)" d="M 274.12786 79.267323 
L 275.023528 79.267323 
L 277.413644 80.462381 
L 277.413644 115.236973 
L 276.621739 114.389996 
L 275.288056 112.913791 
L 274.12786 111.584644 
L 274.12786 79.267323 
" style="fill:none;stroke:#ff0000;stroke-dasharray:0.25,0.4125;stroke-dashoffset:0;stroke-width:0.25;"/>
   </g>
   <g id="line2d_36">
    <path clip-path="url(#pff81e278c7)" d="M 277.413644 80.462381 
L 280.699427 82.105272 
L 280.699427 118.607039 
L 279.363796 117.27297 
L 277.980451 115.843197 
L 277.413644 115.236973 
L 277.413644 80.462381 
" style="fill:none;stroke:#ff0000;stroke-dasharray:0.25,0.4125;stroke-dashoffset:0;stroke-width:0.25;"/>
   </g>
   <g id="line2d_37">
    <path clip-path="url(#pff81e278c7)" d="M 280.699427 82.105272 
L 283.98521 83.748164 
L 283.98521 121.712908 
L 283.65755 121.417578 
L 282.20276 120.060567 
L 280.771369 118.678897 
L 280.699427 118.607039 
L 280.699427 82.105272 
" style="fill:none;stroke:#ff0000;stroke-dasharray:0.25,0.4125;stroke-dashoffset:0;stroke-width:0.25;"/>
   </g>
   <g id="line2d_38">
    <path clip-path="url(#pff81e278c7)" d="M 283.98521 83.748164 
L 287.270994 85.391056 
L 287.270994 124.590527 
L 286.635624 124.056042 
L 285.135315 122.749532 
L 283.98521 121.712908 
L 283.98521 83.748164 
" style="fill:none;stroke:#ff0000;stroke-dasharray:0.25,0.4125;stroke-dashoffset:0;stroke-width:0.25;"/>
   </g>
   <g id="line2d_39">
    <path clip-path="url(#pff81e278c7)" d="M 287.270994 85.391056 
L 290.556777 87.033947 
L 290.556777 127.261665 
L 289.702112 126.591208 
L 288.158038 125.336725 
L 287.270994 124.590527 
L 287.270994 85.391056 
" style="fill:none;stroke:#ff0000;stroke-dasharray:0.25,0.4125;stroke-dashoffset:0;stroke-width:0.25;"/>
   </g>
   <g id="line2d_40">
    <path clip-path="url(#pff81e278c7)" d="M 290.556777 87.033947 
L 293.84256 88.676839 
L 293.84256 129.742852 
L 292.853434 129.020114 
L 291.267396 127.819123 
L 290.556777 127.261665 
L 290.556777 87.033947 
" style="fill:none;stroke:#ff0000;stroke-dasharray:0.25,0.4125;stroke-dashoffset:0;stroke-width:0.25;"/>
   </g>
   <g id="line2d_41">
    <path clip-path="url(#pff81e278c7)" d="M 293.84256 88.676839 
L 297.128344 90.319731 
L 297.128344 132.048279 
L 296.085908 131.339925 
L 294.459761 130.193829 
L 293.84256 129.742852 
L 293.84256 88.676839 
" style="fill:none;stroke:#ff0000;stroke-dasharray:0.25,0.4125;stroke-dashoffset:0;stroke-width:0.25;"/>
   </g>
   <g id="line2d_42">
    <path clip-path="url(#pff81e278c7)" d="M 297.128344 90.319731 
L 300.414127 91.962622 
L 300.414127 134.190192 
L 299.395761 133.547931 
L 297.731402 132.458068 
L 297.128344 132.048279 
L 297.128344 90.319731 
" style="fill:none;stroke:#ff0000;stroke-dasharray:0.25,0.4125;stroke-dashoffset:0;stroke-width:0.25;"/>
   </g>
   <g id="line2d_43">
    <path clip-path="url(#pff81e278c7)" d="M 300.414127 91.962622 
L 303.69991 93.605514 
L 303.69991 136.179199 
L 302.779126 135.641554 
L 301.078499 134.609197 
L 300.414127 134.190192 
L 300.414127 91.962622 
" style="fill:none;stroke:#ff0000;stroke-dasharray:0.25,0.4125;stroke-dashoffset:0;stroke-width:0.25;"/>
   </g>
   <g id="line2d_44">
    <path clip-path="url(#pff81e278c7)" d="M 303.69991 93.605514 
L 306.985694 95.248406 
L 306.985694 138.024523 
L 306.232052 137.618348 
L 304.497144 136.644702 
L 303.69991 136.179199 
L 303.69991 93.605514 
" style="fill:none;stroke:#ff0000;stroke-dasharray:0.25,0.4125;stroke-dashoffset:0;stroke-width:0.25;"/>
   </g>
   <g id="line2d_45">
    <path clip-path="url(#pff81e278c7)" d="M 306.985694 95.248406 
L 310.271477 96.891297 
L 310.271477 139.734213 
L 309.750507 139.476005 
L 307.983344 138.562207 
L 306.985694 138.024523 
L 306.985694 95.248406 
" style="fill:none;stroke:#ff0000;stroke-dasharray:0.25,0.4125;stroke-dashoffset:0;stroke-width:0.25;"/>
   </g>
   <g id="line2d_46">
    <path clip-path="url(#pff81e278c7)" d="M 310.271477 96.891297 
L 313.55726 98.534189 
L 313.55726 141.315302 
L 313.330382 141.212355 
L 311.533027 140.359473 
L 310.271477 139.734213 
L 310.271477 96.891297 
" style="fill:none;stroke:#ff0000;stroke-dasharray:0.25,0.4125;stroke-dashoffset:0;stroke-width:0.25;"/>
   </g>
   <g id="line2d_47">
    <path clip-path="url(#pff81e278c7)" d="M 313.55726 98.534189 
L 316.843044 100.177081 
L 316.843044 142.771446 
L 315.142048 142.034401 
L 313.55726 141.315302 
L 313.55726 98.534189 
" style="fill:none;stroke:#ff0000;stroke-dasharray:0.25,0.4125;stroke-dashoffset:0;stroke-width:0.25;"/>
   </g>
   <g id="line2d_48">
    <path clip-path="url(#pff81e278c7)" d="M 316.843044 100.177081 
L 320.128827 101.819972 
L 320.128827 144.105209 
L 318.806192 143.585034 
L 316.967496 142.825371 
L 316.843044 142.771446 
L 316.843044 100.177081 
" style="fill:none;stroke:#ff0000;stroke-dasharray:0.25,0.4125;stroke-dashoffset:0;stroke-width:0.25;"/>
   </g>
   <g id="line2d_49">
    <path clip-path="url(#pff81e278c7)" d="M 320.128827 101.819972 
L 323.41461 103.462864 
L 323.41461 145.326134 
L 322.52118 145.009562 
L 320.6576 144.313169 
L 320.128827 144.105209 
L 320.128827 101.819972 
" style="fill:none;stroke:#ff0000;stroke-dasharray:0.25,0.4125;stroke-dashoffset:0;stroke-width:0.25;"/>
   </g>
   <g id="line2d_50">
    <path clip-path="url(#pff81e278c7)" d="M 323.41461 103.462864 
L 326.700394 105.105756 
L 326.700394 146.438451 
L 326.282673 146.30632 
L 324.396387 145.67401 
L 323.41461 145.326134 
L 323.41461 103.462864 
" style="fill:none;stroke:#ff0000;stroke-dasharray:0.25,0.4125;stroke-dashoffset:0;stroke-width:0.25;"/>
   </g>
   <g id="line2d_51">
    <path clip-path="url(#pff81e278c7)" d="M 326.700394 105.105756 
L 329.986177 106.748647 
L 329.986177 147.444004 
L 328.179489 146.906307 
L 326.700394 146.438451 
L 326.700394 105.105756 
" style="fill:none;stroke:#ff0000;stroke-dasharray:0.25,0.4125;stroke-dashoffset:0;stroke-width:0.25;"/>
   </g>
   <g id="line2d_52">
    <path clip-path="url(#pff81e278c7)" d="M 329.986177 106.748647 
L 333.27196 108.391539 
L 333.27196 148.339663 
L 332.002488 148.00862 
L 330.086279 147.473795 
L 329.986177 147.444004 
L 329.986177 106.748647 
" style="fill:none;stroke:#ff0000;stroke-dasharray:0.25,0.4125;stroke-dashoffset:0;stroke-width:0.25;"/>
   </g>
   <g id="line2d_53">
    <path clip-path="url(#pff81e278c7)" d="M 333.27196 108.391539 
L 336.557744 110.034431 
L 336.557744 149.136154 
L 335.860919 148.979661 
L 333.927555 148.510624 
L 333.27196 148.339663 
L 333.27196 108.391539 
" style="fill:none;stroke:#ff0000;stroke-dasharray:0.25,0.4125;stroke-dashoffset:0;stroke-width:0.25;"/>
   </g>
   <g id="line2d_54">
    <path clip-path="url(#pff81e278c7)" d="M 336.557744 110.034431 
L 339.843527 111.677322 
L 339.843527 149.835915 
L 339.750277 149.818296 
L 337.802016 149.415594 
L 336.557744 149.136154 
L 336.557744 110.034431 
" style="fill:none;stroke:#ff0000;stroke-dasharray:0.25,0.4125;stroke-dashoffset:0;stroke-width:0.25;"/>
   </g>
   <g id="line2d_55">
    <path clip-path="url(#pff81e278c7)" d="M 339.843527 111.677322 
L 343.12931 113.320214 
L 343.12931 150.431609 
L 341.705136 150.18765 
L 339.843527 149.835915 
L 339.843527 111.677322 
" style="fill:none;stroke:#ff0000;stroke-dasharray:0.25,0.4125;stroke-dashoffset:0;stroke-width:0.25;"/>
   </g>
   <g id="line2d_56">
    <path clip-path="url(#pff81e278c7)" d="M 343.12931 113.320214 
L 346.415094 114.963106 
L 346.415094 150.932585 
L 345.632357 150.825889 
L 343.66602 150.523547 
L 343.12931 150.431609 
L 343.12931 113.320214 
" style="fill:none;stroke:#ff0000;stroke-dasharray:0.25,0.4125;stroke-dashoffset:0;stroke-width:0.25;"/>
   </g>
   <g id="line2d_57">
    <path clip-path="url(#pff81e278c7)" d="M 346.415094 114.963106 
L 349.700877 116.605997 
L 349.700877 151.341946 
L 349.579093 151.329567 
L 347.603573 151.094589 
L 346.415094 150.932585 
L 346.415094 114.963106 
" style="fill:none;stroke:#ff0000;stroke-dasharray:0.25,0.4125;stroke-dashoffset:0;stroke-width:0.25;"/>
   </g>
   <g id="line2d_58">
    <path clip-path="url(#pff81e278c7)" d="M 349.700877 116.605997 
L 352.98666 118.248889 
L 352.98666 151.651324 
L 351.558339 151.530755 
L 349.700877 151.341946 
L 349.700877 116.605997 
" style="fill:none;stroke:#ff0000;stroke-dasharray:0.25,0.4125;stroke-dashoffset:0;stroke-width:0.25;"/>
   </g>
   <g id="line2d_59">
    <path clip-path="url(#pff81e278c7)" d="M 352.98666 118.248889 
L 356.272444 119.891781 
L 356.272444 151.868933 
L 355.525699 151.831537 
L 353.540734 151.698095 
L 352.98666 151.651324 
L 352.98666 118.248889 
" style="fill:none;stroke:#ff0000;stroke-dasharray:0.25,0.4125;stroke-dashoffset:0;stroke-width:0.25;"/>
   </g>
   <g id="line2d_60">
    <path clip-path="url(#pff81e278c7)" d="M 356.272444 119.891781 
L 359.558227 121.534672 
L 359.558227 151.997489 
L 359.50102 151.996582 
L 357.512654 151.931042 
L 356.272444 151.868933 
L 356.272444 119.891781 
" style="fill:none;stroke:#ff0000;stroke-dasharray:0.25,0.4125;stroke-dashoffset:0;stroke-width:0.25;"/>
   </g>
   <g id="line2d_61">
    <path clip-path="url(#pff81e278c7)" d="M 359.558227 121.534672 
L 362.84401 123.177564 
L 362.84401 152.026478 
L 361.490215 152.028137 
L 359.558227 151.997489 
L 359.558227 121.534672 
" style="fill:none;stroke:#ff0000;stroke-dasharray:0.25,0.4125;stroke-dashoffset:0;stroke-width:0.25;"/>
   </g>
   <g id="line2d_62">
    <path clip-path="url(#pff81e278c7)" d="M 362.84401 123.177564 
L 366.129794 124.820456 
L 366.129794 151.965855 
L 365.46877 151.989266 
L 363.479658 152.025698 
L 362.84401 152.026478 
L 362.84401 123.177564 
" style="fill:none;stroke:#ff0000;stroke-dasharray:0.25,0.4125;stroke-dashoffset:0;stroke-width:0.25;"/>
   </g>
   <g id="line2d_63">
    <path clip-path="url(#pff81e278c7)" d="M 366.129794 124.820456 
L 369.415577 126.463347 
L 369.415577 151.815952 
L 367.456969 151.918852 
L 366.129794 151.965855 
L 366.129794 124.820456 
" style="fill:none;stroke:#ff0000;stroke-dasharray:0.25,0.4125;stroke-dashoffset:0;stroke-width:0.25;"/>
   </g>
   <g id="line2d_64">
    <path clip-path="url(#pff81e278c7)" d="M 369.415577 126.463347 
L 372.70136 128.106239 
L 372.70136 151.565561 
L 371.428306 151.676167 
L 369.443674 151.814475 
L 369.415577 151.815952 
L 369.415577 126.463347 
" style="fill:none;stroke:#ff0000;stroke-dasharray:0.25,0.4125;stroke-dashoffset:0;stroke-width:0.25;"/>
   </g>
   <g id="line2d_65">
    <path clip-path="url(#pff81e278c7)" d="M 372.70136 128.106239 
L 375.987144 129.749131 
L 375.987144 151.225298 
L 375.389032 151.297928 
L 373.410285 151.503968 
L 372.70136 151.565561 
L 372.70136 128.106239 
" style="fill:none;stroke:#ff0000;stroke-dasharray:0.25,0.4125;stroke-dashoffset:0;stroke-width:0.25;"/>
   </g>
   <g id="line2d_66">
    <path clip-path="url(#pff81e278c7)" d="M 375.987144 129.749131 
L 379.272927 131.392022 
L 379.272927 150.793126 
L 377.36397 151.058107 
L 375.987144 151.225298 
L 375.987144 129.749131 
" style="fill:none;stroke:#ff0000;stroke-dasharray:0.25,0.4125;stroke-dashoffset:0;stroke-width:0.25;"/>
   </g>
   <g id="line2d_67">
    <path clip-path="url(#pff81e278c7)" d="M 379.272927 131.392022 
L 382.55871 133.034914 
L 382.55871 150.25864 
L 381.300111 150.477414 
L 379.334521 150.784576 
L 379.272927 150.793126 
L 379.272927 131.392022 
" style="fill:none;stroke:#ff0000;stroke-dasharray:0.25,0.4125;stroke-dashoffset:0;stroke-width:0.25;"/>
   </g>
   <g id="line2d_68">
    <path clip-path="url(#pff81e278c7)" d="M 382.55871 133.034914 
L 385.844494 134.677806 
L 385.844494 149.630654 
L 385.214113 149.762565 
L 383.260166 150.13671 
L 382.55871 150.25864 
L 382.55871 133.034914 
" style="fill:none;stroke:#ff0000;stroke-dasharray:0.25,0.4125;stroke-dashoffset:0;stroke-width:0.25;"/>
   </g>
   <g id="line2d_69">
    <path clip-path="url(#pff81e278c7)" d="M 385.844494 134.677806 
L 389.130277 136.320697 
L 389.130277 148.907317 
L 389.101403 148.914397 
L 387.161381 149.355088 
L 385.844494 149.630654 
L 385.844494 134.677806 
" style="fill:none;stroke:#ff0000;stroke-dasharray:0.25,0.4125;stroke-dashoffset:0;stroke-width:0.25;"/>
   </g>
   <g id="line2d_70">
    <path clip-path="url(#pff81e278c7)" d="M 389.130277 136.320697 
L 391.449838 137.480478 
L 392.41606 137.480478 
L 392.41606 148.076495 
L 391.033611 148.440621 
L 389.130277 148.907317 
L 389.130277 136.320697 
" style="fill:none;stroke:#ff0000;stroke-dasharray:0.25,0.4125;stroke-dashoffset:0;stroke-width:0.25;"/>
   </g>
   <g id="line2d_71">
    <path clip-path="url(#pff81e278c7)" d="M 392.41606 137.480478 
L 395.701844 137.480478 
L 395.701844 147.145289 
L 394.872334 147.394378 
L 392.957442 147.933899 
L 392.41606 148.076495 
L 392.41606 137.480478 
" style="fill:none;stroke:#ff0000;stroke-dasharray:0.25,0.4125;stroke-dashoffset:0;stroke-width:0.25;"/>
   </g>
   <g id="line2d_72">
    <path clip-path="url(#pff81e278c7)" d="M 395.701844 137.480478 
L 398.987627 137.480478 
L 398.987627 146.111278 
L 398.673066 146.217582 
L 396.777727 146.822217 
L 395.701844 147.145289 
L 395.701844 137.480478 
" style="fill:none;stroke:#ff0000;stroke-dasharray:0.25,0.4125;stroke-dashoffset:0;stroke-width:0.25;"/>
   </g>
   <g id="line2d_73">
    <path clip-path="url(#pff81e278c7)" d="M 398.987627 137.480478 
L 402.27341 137.480478 
L 402.27341 144.968011 
L 400.557797 145.580649 
L 398.987627 146.111278 
L 398.987627 137.480478 
" style="fill:none;stroke:#ff0000;stroke-dasharray:0.25,0.4125;stroke-dashoffset:0;stroke-width:0.25;"/>
   </g>
   <g id="line2d_74">
    <path clip-path="url(#pff81e278c7)" d="M 402.27341 137.480478 
L 405.559193 137.480478 
L 405.559193 143.709173 
L 404.293236 144.210645 
L 402.431369 144.911605 
L 402.27341 144.968011 
L 402.27341 137.480478 
" style="fill:none;stroke:#ff0000;stroke-dasharray:0.25,0.4125;stroke-dashoffset:0;stroke-width:0.25;"/>
   </g>
   <g id="line2d_75">
    <path clip-path="url(#pff81e278c7)" d="M 405.559193 137.480478 
L 408.844977 137.480478 
L 408.844977 142.336349 
L 407.979682 142.713805 
L 406.142853 143.477974 
L 405.559193 143.709173 
L 405.559193 137.480478 
" style="fill:none;stroke:#ff0000;stroke-dasharray:0.25,0.4125;stroke-dashoffset:0;stroke-width:0.25;"/>
   </g>
   <g id="line2d_76">
    <path clip-path="url(#pff81e278c7)" d="M 408.844977 137.480478 
L 412.13076 137.480478 
L 412.13076 140.844551 
L 411.61283 141.091877 
L 409.803185 141.918362 
L 408.844977 142.336349 
L 408.844977 137.480478 
" style="fill:none;stroke:#ff0000;stroke-dasharray:0.25,0.4125;stroke-dashoffset:0;stroke-width:0.25;"/>
   </g>
   <g id="line2d_77">
    <path clip-path="url(#pff81e278c7)" d="M 412.13076 137.480478 
L 415.416543 137.480478 
L 415.416543 139.228092 
L 415.188437 139.346755 
L 413.408088 140.234591 
L 412.13076 140.844551 
L 412.13076 137.480478 
" style="fill:none;stroke:#ff0000;stroke-dasharray:0.25,0.4125;stroke-dashoffset:0;stroke-width:0.25;"/>
   </g>
   <g id="line2d_78">
    <path clip-path="url(#pff81e278c7)" d="M 415.416543 137.480478 
L 418.702327 137.480478 
L 418.702327 137.480478 
L 416.953355 138.428628 
L 415.416543 139.228092 
L 415.416543 137.480478 
" style="fill:none;stroke:#ff0000;stroke-dasharray:0.25,0.4125;stroke-dashoffset:0;stroke-width:0.25;"/>
   </g>
   <g id="line2d_79">
    <path clip-path="url(#pff81e278c7)" d="M 254.413161 79.267323 
L 255.174975 81.105129 
L 255.968081 82.92965 
L 256.792247 84.740352 
L 257.647231 86.536708 
L 258.532785 88.318192 
L 259.448651 90.084285 
L 260.394559 91.834471 
L 261.370235 93.568238 
L 262.375393 95.285081 
L 263.40974 96.984498 
L 264.472974 98.665994 
L 265.564784 100.329076 
L 266.684852 101.97326 
L 267.832851 103.598065 
L 269.008445 105.203017 
L 270.211291 106.787647 
L 271.441038 108.351494 
L 272.697327 109.894099 
L 273.979791 111.415013 
L 275.288056 112.913791 
L 276.621739 114.389996 
L 277.980451 115.843197 
L 279.363796 117.27297 
L 280.771369 118.678897 
L 282.20276 120.060567 
L 283.65755 121.417578 
L 285.135315 122.749532 
L 286.635624 124.056042 
L 288.158038 125.336725 
L 289.702112 126.591208 
L 291.267396 127.819123 
L 292.853434 129.020114 
L 294.459761 130.193829 
L 296.085908 131.339925 
L 297.731402 132.458068 
L 299.395761 133.547931 
L 301.078499 134.609197 
L 302.779126 135.641554 
L 304.497144 136.644702 
L 306.232052 137.618348 
L 307.983344 138.562207 
L 309.750507 139.476005 
L 311.533027 140.359473 
L 313.330382 141.212355 
L 315.142048 142.034401 
L 316.967496 142.825371 
L 318.806192 143.585034 
L 320.6576 144.313169 
L 322.52118 145.009562 
L 324.396387 145.67401 
L 326.282673 146.30632 
L 328.179489 146.906307 
L 330.086279 147.473795 
L 332.002488 148.00862 
L 333.927555 148.510624 
L 335.860919 148.979661 
L 337.802016 149.415594 
L 339.750277 149.818296 
L 341.705136 150.18765 
L 343.66602 150.523547 
L 345.632357 150.825889 
L 347.603573 151.094589 
L 349.579093 151.329567 
L 351.558339 151.530755 
L 353.540734 151.698095 
L 355.525699 151.831537 
L 357.512654 151.931042 
L 359.50102 151.996582 
L 361.490215 152.028137 
L 363.479658 152.025698 
L 365.46877 151.989266 
L 367.456969 151.918852 
L 369.443674 151.814475 
L 371.428306 151.676167 
L 373.410285 151.503968 
L 375.389032 151.297928 
L 377.36397 151.058107 
L 379.334521 150.784576 
L 381.300111 150.477414 
L 383.260166 150.13671 
L 385.214113 149.762565 
L 387.161381 149.355088 
L 389.101403 148.914397 
L 391.033611 148.440621 
L 392.957442 147.933899 
L 394.872334 147.394378 
L 396.777727 146.822217 
L 398.673066 146.217582 
L 400.557797 145.580649 
L 402.431369 144.911605 
L 404.293236 144.210645 
L 406.142853 143.477974 
L 407.979682 142.713805 
L 409.803185 141.918362 
L 411.61283 141.091877 
L 413.408088 140.234591 
L 415.188437 139.346755 
L 416.953355 138.428628 
L 418.702327 137.480478 
" style="fill:none;stroke:#ff0000;stroke-linecap:square;stroke-width:1.5;"/>
   </g>
   <g id="line2d_80">
    <defs>
     <path d="M 0 1.5 
C 0.397805 1.5 0.77937 1.341951 1.06066 1.06066 
C 1.341951 0.77937 1.5 0.397805 1.5 0 
C 1.5 -0.397805 1.341951 -0.77937 1.06066 -1.06066 
C 0.77937 -1.341951 0.397805 -1.5 0 -1.5 
C -0.397805 -1.5 -0.77937 -1.341951 -1.06066 -1.06066 
C -1.341951 -0.77937 -1.5 -0.397805 -1.5 0 
C -1.5 0.397805 -1.341951 0.77937 -1.06066 1.06066 
C -0.77937 1.341951 -0.397805 1.5 0 1.5 
z
" id="mbc10fa63df" style="stroke:#ff0000;"/>
    </defs>
    <g clip-path="url(#pff81e278c7)">
     <use style="fill:#ff0000;stroke:#ff0000;" x="362.342222" xlink:href="#mbc10fa63df" y="35.604944"/>
    </g>
   </g>
   <g id="line2d_81">
    <path clip-path="url(#pff81e278c7)" d="M 187.703795 166.587056 
L 187.703795 79.267323 
L 275.023528 79.267323 
L 391.449838 137.480478 
L 435.109705 137.480478 
L 435.109705 166.587056 
L 187.703795 166.587056 
" style="fill:none;stroke:#000000;stroke-linecap:square;stroke-width:1.5;"/>
   </g>
   <g id="line2d_82">
    <path clip-path="url(#pff81e278c7)" d="M 187.703795 108.3739 
L 187.703795 108.3739 
L 187.703795 108.3739 
L 187.703795 108.3739 
L 187.703795 108.3739 
L 187.703795 108.3739 
L 187.703795 108.3739 
L 187.703795 108.3739 
L 187.703795 108.3739 
L 187.703795 108.3739 
L 187.703795 108.3739 
L 187.703795 108.3739 
L 187.703795 108.3739 
L 187.703795 108.3739 
L 187.703795 108.3739 
L 187.703795 108.3739 
L 187.703795 108.3739 
L 187.703795 108.3739 
L 187.703795 108.3739 
L 187.703795 108.3739 
L 187.703795 108.3739 
L 187.703795 108.3739 
L 187.703795 108.3739 
L 187.703795 108.3739 
L 187.703795 108.3739 
L 391.449838 137.480478 
L 391.449838 137.480478 
L 391.449838 137.480478 
L 391.449838 137.480478 
L 391.449838 137.480478 
L 391.449838 137.480478 
L 391.449838 137.480478 
L 391.449838 137.480478 
L 391.449838 137.480478 
L 391.449838 137.480478 
L 391.449838 137.480478 
L 391.449838 137.480478 
L 391.449838 137.480478 
L 391.449838 137.480478 
L 391.449838 137.480478 
L 391.449838 137.480478 
L 391.449838 137.480478 
L 391.449838 137.480478 
L 391.449838 137.480478 
L 391.449838 137.480478 
L 391.449838 137.480478 
L 391.449838 137.480478 
L 391.449838 137.480478 
L 391.449838 137.480478 
L 391.449838 137.480478 
L 391.449838 137.480478 
L 435.109705 137.480478 
" style="fill:none;stroke:#00bfff;stroke-linecap:square;stroke-width:0.9;"/>
   </g>
   <g id="patch_3">
    <path d="M 175.3335 188.872 
L 175.3335 13.32 
" style="fill:none;stroke:#000000;stroke-linecap:square;stroke-linejoin:miter;stroke-width:0.8;"/>
   </g>
   <g id="patch_4">
    <path d="M 447.48 188.872 
L 447.48 13.32 
" style="fill:none;stroke:#000000;stroke-linecap:square;stroke-linejoin:miter;stroke-width:0.8;"/>
   </g>
   <g id="patch_5">
    <path d="M 175.3335 188.872 
L 447.48 188.872 
" style="fill:none;stroke:#000000;stroke-linecap:square;stroke-linejoin:miter;stroke-width:0.8;"/>
   </g>
   <g id="patch_6">
    <path d="M 175.3335 13.32 
L 447.48 13.32 
" style="fill:none;stroke:#000000;stroke-linecap:square;stroke-linejoin:miter;stroke-width:0.8;"/>
   </g>
  </g>
  <g id="axes_2">
   <g id="patch_7">
    <path d="M 49.718 188.872 
L 140.4335 188.872 
L 140.4335 13.32 
L 49.718 13.32 
z
" style="fill:#ffffff;"/>
   </g>
   <g id="matplotlib.axis_3">
    <g id="xtick_9">
     <g id="line2d_83">
      <path clip-path="url(#p5cbed2a885)" d="M 53.841432 188.872 
L 53.841432 13.32 
" style="fill:none;stroke:#b0b0b0;stroke-dasharray:1.85,0.8;stroke-dashoffset:0;stroke-width:0.5;"/>
     </g>
     <g id="line2d_84">
      <g>
       <use style="stroke:#000000;stroke-width:0.8;" x="53.841432" xlink:href="#ma957f06a9f" y="188.872"/>
      </g>
     </g>
     <g id="text_15">
      <!-- 0.0 -->
      <defs>
       <path d="M 10.6875 12.40625 
L 21 12.40625 
L 21 0 
L 10.6875 0 
z
" id="DejaVuSans-2e"/>
      </defs>
      <g transform="translate(48.323047 201.145316)scale(0.0694 -0.0694)">
       <use xlink:href="#DejaVuSans-30"/>
       <use x="63.623047" xlink:href="#DejaVuSans-2e"/>
       <use x="95.410156" xlink:href="#DejaVuSans-30"/>
      </g>
     </g>
    </g>
    <g id="xtick_10">
     <g id="line2d_85">
      <path clip-path="url(#p5cbed2a885)" d="M 81.330977 188.872 
L 81.330977 13.32 
" style="fill:none;stroke:#b0b0b0;stroke-dasharray:1.85,0.8;stroke-dashoffset:0;stroke-width:0.5;"/>
     </g>
     <g id="line2d_86">
      <g>
       <use style="stroke:#000000;stroke-width:0.8;" x="81.330977" xlink:href="#ma957f06a9f" y="188.872"/>
      </g>
     </g>
     <g id="text_16">
      <!-- 0.2 -->
      <g transform="translate(75.812593 201.145316)scale(0.0694 -0.0694)">
       <use xlink:href="#DejaVuSans-30"/>
       <use x="63.623047" xlink:href="#DejaVuSans-2e"/>
       <use x="95.410156" xlink:href="#DejaVuSans-32"/>
      </g>
     </g>
    </g>
    <g id="xtick_11">
     <g id="line2d_87">
      <path clip-path="url(#p5cbed2a885)" d="M 108.820523 188.872 
L 108.820523 13.32 
" style="fill:none;stroke:#b0b0b0;stroke-dasharray:1.85,0.8;stroke-dashoffset:0;stroke-width:0.5;"/>
     </g>
     <g id="line2d_88">
      <g>
       <use style="stroke:#000000;stroke-width:0.8;" x="108.820523" xlink:href="#ma957f06a9f" y="188.872"/>
      </g>
     </g>
     <g id="text_17">
      <!-- 0.4 -->
      <g transform="translate(103.302138 201.145316)scale(0.0694 -0.0694)">
       <use xlink:href="#DejaVuSans-30"/>
       <use x="63.623047" xlink:href="#DejaVuSans-2e"/>
       <use x="95.410156" xlink:href="#DejaVuSans-34"/>
      </g>
     </g>
    </g>
    <g id="xtick_12">
     <g id="line2d_89">
      <path clip-path="url(#p5cbed2a885)" d="M 136.310068 188.872 
L 136.310068 13.32 
" style="fill:none;stroke:#b0b0b0;stroke-dasharray:1.85,0.8;stroke-dashoffset:0;stroke-width:0.5;"/>
     </g>
     <g id="line2d_90">
      <g>
       <use style="stroke:#000000;stroke-width:0.8;" x="136.310068" xlink:href="#ma957f06a9f" y="188.872"/>
      </g>
     </g>
     <g id="text_18">
      <!-- 0.6 -->
      <g transform="translate(130.791684 201.145316)scale(0.0694 -0.0694)">
       <use xlink:href="#DejaVuSans-30"/>
       <use x="63.623047" xlink:href="#DejaVuSans-2e"/>
       <use x="95.410156" xlink:href="#DejaVuSans-36"/>
      </g>
     </g>
    </g>
    <g id="text_19">
     <!-- $\lambda_a$ -->
     <defs>
      <path d="M 36.71875 67.4375 
L 48.828125 0 
L 39.3125 0 
L 31.84375 40.4375 
L 5.125 0 
L -4.390625 0 
L 29.734375 52.4375 
L 28.03125 62.109375 
Q 26.953125 68.265625 21.734375 68.265625 
L 17.046875 68.265625 
L 18.5 75.984375 
L 24.21875 75.875 
Q 35.203125 75.734375 36.71875 67.4375 
z
" id="DejaVuSans-Oblique-3bb"/>
      <path d="M 53.71875 31.203125 
L 47.609375 0 
L 38.625 0 
L 40.28125 8.296875 
Q 36.328125 3.421875 31.265625 1 
Q 26.21875 -1.421875 20.015625 -1.421875 
Q 13.03125 -1.421875 8.5625 2.84375 
Q 4.109375 7.125 4.109375 13.8125 
Q 4.109375 23.390625 11.75 28.953125 
Q 19.390625 34.515625 32.8125 34.515625 
L 45.3125 34.515625 
L 45.796875 36.921875 
Q 45.90625 37.3125 45.953125 37.765625 
Q 46 38.234375 46 39.203125 
Q 46 43.5625 42.453125 45.96875 
Q 38.921875 48.390625 32.515625 48.390625 
Q 28.125 48.390625 23.5 47.265625 
Q 18.890625 46.140625 14.015625 43.890625 
L 15.578125 52.203125 
Q 20.65625 54.109375 25.515625 55.046875 
Q 30.375 56 34.90625 56 
Q 44.578125 56 49.625 51.796875 
Q 54.6875 47.609375 54.6875 39.59375 
Q 54.6875 37.984375 54.4375 35.8125 
Q 54.203125 33.640625 53.71875 31.203125 
z
M 44 27.484375 
L 35.015625 27.484375 
Q 23.96875 27.484375 18.671875 24.53125 
Q 13.375 21.578125 13.375 15.375 
Q 13.375 11.078125 16.078125 8.640625 
Q 18.796875 6.203125 23.578125 6.203125 
Q 30.90625 6.203125 36.375 11.453125 
Q 41.84375 16.703125 43.609375 25.484375 
z
" id="DejaVuSans-Oblique-61"/>
     </defs>
     <g transform="translate(89.82575 214.187056)scale(0.1 -0.1)">
      <use transform="translate(0 0.015625)" xlink:href="#DejaVuSans-Oblique-3bb"/>
      <use transform="translate(59.179688 -16.390625)scale(0.7)" xlink:href="#DejaVuSans-Oblique-61"/>
     </g>
    </g>
   </g>
   <g id="matplotlib.axis_4">
    <g id="ytick_7">
     <g id="line2d_91">
      <path clip-path="url(#p5cbed2a885)" d="M 49.718 189.167675 
L 140.4335 189.167675 
" style="fill:none;stroke:#b0b0b0;stroke-dasharray:1.85,0.8;stroke-dashoffset:0;stroke-width:0.5;"/>
     </g>
     <g id="line2d_92">
      <g>
       <use style="stroke:#000000;stroke-width:0.8;" x="49.718" xlink:href="#me67b981da4" y="189.167675"/>
      </g>
     </g>
     <g id="text_20">
      <!-- 1.65 -->
      <g transform="translate(27.265656 191.804333)scale(0.0694 -0.0694)">
       <use xlink:href="#DejaVuSans-31"/>
       <use x="63.623047" xlink:href="#DejaVuSans-2e"/>
       <use x="95.410156" xlink:href="#DejaVuSans-36"/>
       <use x="159.033203" xlink:href="#DejaVuSans-35"/>
      </g>
     </g>
    </g>
    <g id="ytick_8">
     <g id="line2d_93">
      <path clip-path="url(#p5cbed2a885)" d="M 49.718 165.166508 
L 140.4335 165.166508 
" style="fill:none;stroke:#b0b0b0;stroke-dasharray:1.85,0.8;stroke-dashoffset:0;stroke-width:0.5;"/>
     </g>
     <g id="line2d_94">
      <g>
       <use style="stroke:#000000;stroke-width:0.8;" x="49.718" xlink:href="#me67b981da4" y="165.166508"/>
      </g>
     </g>
     <g id="text_21">
      <!-- 1.70 -->
      <g transform="translate(27.265656 167.803166)scale(0.0694 -0.0694)">
       <use xlink:href="#DejaVuSans-31"/>
       <use x="63.623047" xlink:href="#DejaVuSans-2e"/>
       <use x="95.410156" xlink:href="#DejaVuSans-37"/>
       <use x="159.033203" xlink:href="#DejaVuSans-30"/>
      </g>
     </g>
    </g>
    <g id="ytick_9">
     <g id="line2d_95">
      <path clip-path="url(#p5cbed2a885)" d="M 49.718 141.165341 
L 140.4335 141.165341 
" style="fill:none;stroke:#b0b0b0;stroke-dasharray:1.85,0.8;stroke-dashoffset:0;stroke-width:0.5;"/>
     </g>
     <g id="line2d_96">
      <g>
       <use style="stroke:#000000;stroke-width:0.8;" x="49.718" xlink:href="#me67b981da4" y="141.165341"/>
      </g>
     </g>
     <g id="text_22">
      <!-- 1.75 -->
      <g transform="translate(27.265656 143.801999)scale(0.0694 -0.0694)">
       <use xlink:href="#DejaVuSans-31"/>
       <use x="63.623047" xlink:href="#DejaVuSans-2e"/>
       <use x="95.410156" xlink:href="#DejaVuSans-37"/>
       <use x="159.033203" xlink:href="#DejaVuSans-35"/>
      </g>
     </g>
    </g>
    <g id="ytick_10">
     <g id="line2d_97">
      <path clip-path="url(#p5cbed2a885)" d="M 49.718 117.164174 
L 140.4335 117.164174 
" style="fill:none;stroke:#b0b0b0;stroke-dasharray:1.85,0.8;stroke-dashoffset:0;stroke-width:0.5;"/>
     </g>
     <g id="line2d_98">
      <g>
       <use style="stroke:#000000;stroke-width:0.8;" x="49.718" xlink:href="#me67b981da4" y="117.164174"/>
      </g>
     </g>
     <g id="text_23">
      <!-- 1.80 -->
      <g transform="translate(27.265656 119.800831)scale(0.0694 -0.0694)">
       <use xlink:href="#DejaVuSans-31"/>
       <use x="63.623047" xlink:href="#DejaVuSans-2e"/>
       <use x="95.410156" xlink:href="#DejaVuSans-38"/>
       <use x="159.033203" xlink:href="#DejaVuSans-30"/>
      </g>
     </g>
    </g>
    <g id="ytick_11">
     <g id="line2d_99">
      <path clip-path="url(#p5cbed2a885)" d="M 49.718 93.163007 
L 140.4335 93.163007 
" style="fill:none;stroke:#b0b0b0;stroke-dasharray:1.85,0.8;stroke-dashoffset:0;stroke-width:0.5;"/>
     </g>
     <g id="line2d_100">
      <g>
       <use style="stroke:#000000;stroke-width:0.8;" x="49.718" xlink:href="#me67b981da4" y="93.163007"/>
      </g>
     </g>
     <g id="text_24">
      <!-- 1.85 -->
      <g transform="translate(27.265656 95.799664)scale(0.0694 -0.0694)">
       <use xlink:href="#DejaVuSans-31"/>
       <use x="63.623047" xlink:href="#DejaVuSans-2e"/>
       <use x="95.410156" xlink:href="#DejaVuSans-38"/>
       <use x="159.033203" xlink:href="#DejaVuSans-35"/>
      </g>
     </g>
    </g>
    <g id="ytick_12">
     <g id="line2d_101">
      <path clip-path="url(#p5cbed2a885)" d="M 49.718 69.161839 
L 140.4335 69.161839 
" style="fill:none;stroke:#b0b0b0;stroke-dasharray:1.85,0.8;stroke-dashoffset:0;stroke-width:0.5;"/>
     </g>
     <g id="line2d_102">
      <g>
       <use style="stroke:#000000;stroke-width:0.8;" x="49.718" xlink:href="#me67b981da4" y="69.161839"/>
      </g>
     </g>
     <g id="text_25">
      <!-- 1.90 -->
      <defs>
       <path d="M 10.984375 1.515625 
L 10.984375 10.5 
Q 14.703125 8.734375 18.5 7.8125 
Q 22.3125 6.890625 25.984375 6.890625 
Q 35.75 6.890625 40.890625 13.453125 
Q 46.046875 20.015625 46.78125 33.40625 
Q 43.953125 29.203125 39.59375 26.953125 
Q 35.25 24.703125 29.984375 24.703125 
Q 19.046875 24.703125 12.671875 31.3125 
Q 6.296875 37.9375 6.296875 49.421875 
Q 6.296875 60.640625 12.9375 67.421875 
Q 19.578125 74.21875 30.609375 74.21875 
Q 43.265625 74.21875 49.921875 64.515625 
Q 56.59375 54.828125 56.59375 36.375 
Q 56.59375 19.140625 48.40625 8.859375 
Q 40.234375 -1.421875 26.421875 -1.421875 
Q 22.703125 -1.421875 18.890625 -0.6875 
Q 15.09375 0.046875 10.984375 1.515625 
z
M 30.609375 32.421875 
Q 37.25 32.421875 41.125 36.953125 
Q 45.015625 41.5 45.015625 49.421875 
Q 45.015625 57.28125 41.125 61.84375 
Q 37.25 66.40625 30.609375 66.40625 
Q 23.96875 66.40625 20.09375 61.84375 
Q 16.21875 57.28125 16.21875 49.421875 
Q 16.21875 41.5 20.09375 36.953125 
Q 23.96875 32.421875 30.609375 32.421875 
z
" id="DejaVuSans-39"/>
      </defs>
      <g transform="translate(27.265656 71.798497)scale(0.0694 -0.0694)">
       <use xlink:href="#DejaVuSans-31"/>
       <use x="63.623047" xlink:href="#DejaVuSans-2e"/>
       <use x="95.410156" xlink:href="#DejaVuSans-39"/>
       <use x="159.033203" xlink:href="#DejaVuSans-30"/>
      </g>
     </g>
    </g>
    <g id="ytick_13">
     <g id="line2d_103">
      <path clip-path="url(#p5cbed2a885)" d="M 49.718 45.160672 
L 140.4335 45.160672 
" style="fill:none;stroke:#b0b0b0;stroke-dasharray:1.85,0.8;stroke-dashoffset:0;stroke-width:0.5;"/>
     </g>
     <g id="line2d_104">
      <g>
       <use style="stroke:#000000;stroke-width:0.8;" x="49.718" xlink:href="#me67b981da4" y="45.160672"/>
      </g>
     </g>
     <g id="text_26">
      <!-- 1.95 -->
      <g transform="translate(27.265656 47.79733)scale(0.0694 -0.0694)">
       <use xlink:href="#DejaVuSans-31"/>
       <use x="63.623047" xlink:href="#DejaVuSans-2e"/>
       <use x="95.410156" xlink:href="#DejaVuSans-39"/>
       <use x="159.033203" xlink:href="#DejaVuSans-35"/>
      </g>
     </g>
    </g>
    <g id="ytick_14">
     <g id="line2d_105">
      <path clip-path="url(#p5cbed2a885)" d="M 49.718 21.159505 
L 140.4335 21.159505 
" style="fill:none;stroke:#b0b0b0;stroke-dasharray:1.85,0.8;stroke-dashoffset:0;stroke-width:0.5;"/>
     </g>
     <g id="line2d_106">
      <g>
       <use style="stroke:#000000;stroke-width:0.8;" x="49.718" xlink:href="#me67b981da4" y="21.159505"/>
      </g>
     </g>
     <g id="text_27">
      <!-- 2.00 -->
      <g transform="translate(27.265656 23.796163)scale(0.0694 -0.0694)">
       <use xlink:href="#DejaVuSans-32"/>
       <use x="63.623047" xlink:href="#DejaVuSans-2e"/>
       <use x="95.410156" xlink:href="#DejaVuSans-30"/>
       <use x="159.033203" xlink:href="#DejaVuSans-30"/>
      </g>
     </g>
    </g>
    <g id="text_28">
     <!-- $f_\mathrm{s}$ -->
     <defs>
      <path d="M 47.796875 75.984375 
L 46.390625 68.5 
L 37.796875 68.5 
Q 32.90625 68.5 30.6875 66.578125 
Q 28.46875 64.65625 27.390625 59.515625 
L 26.421875 54.6875 
L 41.21875 54.6875 
L 39.890625 47.703125 
L 25.09375 47.703125 
L 15.828125 0 
L 6.78125 0 
L 16.109375 47.703125 
L 7.515625 47.703125 
L 8.796875 54.6875 
L 17.390625 54.6875 
L 18.109375 58.5 
Q 19.96875 68.171875 24.625 72.078125 
Q 29.296875 75.984375 39.3125 75.984375 
z
" id="DejaVuSans-Oblique-66"/>
      <path d="M 44.28125 53.078125 
L 44.28125 44.578125 
Q 40.484375 46.53125 36.375 47.5 
Q 32.28125 48.484375 27.875 48.484375 
Q 21.1875 48.484375 17.84375 46.4375 
Q 14.5 44.390625 14.5 40.28125 
Q 14.5 37.15625 16.890625 35.375 
Q 19.28125 33.59375 26.515625 31.984375 
L 29.59375 31.296875 
Q 39.15625 29.25 43.1875 25.515625 
Q 47.21875 21.78125 47.21875 15.09375 
Q 47.21875 7.46875 41.1875 3.015625 
Q 35.15625 -1.421875 24.609375 -1.421875 
Q 20.21875 -1.421875 15.453125 -0.5625 
Q 10.6875 0.296875 5.421875 2 
L 5.421875 11.28125 
Q 10.40625 8.6875 15.234375 7.390625 
Q 20.0625 6.109375 24.8125 6.109375 
Q 31.15625 6.109375 34.5625 8.28125 
Q 37.984375 10.453125 37.984375 14.40625 
Q 37.984375 18.0625 35.515625 20.015625 
Q 33.0625 21.96875 24.703125 23.78125 
L 21.578125 24.515625 
Q 13.234375 26.265625 9.515625 29.90625 
Q 5.8125 33.546875 5.8125 39.890625 
Q 5.8125 47.609375 11.28125 51.796875 
Q 16.75 56 26.8125 56 
Q 31.78125 56 36.171875 55.265625 
Q 40.578125 54.546875 44.28125 53.078125 
z
" id="DejaVuSans-73"/>
     </defs>
     <g transform="translate(21.185969 104.846)rotate(-90)scale(0.1 -0.1)">
      <use transform="translate(0 0.015625)" xlink:href="#DejaVuSans-Oblique-66"/>
      <use transform="translate(35.205078 -16.390625)scale(0.7)" xlink:href="#DejaVuSans-73"/>
     </g>
    </g>
   </g>
   <g id="line2d_107">
    <path clip-path="url(#p5cbed2a885)" d="M 53.841432 100.916678 
L 54.674448 100.940588 
L 55.507465 100.964611 
L 56.340481 100.988746 
L 57.173498 101.012993 
L 58.006514 101.037353 
L 58.839531 101.061826 
L 59.672548 101.086411 
L 60.505564 101.111108 
L 61.338581 101.135919 
L 62.171597 101.160841 
L 63.004614 101.185877 
L 63.83763 101.211025 
L 64.670647 101.236285 
L 65.503663 101.261658 
L 66.33668 101.287143 
L 67.169696 101.312741 
L 68.002713 101.338452 
L 68.835729 101.364275 
L 69.668746 101.390211 
L 70.501762 101.416259 
L 71.334779 101.44242 
L 72.167795 101.468693 
L 73.000812 101.495079 
L 73.833829 101.521577 
L 74.666845 101.548188 
L 75.499862 101.574912 
L 76.332878 101.601748 
L 77.165895 101.628696 
L 77.998911 101.655757 
L 78.831928 101.682931 
L 79.664944 101.710217 
L 80.497961 101.737616 
L 81.330977 101.765127 
L 82.163994 101.792751 
L 82.99701 101.820488 
L 83.830027 101.848336 
L 84.663043 101.876298 
L 85.49606 101.904372 
L 86.329076 101.932559 
L 87.162093 101.960858 
L 87.99511 101.989269 
L 88.828126 102.017793 
L 89.661143 102.04643 
L 90.494159 102.07518 
L 91.327176 102.104041 
L 92.160192 102.133016 
L 92.993209 102.162103 
L 93.826225 102.191302 
L 94.659242 102.220614 
L 95.492258 102.250039 
L 96.325275 102.279576 
L 97.158291 102.309225 
L 97.991308 102.338988 
L 98.824324 102.368862 
L 99.657341 102.39885 
L 100.490357 102.42895 
L 101.323374 102.459162 
L 102.15639 102.489487 
L 102.989407 102.519924 
L 103.822424 102.550474 
L 104.65544 102.581137 
L 105.488457 102.611912 
L 106.321473 102.6428 
L 107.15449 102.6738 
L 107.987506 102.704913 
L 108.820523 102.736138 
L 109.653539 102.767476 
L 110.486556 102.798926 
L 111.319572 102.830489 
L 112.152589 102.862164 
L 112.985605 102.893952 
L 113.818622 102.925853 
L 114.651638 102.957866 
L 115.484655 102.989992 
L 116.317671 103.02223 
L 117.150688 103.054581 
L 117.983705 103.087044 
L 118.816721 103.11962 
L 119.649738 103.152308 
L 120.482754 103.185109 
L 121.315771 103.218023 
L 122.148787 103.251049 
L 122.981804 103.284187 
L 123.81482 103.317438 
L 124.647837 103.350802 
L 125.480853 103.384278 
L 126.31387 103.417867 
L 127.146886 103.451568 
L 127.979903 103.485382 
L 128.812919 103.519308 
L 129.645936 103.553347 
L 130.478952 103.587499 
L 131.311969 103.621763 
L 132.144986 103.656139 
L 132.978002 103.690628 
L 133.811019 103.72523 
L 134.644035 103.759944 
L 135.477052 103.794771 
L 136.310068 103.82971 
" style="fill:none;stroke:#000000;stroke-linecap:square;stroke-width:0.5;"/>
   </g>
   <g id="line2d_108">
    <defs>
     <path d="M -1.25 1.25 
L 1.25 1.25 
L 1.25 -1.25 
L -1.25 -1.25 
z
" id="mcdd418bf40" style="stroke:#000000;stroke-linejoin:miter;"/>
    </defs>
    <g clip-path="url(#p5cbed2a885)">
     <use style="stroke:#000000;stroke-linejoin:miter;" x="53.841432" xlink:href="#mcdd418bf40" y="100.919675"/>
     <use style="stroke:#000000;stroke-linejoin:miter;" x="63.004614" xlink:href="#mcdd418bf40" y="101.184726"/>
     <use style="stroke:#000000;stroke-linejoin:miter;" x="72.167795" xlink:href="#mcdd418bf40" y="101.466186"/>
     <use style="stroke:#000000;stroke-linejoin:miter;" x="81.330977" xlink:href="#mcdd418bf40" y="101.763073"/>
     <use style="stroke:#000000;stroke-linejoin:miter;" x="90.494159" xlink:href="#mcdd418bf40" y="102.074531"/>
     <use style="stroke:#000000;stroke-linejoin:miter;" x="99.657341" xlink:href="#mcdd418bf40" y="102.399808"/>
     <use style="stroke:#000000;stroke-linejoin:miter;" x="108.820523" xlink:href="#mcdd418bf40" y="102.738244"/>
     <use style="stroke:#000000;stroke-linejoin:miter;" x="117.983705" xlink:href="#mcdd418bf40" y="103.089258"/>
     <use style="stroke:#000000;stroke-linejoin:miter;" x="127.146886" xlink:href="#mcdd418bf40" y="103.452336"/>
     <use style="stroke:#000000;stroke-linejoin:miter;" x="136.310068" xlink:href="#mcdd418bf40" y="103.827026"/>
     <use style="stroke:#000000;stroke-linejoin:miter;" x="98.403519" xlink:href="#mcdd418bf40" y="102.354509"/>
    </g>
   </g>
   <g id="line2d_109">
    <path clip-path="url(#p5cbed2a885)" d="M 53.841432 180.754799 
L 54.674448 179.454905 
L 55.507465 178.148699 
L 56.340481 176.83618 
L 57.173498 175.517348 
L 58.006514 174.192204 
L 58.839531 172.860748 
L 59.672548 171.522979 
L 60.505564 170.178897 
L 61.338581 168.828503 
L 62.171597 167.471796 
L 63.004614 166.108777 
L 63.83763 164.739446 
L 64.670647 163.363801 
L 65.503663 161.981845 
L 66.33668 160.593576 
L 67.169696 159.198994 
L 68.002713 157.7981 
L 68.835729 156.390893 
L 69.668746 154.977373 
L 70.501762 153.557542 
L 71.334779 152.131397 
L 72.167795 150.69894 
L 73.000812 149.260171 
L 73.833829 147.815089 
L 74.666845 146.363695 
L 75.499862 144.905988 
L 76.332878 143.441968 
L 77.165895 141.971636 
L 77.998911 140.494991 
L 78.831928 139.012034 
L 79.664944 137.522765 
L 80.497961 136.027183 
L 81.330977 134.525288 
L 82.163994 133.017081 
L 82.99701 131.502561 
L 83.830027 129.981729 
L 84.663043 128.454584 
L 85.49606 126.921127 
L 86.329076 125.381357 
L 87.162093 123.835275 
L 87.99511 122.28288 
L 88.828126 120.724172 
L 89.661143 119.159152 
L 90.494159 117.58782 
L 91.327176 116.010175 
L 92.160192 114.426218 
L 92.993209 112.835948 
L 93.826225 111.239365 
L 94.659242 109.63647 
L 95.492258 108.027262 
L 96.325275 106.411742 
L 97.158291 104.78991 
L 97.991308 103.161765 
L 98.824324 101.527307 
L 99.657341 99.886537 
L 100.490357 98.239454 
L 101.323374 96.586059 
L 102.15639 94.926351 
L 102.989407 93.260331 
L 103.822424 91.587998 
L 104.65544 89.909353 
L 105.488457 88.224395 
L 106.321473 86.533124 
L 107.15449 84.835541 
L 107.987506 83.131646 
L 108.820523 81.421438 
L 109.653539 79.704917 
L 110.486556 77.982084 
L 111.319572 76.252939 
L 112.152589 74.517481 
L 112.985605 72.77571 
L 113.818622 71.027627 
L 114.651638 69.273232 
L 115.484655 67.512523 
L 116.317671 65.745503 
L 117.150688 63.97217 
L 117.983705 62.192524 
L 118.816721 60.406566 
L 119.649738 58.614295 
L 120.482754 56.815711 
L 121.315771 55.010816 
L 122.148787 53.199607 
L 122.981804 51.382086 
L 123.81482 49.558253 
L 124.647837 47.728107 
L 125.480853 45.891649 
L 126.31387 44.048878 
L 127.146886 42.199794 
L 127.979903 40.344398 
L 128.812919 38.48269 
L 129.645936 36.614669 
L 130.478952 34.740335 
L 131.311969 32.859689 
L 132.144986 30.97273 
L 132.978002 29.079459 
L 133.811019 27.179875 
L 134.644035 25.273979 
L 135.477052 23.36177 
L 136.310068 21.443249 
" style="fill:none;stroke:#000000;stroke-linecap:square;stroke-width:0.5;"/>
   </g>
   <g id="line2d_110">
    <defs>
     <path d="M 0 1.25 
C 0.331504 1.25 0.649475 1.118292 0.883883 0.883883 
C 1.118292 0.649475 1.25 0.331504 1.25 0 
C 1.25 -0.331504 1.118292 -0.649475 0.883883 -0.883883 
C 0.649475 -1.118292 0.331504 -1.25 0 -1.25 
C -0.331504 -1.25 -0.649475 -1.118292 -0.883883 -0.883883 
C -1.118292 -0.649475 -1.25 -0.331504 -1.25 0 
C -1.25 0.331504 -1.118292 0.649475 -0.883883 0.883883 
C -0.649475 1.118292 -0.331504 1.25 0 1.25 
z
" id="mc18b1bc71e" style="stroke:#000000;"/>
    </defs>
    <g clip-path="url(#p5cbed2a885)">
     <use style="stroke:#000000;" x="53.841432" xlink:href="#mc18b1bc71e" y="180.892364"/>
     <use style="stroke:#000000;" x="63.004614" xlink:href="#mc18b1bc71e" y="166.065465"/>
     <use style="stroke:#000000;" x="72.167795" xlink:href="#mc18b1bc71e" y="150.584719"/>
     <use style="stroke:#000000;" x="81.330977" xlink:href="#mc18b1bc71e" y="134.421195"/>
     <use style="stroke:#000000;" x="90.494159" xlink:href="#mc18b1bc71e" y="117.544714"/>
     <use style="stroke:#000000;" x="99.657341" xlink:href="#mc18b1bc71e" y="99.923591"/>
     <use style="stroke:#000000;" x="108.820523" xlink:href="#mc18b1bc71e" y="81.524522"/>
     <use style="stroke:#000000;" x="117.983705" xlink:href="#mc18b1bc71e" y="62.312466"/>
     <use style="stroke:#000000;" x="127.146886" xlink:href="#mc18b1bc71e" y="42.250494"/>
     <use style="stroke:#000000;" x="136.310068" xlink:href="#mc18b1bc71e" y="21.299636"/>
     <use style="stroke:#000000;" x="98.403519" xlink:href="#mc18b1bc71e" y="102.379914"/>
    </g>
   </g>
   <g id="line2d_111">
    <defs>
     <path d="M 0 -2.5 
L -0.561285 -0.772542 
L -2.377641 -0.772542 
L -0.908178 0.295085 
L -1.469463 2.022542 
L -0 0.954915 
L 1.469463 2.022542 
L 0.908178 0.295085 
L 2.377641 -0.772542 
L 0.561285 -0.772542 
z
" id="m441f001ab8" style="stroke:#ff0000;stroke-linejoin:bevel;"/>
    </defs>
    <g clip-path="url(#p5cbed2a885)">
     <use style="fill:#ff0000;stroke:#ff0000;stroke-linejoin:bevel;" x="98.374495" xlink:href="#m441f001ab8" y="102.28345"/>
    </g>
   </g>
   <g id="patch_8">
    <path d="M 49.718 188.872 
L 49.718 13.32 
" style="fill:none;stroke:#000000;stroke-linecap:square;stroke-linejoin:miter;stroke-width:0.8;"/>
   </g>
   <g id="patch_9">
    <path d="M 140.4335 188.872 
L 140.4335 13.32 
" style="fill:none;stroke:#000000;stroke-linecap:square;stroke-linejoin:miter;stroke-width:0.8;"/>
   </g>
   <g id="patch_10">
    <path d="M 49.718 188.872 
L 140.4335 188.872 
" style="fill:none;stroke:#000000;stroke-linecap:square;stroke-linejoin:miter;stroke-width:0.8;"/>
   </g>
   <g id="patch_11">
    <path d="M 49.718 13.32 
L 140.4335 13.32 
" style="fill:none;stroke:#000000;stroke-linecap:square;stroke-linejoin:miter;stroke-width:0.8;"/>
   </g>
   <g id="legend_1">
    <g id="patch_12">
     <path d="M 55.549 32.210878 
L 134.6025 32.210878 
Q 136.2685 32.210878 136.2685 30.544878 
L 136.2685 19.151 
Q 136.2685 17.485 134.6025 17.485 
L 55.549 17.485 
Q 53.883 17.485 53.883 19.151 
L 53.883 30.544878 
Q 53.883 32.210878 55.549 32.210878 
z
" style="fill:#ffffff;opacity:0.25;stroke:#cccccc;stroke-linejoin:miter;"/>
    </g>
    <g id="line2d_112"/>
    <g id="line2d_113">
     <g>
      <use style="stroke:#000000;stroke-linejoin:miter;" x="65.545" xlink:href="#mcdd418bf40" y="24.230998"/>
     </g>
    </g>
    <g id="text_29">
     <!-- $f_\mathrm{m}$ -->
     <defs>
      <path d="M 52 44.1875 
Q 55.375 50.25 60.0625 53.125 
Q 64.75 56 71.09375 56 
Q 79.640625 56 84.28125 50.015625 
Q 88.921875 44.046875 88.921875 33.015625 
L 88.921875 0 
L 79.890625 0 
L 79.890625 32.71875 
Q 79.890625 40.578125 77.09375 44.375 
Q 74.3125 48.1875 68.609375 48.1875 
Q 61.625 48.1875 57.5625 43.546875 
Q 53.515625 38.921875 53.515625 30.90625 
L 53.515625 0 
L 44.484375 0 
L 44.484375 32.71875 
Q 44.484375 40.625 41.703125 44.40625 
Q 38.921875 48.1875 33.109375 48.1875 
Q 26.21875 48.1875 22.15625 43.53125 
Q 18.109375 38.875 18.109375 30.90625 
L 18.109375 0 
L 9.078125 0 
L 9.078125 54.6875 
L 18.109375 54.6875 
L 18.109375 46.1875 
Q 21.1875 51.21875 25.484375 53.609375 
Q 29.78125 56 35.6875 56 
Q 41.65625 56 45.828125 52.96875 
Q 50 49.953125 52 44.1875 
z
" id="DejaVuSans-6d"/>
     </defs>
     <g transform="translate(80.539 27.146498)scale(0.0833 -0.0833)">
      <use transform="translate(0 0.015625)" xlink:href="#DejaVuSans-Oblique-66"/>
      <use transform="translate(35.205078 -16.390625)scale(0.7)" xlink:href="#DejaVuSans-6d"/>
     </g>
    </g>
    <g id="line2d_114"/>
    <g id="line2d_115">
     <g>
      <use style="stroke:#000000;" x="112.6946" xlink:href="#mc18b1bc71e" y="24.230998"/>
     </g>
    </g>
    <g id="text_30">
     <!-- $f_\mathrm{f}$ -->
     <defs>
      <path d="M 37.109375 75.984375 
L 37.109375 68.5 
L 28.515625 68.5 
Q 23.6875 68.5 21.796875 66.546875 
Q 19.921875 64.59375 19.921875 59.515625 
L 19.921875 54.6875 
L 34.71875 54.6875 
L 34.71875 47.703125 
L 19.921875 47.703125 
L 19.921875 0 
L 10.890625 0 
L 10.890625 47.703125 
L 2.296875 47.703125 
L 2.296875 54.6875 
L 10.890625 54.6875 
L 10.890625 58.5 
Q 10.890625 67.625 15.140625 71.796875 
Q 19.390625 75.984375 28.609375 75.984375 
z
" id="DejaVuSans-66"/>
     </defs>
     <g transform="translate(127.6886 27.146498)scale(0.0833 -0.0833)">
      <use transform="translate(0 0.015625)" xlink:href="#DejaVuSans-Oblique-66"/>
      <use transform="translate(35.205078 -16.390625)scale(0.7)" xlink:href="#DejaVuSans-66"/>
     </g>
    </g>
   </g>
   <g id="legend_2">
    <g id="patch_13">
     <path d="M 61.58915 184.707 
L 128.56235 184.707 
Q 130.22835 184.707 130.22835 183.041 
L 130.22835 162.319344 
Q 130.22835 160.653344 128.56235 160.653344 
L 61.58915 160.653344 
Q 59.92315 160.653344 59.92315 162.319344 
L 59.92315 183.041 
Q 59.92315 184.707 61.58915 184.707 
z
" style="fill:#ffffff;opacity:0.25;stroke:#cccccc;stroke-linejoin:miter;"/>
    </g>
    <g id="line2d_116"/>
    <g id="line2d_117">
     <g>
      <use style="fill:#ff0000;stroke:#ff0000;stroke-linejoin:bevel;" x="71.58515" xlink:href="#m441f001ab8" y="172.929421"/>
     </g>
    </g>
    <g id="text_31">
     <!-- $f_\mathrm{s}=1.831$ -->
     <defs>
      <path d="M 10.59375 45.40625 
L 73.1875 45.40625 
L 73.1875 37.203125 
L 10.59375 37.203125 
z
M 10.59375 25.484375 
L 73.1875 25.484375 
L 73.1875 17.1875 
L 10.59375 17.1875 
z
" id="DejaVuSans-3d"/>
      <path d="M 40.578125 39.3125 
Q 47.65625 37.796875 51.625 33 
Q 55.609375 28.21875 55.609375 21.1875 
Q 55.609375 10.40625 48.1875 4.484375 
Q 40.765625 -1.421875 27.09375 -1.421875 
Q 22.515625 -1.421875 17.65625 -0.515625 
Q 12.796875 0.390625 7.625 2.203125 
L 7.625 11.71875 
Q 11.71875 9.328125 16.59375 8.109375 
Q 21.484375 6.890625 26.8125 6.890625 
Q 36.078125 6.890625 40.9375 10.546875 
Q 45.796875 14.203125 45.796875 21.1875 
Q 45.796875 27.640625 41.28125 31.265625 
Q 36.765625 34.90625 28.71875 34.90625 
L 20.21875 34.90625 
L 20.21875 43.015625 
L 29.109375 43.015625 
Q 36.375 43.015625 40.234375 45.921875 
Q 44.09375 48.828125 44.09375 54.296875 
Q 44.09375 59.90625 40.109375 62.90625 
Q 36.140625 65.921875 28.71875 65.921875 
Q 24.65625 65.921875 20.015625 65.03125 
Q 15.375 64.15625 9.8125 62.3125 
L 9.8125 71.09375 
Q 15.4375 72.65625 20.34375 73.4375 
Q 25.25 74.21875 29.59375 74.21875 
Q 40.828125 74.21875 47.359375 69.109375 
Q 53.90625 64.015625 53.90625 55.328125 
Q 53.90625 49.265625 50.4375 45.09375 
Q 46.96875 40.921875 40.578125 39.3125 
z
" id="DejaVuSans-33"/>
     </defs>
     <g transform="translate(86.57915 170.314842)scale(0.0833 -0.0833)">
      <use transform="translate(0 0.015625)" xlink:href="#DejaVuSans-Oblique-66"/>
      <use transform="translate(35.205078 -16.390625)scale(0.7)" xlink:href="#DejaVuSans-73"/>
      <use transform="translate(93.891602 0.015625)" xlink:href="#DejaVuSans-3d"/>
      <use transform="translate(197.163086 0.015625)" xlink:href="#DejaVuSans-31"/>
      <use transform="translate(260.786133 0.015625)" xlink:href="#DejaVuSans-2e"/>
      <use transform="translate(292.541992 0.015625)" xlink:href="#DejaVuSans-38"/>
      <use transform="translate(356.165039 0.015625)" xlink:href="#DejaVuSans-33"/>
      <use transform="translate(419.788086 0.015625)" xlink:href="#DejaVuSans-31"/>
     </g>
     <!-- $\lambda=0.324$ -->
     <g transform="translate(86.57915 179.64262)scale(0.0833 -0.0833)">
      <use transform="translate(0 0.015625)" xlink:href="#DejaVuSans-Oblique-3bb"/>
      <use transform="translate(78.662109 0.015625)" xlink:href="#DejaVuSans-3d"/>
      <use transform="translate(181.933594 0.015625)" xlink:href="#DejaVuSans-30"/>
      <use transform="translate(245.556641 0.015625)" xlink:href="#DejaVuSans-2e"/>
      <use transform="translate(277.34375 0.015625)" xlink:href="#DejaVuSans-33"/>
      <use transform="translate(340.966797 0.015625)" xlink:href="#DejaVuSans-32"/>
      <use transform="translate(404.589844 0.015625)" xlink:href="#DejaVuSans-34"/>
     </g>
    </g>
   </g>
   <g id="legend_3">
    <g id="patch_14">
     <path d="M 61.58915 184.707 
L 128.56235 184.707 
Q 130.22835 184.707 130.22835 183.041 
L 130.22835 162.319344 
Q 130.22835 160.653344 128.56235 160.653344 
L 61.58915 160.653344 
Q 59.92315 160.653344 59.92315 162.319344 
L 59.92315 183.041 
Q 59.92315 184.707 61.58915 184.707 
z
" style="fill:#ffffff;opacity:0.25;stroke:#cccccc;stroke-linejoin:miter;"/>
    </g>
    <g id="line2d_118"/>
    <g id="line2d_119">
     <g>
      <use style="fill:#ff0000;stroke:#ff0000;stroke-linejoin:bevel;" x="71.58515" xlink:href="#m441f001ab8" y="172.929421"/>
     </g>
    </g>
    <g id="text_32">
     <!-- $f_\mathrm{s}=1.831$ -->
     <g transform="translate(86.57915 170.314842)scale(0.0833 -0.0833)">
      <use transform="translate(0 0.015625)" xlink:href="#DejaVuSans-Oblique-66"/>
      <use transform="translate(35.205078 -16.390625)scale(0.7)" xlink:href="#DejaVuSans-73"/>
      <use transform="translate(93.891602 0.015625)" xlink:href="#DejaVuSans-3d"/>
      <use transform="translate(197.163086 0.015625)" xlink:href="#DejaVuSans-31"/>
      <use transform="translate(260.786133 0.015625)" xlink:href="#DejaVuSans-2e"/>
      <use transform="translate(292.541992 0.015625)" xlink:href="#DejaVuSans-38"/>
      <use transform="translate(356.165039 0.015625)" xlink:href="#DejaVuSans-33"/>
      <use transform="translate(419.788086 0.015625)" xlink:href="#DejaVuSans-31"/>
     </g>
     <!-- $\lambda=0.324$ -->
     <g transform="translate(86.57915 179.64262)scale(0.0833 -0.0833)">
      <use transform="translate(0 0.015625)" xlink:href="#DejaVuSans-Oblique-3bb"/>
      <use transform="translate(78.662109 0.015625)" xlink:href="#DejaVuSans-3d"/>
      <use transform="translate(181.933594 0.015625)" xlink:href="#DejaVuSans-30"/>
      <use transform="translate(245.556641 0.015625)" xlink:href="#DejaVuSans-2e"/>
      <use transform="translate(277.34375 0.015625)" xlink:href="#DejaVuSans-33"/>
      <use transform="translate(340.966797 0.015625)" xlink:href="#DejaVuSans-32"/>
      <use transform="translate(404.589844 0.015625)" xlink:href="#DejaVuSans-34"/>
     </g>
    </g>
   </g>
  </g>
 </g>
 <defs>
  <clipPath id="pff81e278c7">
   <rect height="175.552" width="272.1465" x="175.3335" y="13.32"/>
  </clipPath>
  <clipPath id="p5cbed2a885">
   <rect height="175.552" width="90.7155" x="49.718" y="13.32"/>
  </clipPath>
 </defs>
</svg>
