<?xml version="1.0" encoding="utf-8" standalone="no"?>
<!DOCTYPE svg PUBLIC "-//W3C//DTD SVG 1.1//EN"
  "http://www.w3.org/Graphics/SVG/1.1/DTD/svg11.dtd">
<!-- Created with matplotlib (http://matplotlib.org/) -->
<svg height="345.6pt" version="1.1" viewBox="0 0 460.8 345.6" width="460.8pt" xmlns="http://www.w3.org/2000/svg" xmlns:xlink="http://www.w3.org/1999/xlink">
 <defs>
  <style type="text/css">
*{stroke-linecap:butt;stroke-linejoin:round;}
  </style>
 </defs>
 <g id="figure_1">
  <g id="patch_1">
   <path d="M 0 345.6 
L 460.8 345.6 
L 460.8 0 
L 0 0 
z
" style="fill:#ffffff;"/>
  </g>
  <g id="axes_1">
   <g id="patch_2">
    <path d="M 32.56 317.72 
L 447.48 317.72 
L 447.48 13.32 
L 32.56 13.32 
z
" style="fill:#ffffff;"/>
   </g>
   <g id="matplotlib.axis_1">
    <g id="xtick_1">
     <g id="line2d_1">
      <path clip-path="url(#p288438749a)" d="M 51.42 317.72 
L 51.42 13.32 
" style="fill:none;stroke:#b0b0b0;stroke-dasharray:1.85,0.8;stroke-dashoffset:0;stroke-width:0.5;"/>
     </g>
     <g id="line2d_2">
      <defs>
       <path d="M 0 0 
L 0 3.5 
" id="me3208a8418" style="stroke:#000000;stroke-width:0.8;"/>
      </defs>
      <g>
       <use style="stroke:#000000;stroke-width:0.8;" x="51.42" xlink:href="#me3208a8418" y="317.72"/>
      </g>
     </g>
     <g id="text_1">
      <!-- 0 -->
      <defs>
       <path d="M 31.78125 66.40625 
Q 24.171875 66.40625 20.328125 58.90625 
Q 16.5 51.421875 16.5 36.375 
Q 16.5 21.390625 20.328125 13.890625 
Q 24.171875 6.390625 31.78125 6.390625 
Q 39.453125 6.390625 43.28125 13.890625 
Q 47.125 21.390625 47.125 36.375 
Q 47.125 51.421875 43.28125 58.90625 
Q 39.453125 66.40625 31.78125 66.40625 
z
M 31.78125 74.21875 
Q 44.046875 74.21875 50.515625 64.515625 
Q 56.984375 54.828125 56.984375 36.375 
Q 56.984375 17.96875 50.515625 8.265625 
Q 44.046875 -1.421875 31.78125 -1.421875 
Q 19.53125 -1.421875 13.0625 8.265625 
Q 6.59375 17.96875 6.59375 36.375 
Q 6.59375 54.828125 13.0625 64.515625 
Q 19.53125 74.21875 31.78125 74.21875 
z
" id="DejaVuSans-30"/>
      </defs>
      <g transform="translate(48.23875 332.318437)scale(0.1 -0.1)">
       <use xlink:href="#DejaVuSans-30"/>
      </g>
     </g>
    </g>
    <g id="xtick_2">
     <g id="line2d_3">
      <path clip-path="url(#p288438749a)" d="M 111.453245 317.72 
L 111.453245 13.32 
" style="fill:none;stroke:#b0b0b0;stroke-dasharray:1.85,0.8;stroke-dashoffset:0;stroke-width:0.5;"/>
     </g>
     <g id="line2d_4">
      <g>
       <use style="stroke:#000000;stroke-width:0.8;" x="111.453245" xlink:href="#me3208a8418" y="317.72"/>
      </g>
     </g>
     <g id="text_2">
      <!-- 1 -->
      <defs>
       <path d="M 12.40625 8.296875 
L 28.515625 8.296875 
L 28.515625 63.921875 
L 10.984375 60.40625 
L 10.984375 69.390625 
L 28.421875 72.90625 
L 38.28125 72.90625 
L 38.28125 8.296875 
L 54.390625 8.296875 
L 54.390625 0 
L 12.40625 0 
z
" id="DejaVuSans-31"/>
      </defs>
      <g transform="translate(108.271995 332.318437)scale(0.1 -0.1)">
       <use xlink:href="#DejaVuSans-31"/>
      </g>
     </g>
    </g>
    <g id="xtick_3">
     <g id="line2d_5">
      <path clip-path="url(#p288438749a)" d="M 171.486489 317.72 
L 171.486489 13.32 
" style="fill:none;stroke:#b0b0b0;stroke-dasharray:1.85,0.8;stroke-dashoffset:0;stroke-width:0.5;"/>
     </g>
     <g id="line2d_6">
      <g>
       <use style="stroke:#000000;stroke-width:0.8;" x="171.486489" xlink:href="#me3208a8418" y="317.72"/>
      </g>
     </g>
     <g id="text_3">
      <!-- 2 -->
      <defs>
       <path d="M 19.1875 8.296875 
L 53.609375 8.296875 
L 53.609375 0 
L 7.328125 0 
L 7.328125 8.296875 
Q 12.9375 14.109375 22.625 23.890625 
Q 32.328125 33.6875 34.8125 36.53125 
Q 39.546875 41.84375 41.421875 45.53125 
Q 43.3125 49.21875 43.3125 52.78125 
Q 43.3125 58.59375 39.234375 62.25 
Q 35.15625 65.921875 28.609375 65.921875 
Q 23.96875 65.921875 18.8125 64.3125 
Q 13.671875 62.703125 7.8125 59.421875 
L 7.8125 69.390625 
Q 13.765625 71.78125 18.9375 73 
Q 24.125 74.21875 28.421875 74.21875 
Q 39.75 74.21875 46.484375 68.546875 
Q 53.21875 62.890625 53.21875 53.421875 
Q 53.21875 48.921875 51.53125 44.890625 
Q 49.859375 40.875 45.40625 35.40625 
Q 44.1875 33.984375 37.640625 27.21875 
Q 31.109375 20.453125 19.1875 8.296875 
z
" id="DejaVuSans-32"/>
      </defs>
      <g transform="translate(168.305239 332.318437)scale(0.1 -0.1)">
       <use xlink:href="#DejaVuSans-32"/>
      </g>
     </g>
    </g>
    <g id="xtick_4">
     <g id="line2d_7">
      <path clip-path="url(#p288438749a)" d="M 231.519734 317.72 
L 231.519734 13.32 
" style="fill:none;stroke:#b0b0b0;stroke-dasharray:1.85,0.8;stroke-dashoffset:0;stroke-width:0.5;"/>
     </g>
     <g id="line2d_8">
      <g>
       <use style="stroke:#000000;stroke-width:0.8;" x="231.519734" xlink:href="#me3208a8418" y="317.72"/>
      </g>
     </g>
     <g id="text_4">
      <!-- 3 -->
      <defs>
       <path d="M 40.578125 39.3125 
Q 47.65625 37.796875 51.625 33 
Q 55.609375 28.21875 55.609375 21.1875 
Q 55.609375 10.40625 48.1875 4.484375 
Q 40.765625 -1.421875 27.09375 -1.421875 
Q 22.515625 -1.421875 17.65625 -0.515625 
Q 12.796875 0.390625 7.625 2.203125 
L 7.625 11.71875 
Q 11.71875 9.328125 16.59375 8.109375 
Q 21.484375 6.890625 26.8125 6.890625 
Q 36.078125 6.890625 40.9375 10.546875 
Q 45.796875 14.203125 45.796875 21.1875 
Q 45.796875 27.640625 41.28125 31.265625 
Q 36.765625 34.90625 28.71875 34.90625 
L 20.21875 34.90625 
L 20.21875 43.015625 
L 29.109375 43.015625 
Q 36.375 43.015625 40.234375 45.921875 
Q 44.09375 48.828125 44.09375 54.296875 
Q 44.09375 59.90625 40.109375 62.90625 
Q 36.140625 65.921875 28.71875 65.921875 
Q 24.65625 65.921875 20.015625 65.03125 
Q 15.375 64.15625 9.8125 62.3125 
L 9.8125 71.09375 
Q 15.4375 72.65625 20.34375 73.4375 
Q 25.25 74.21875 29.59375 74.21875 
Q 40.828125 74.21875 47.359375 69.109375 
Q 53.90625 64.015625 53.90625 55.328125 
Q 53.90625 49.265625 50.4375 45.09375 
Q 46.96875 40.921875 40.578125 39.3125 
z
" id="DejaVuSans-33"/>
      </defs>
      <g transform="translate(228.338484 332.318437)scale(0.1 -0.1)">
       <use xlink:href="#DejaVuSans-33"/>
      </g>
     </g>
    </g>
    <g id="xtick_5">
     <g id="line2d_9">
      <path clip-path="url(#p288438749a)" d="M 291.552978 317.72 
L 291.552978 13.32 
" style="fill:none;stroke:#b0b0b0;stroke-dasharray:1.85,0.8;stroke-dashoffset:0;stroke-width:0.5;"/>
     </g>
     <g id="line2d_10">
      <g>
       <use style="stroke:#000000;stroke-width:0.8;" x="291.552978" xlink:href="#me3208a8418" y="317.72"/>
      </g>
     </g>
     <g id="text_5">
      <!-- 4 -->
      <defs>
       <path d="M 37.796875 64.3125 
L 12.890625 25.390625 
L 37.796875 25.390625 
z
M 35.203125 72.90625 
L 47.609375 72.90625 
L 47.609375 25.390625 
L 58.015625 25.390625 
L 58.015625 17.1875 
L 47.609375 17.1875 
L 47.609375 0 
L 37.796875 0 
L 37.796875 17.1875 
L 4.890625 17.1875 
L 4.890625 26.703125 
z
" id="DejaVuSans-34"/>
      </defs>
      <g transform="translate(288.371728 332.318437)scale(0.1 -0.1)">
       <use xlink:href="#DejaVuSans-34"/>
      </g>
     </g>
    </g>
    <g id="xtick_6">
     <g id="line2d_11">
      <path clip-path="url(#p288438749a)" d="M 351.586223 317.72 
L 351.586223 13.32 
" style="fill:none;stroke:#b0b0b0;stroke-dasharray:1.85,0.8;stroke-dashoffset:0;stroke-width:0.5;"/>
     </g>
     <g id="line2d_12">
      <g>
       <use style="stroke:#000000;stroke-width:0.8;" x="351.586223" xlink:href="#me3208a8418" y="317.72"/>
      </g>
     </g>
     <g id="text_6">
      <!-- 5 -->
      <defs>
       <path d="M 10.796875 72.90625 
L 49.515625 72.90625 
L 49.515625 64.59375 
L 19.828125 64.59375 
L 19.828125 46.734375 
Q 21.96875 47.46875 24.109375 47.828125 
Q 26.265625 48.1875 28.421875 48.1875 
Q 40.625 48.1875 47.75 41.5 
Q 54.890625 34.8125 54.890625 23.390625 
Q 54.890625 11.625 47.5625 5.09375 
Q 40.234375 -1.421875 26.90625 -1.421875 
Q 22.3125 -1.421875 17.546875 -0.640625 
Q 12.796875 0.140625 7.71875 1.703125 
L 7.71875 11.625 
Q 12.109375 9.234375 16.796875 8.0625 
Q 21.484375 6.890625 26.703125 6.890625 
Q 35.15625 6.890625 40.078125 11.328125 
Q 45.015625 15.765625 45.015625 23.390625 
Q 45.015625 31 40.078125 35.4375 
Q 35.15625 39.890625 26.703125 39.890625 
Q 22.75 39.890625 18.8125 39.015625 
Q 14.890625 38.140625 10.796875 36.28125 
z
" id="DejaVuSans-35"/>
      </defs>
      <g transform="translate(348.404973 332.318437)scale(0.1 -0.1)">
       <use xlink:href="#DejaVuSans-35"/>
      </g>
     </g>
    </g>
    <g id="xtick_7">
     <g id="line2d_13">
      <path clip-path="url(#p288438749a)" d="M 411.619467 317.72 
L 411.619467 13.32 
" style="fill:none;stroke:#b0b0b0;stroke-dasharray:1.85,0.8;stroke-dashoffset:0;stroke-width:0.5;"/>
     </g>
     <g id="line2d_14">
      <g>
       <use style="stroke:#000000;stroke-width:0.8;" x="411.619467" xlink:href="#me3208a8418" y="317.72"/>
      </g>
     </g>
     <g id="text_7">
      <!-- 6 -->
      <defs>
       <path d="M 33.015625 40.375 
Q 26.375 40.375 22.484375 35.828125 
Q 18.609375 31.296875 18.609375 23.390625 
Q 18.609375 15.53125 22.484375 10.953125 
Q 26.375 6.390625 33.015625 6.390625 
Q 39.65625 6.390625 43.53125 10.953125 
Q 47.40625 15.53125 47.40625 23.390625 
Q 47.40625 31.296875 43.53125 35.828125 
Q 39.65625 40.375 33.015625 40.375 
z
M 52.59375 71.296875 
L 52.59375 62.3125 
Q 48.875 64.0625 45.09375 64.984375 
Q 41.3125 65.921875 37.59375 65.921875 
Q 27.828125 65.921875 22.671875 59.328125 
Q 17.53125 52.734375 16.796875 39.40625 
Q 19.671875 43.65625 24.015625 45.921875 
Q 28.375 48.1875 33.59375 48.1875 
Q 44.578125 48.1875 50.953125 41.515625 
Q 57.328125 34.859375 57.328125 23.390625 
Q 57.328125 12.15625 50.6875 5.359375 
Q 44.046875 -1.421875 33.015625 -1.421875 
Q 20.359375 -1.421875 13.671875 8.265625 
Q 6.984375 17.96875 6.984375 36.375 
Q 6.984375 53.65625 15.1875 63.9375 
Q 23.390625 74.21875 37.203125 74.21875 
Q 40.921875 74.21875 44.703125 73.484375 
Q 48.484375 72.75 52.59375 71.296875 
z
" id="DejaVuSans-36"/>
      </defs>
      <g transform="translate(408.438217 332.318437)scale(0.1 -0.1)">
       <use xlink:href="#DejaVuSans-36"/>
      </g>
     </g>
    </g>
   </g>
   <g id="matplotlib.axis_2">
    <g id="ytick_1">
     <g id="line2d_15">
      <path clip-path="url(#p288438749a)" d="M 32.56 301.285718 
L 447.48 301.285718 
" style="fill:none;stroke:#b0b0b0;stroke-dasharray:1.85,0.8;stroke-dashoffset:0;stroke-width:0.5;"/>
     </g>
     <g id="line2d_16">
      <defs>
       <path d="M 0 0 
L -3.5 0 
" id="m8e5f94cfeb" style="stroke:#000000;stroke-width:0.8;"/>
      </defs>
      <g>
       <use style="stroke:#000000;stroke-width:0.8;" x="32.56" xlink:href="#m8e5f94cfeb" y="301.285718"/>
      </g>
     </g>
     <g id="text_8">
      <!-- −2 -->
      <defs>
       <path d="M 10.59375 35.5 
L 73.1875 35.5 
L 73.1875 27.203125 
L 10.59375 27.203125 
z
" id="DejaVuSans-2212"/>
      </defs>
      <g transform="translate(10.817813 305.084937)scale(0.1 -0.1)">
       <use xlink:href="#DejaVuSans-2212"/>
       <use x="83.789062" xlink:href="#DejaVuSans-32"/>
      </g>
     </g>
    </g>
    <g id="ytick_2">
     <g id="line2d_17">
      <path clip-path="url(#p288438749a)" d="M 32.56 241.252473 
L 447.48 241.252473 
" style="fill:none;stroke:#b0b0b0;stroke-dasharray:1.85,0.8;stroke-dashoffset:0;stroke-width:0.5;"/>
     </g>
     <g id="line2d_18">
      <g>
       <use style="stroke:#000000;stroke-width:0.8;" x="32.56" xlink:href="#m8e5f94cfeb" y="241.252473"/>
      </g>
     </g>
     <g id="text_9">
      <!-- −1 -->
      <g transform="translate(10.817813 245.051692)scale(0.1 -0.1)">
       <use xlink:href="#DejaVuSans-2212"/>
       <use x="83.789062" xlink:href="#DejaVuSans-31"/>
      </g>
     </g>
    </g>
    <g id="ytick_3">
     <g id="line2d_19">
      <path clip-path="url(#p288438749a)" d="M 32.56 181.219229 
L 447.48 181.219229 
" style="fill:none;stroke:#b0b0b0;stroke-dasharray:1.85,0.8;stroke-dashoffset:0;stroke-width:0.5;"/>
     </g>
     <g id="line2d_20">
      <g>
       <use style="stroke:#000000;stroke-width:0.8;" x="32.56" xlink:href="#m8e5f94cfeb" y="181.219229"/>
      </g>
     </g>
     <g id="text_10">
      <!-- 0 -->
      <g transform="translate(19.1975 185.018448)scale(0.1 -0.1)">
       <use xlink:href="#DejaVuSans-30"/>
      </g>
     </g>
    </g>
    <g id="ytick_4">
     <g id="line2d_21">
      <path clip-path="url(#p288438749a)" d="M 32.56 121.185984 
L 447.48 121.185984 
" style="fill:none;stroke:#b0b0b0;stroke-dasharray:1.85,0.8;stroke-dashoffset:0;stroke-width:0.5;"/>
     </g>
     <g id="line2d_22">
      <g>
       <use style="stroke:#000000;stroke-width:0.8;" x="32.56" xlink:href="#m8e5f94cfeb" y="121.185984"/>
      </g>
     </g>
     <g id="text_11">
      <!-- 1 -->
      <g transform="translate(19.1975 124.985203)scale(0.1 -0.1)">
       <use xlink:href="#DejaVuSans-31"/>
      </g>
     </g>
    </g>
    <g id="ytick_5">
     <g id="line2d_23">
      <path clip-path="url(#p288438749a)" d="M 32.56 61.15274 
L 447.48 61.15274 
" style="fill:none;stroke:#b0b0b0;stroke-dasharray:1.85,0.8;stroke-dashoffset:0;stroke-width:0.5;"/>
     </g>
     <g id="line2d_24">
      <g>
       <use style="stroke:#000000;stroke-width:0.8;" x="32.56" xlink:href="#m8e5f94cfeb" y="61.15274"/>
      </g>
     </g>
     <g id="text_12">
      <!-- 2 -->
      <g transform="translate(19.1975 64.951959)scale(0.1 -0.1)">
       <use xlink:href="#DejaVuSans-32"/>
      </g>
     </g>
    </g>
   </g>
   <g id="line2d_25">
    <path clip-path="url(#p288438749a)" d="M 51.42 160.555845 
L 59.117959 156.815871 
L 66.815918 148.815944 
L 74.513878 150.719652 
L 82.211837 135.017442 
L 89.909796 127.327767 
L 97.607755 129.736452 
L 105.305714 132.958083 
L 113.003673 121.471939 
L 120.701633 121.182588 
L 128.399592 106.140198 
L 136.097551 115.139394 
L 143.79551 99.628276 
L 151.493469 92.077053 
L 159.191429 95.150935 
L 166.889388 98.549084 
L 174.587347 102.011714 
L 182.285306 115.569371 
L 189.983265 113.300164 
L 197.681224 124.870839 
L 205.379184 142.26116 
L 213.077143 136.029748 
L 220.775102 156.390047 
L 228.473061 140.455193 
L 236.17102 172.752037 
L 243.86898 164.547059 
L 251.566939 163.77264 
L 259.264898 183.73817 
L 266.962857 193.241055 
L 274.660816 195.573231 
L 282.358776 212.477109 
L 290.056735 198.453231 
L 297.754694 202.477187 
L 305.452653 218.404272 
L 313.150612 208.525117 
L 320.848571 230.534447 
L 328.546531 212.302094 
L 336.24449 238.962947 
L 343.942449 235.896053 
L 351.640408 216.774882 
L 359.338367 215.400474 
L 367.036327 227.490869 
L 374.734286 220.131567 
L 382.432245 199.005182 
L 390.130204 192.972007 
L 397.828163 207.686251 
L 405.526122 188.081877 
L 413.224082 183.539385 
L 420.922041 166.708417 
L 428.62 165.929467 
" style="fill:none;stroke:#000000;stroke-dasharray:1.85,0.8;stroke-dashoffset:0;stroke-width:0.5;"/>
    <defs>
     <path d="M -3 3 
L 3 -3 
M -3 -3 
L 3 3 
" id="m696773d5dc" style="stroke:#000000;"/>
    </defs>
    <g clip-path="url(#p288438749a)">
     <use style="stroke:#000000;" x="51.42" xlink:href="#m696773d5dc" y="160.555845"/>
     <use style="stroke:#000000;" x="59.117959" xlink:href="#m696773d5dc" y="156.815871"/>
     <use style="stroke:#000000;" x="66.815918" xlink:href="#m696773d5dc" y="148.815944"/>
     <use style="stroke:#000000;" x="74.513878" xlink:href="#m696773d5dc" y="150.719652"/>
     <use style="stroke:#000000;" x="82.211837" xlink:href="#m696773d5dc" y="135.017442"/>
     <use style="stroke:#000000;" x="89.909796" xlink:href="#m696773d5dc" y="127.327767"/>
     <use style="stroke:#000000;" x="97.607755" xlink:href="#m696773d5dc" y="129.736452"/>
     <use style="stroke:#000000;" x="105.305714" xlink:href="#m696773d5dc" y="132.958083"/>
     <use style="stroke:#000000;" x="113.003673" xlink:href="#m696773d5dc" y="121.471939"/>
     <use style="stroke:#000000;" x="120.701633" xlink:href="#m696773d5dc" y="121.182588"/>
     <use style="stroke:#000000;" x="128.399592" xlink:href="#m696773d5dc" y="106.140198"/>
     <use style="stroke:#000000;" x="136.097551" xlink:href="#m696773d5dc" y="115.139394"/>
     <use style="stroke:#000000;" x="143.79551" xlink:href="#m696773d5dc" y="99.628276"/>
     <use style="stroke:#000000;" x="151.493469" xlink:href="#m696773d5dc" y="92.077053"/>
     <use style="stroke:#000000;" x="159.191429" xlink:href="#m696773d5dc" y="95.150935"/>
     <use style="stroke:#000000;" x="166.889388" xlink:href="#m696773d5dc" y="98.549084"/>
     <use style="stroke:#000000;" x="174.587347" xlink:href="#m696773d5dc" y="102.011714"/>
     <use style="stroke:#000000;" x="182.285306" xlink:href="#m696773d5dc" y="115.569371"/>
     <use style="stroke:#000000;" x="189.983265" xlink:href="#m696773d5dc" y="113.300164"/>
     <use style="stroke:#000000;" x="197.681224" xlink:href="#m696773d5dc" y="124.870839"/>
     <use style="stroke:#000000;" x="205.379184" xlink:href="#m696773d5dc" y="142.26116"/>
     <use style="stroke:#000000;" x="213.077143" xlink:href="#m696773d5dc" y="136.029748"/>
     <use style="stroke:#000000;" x="220.775102" xlink:href="#m696773d5dc" y="156.390047"/>
     <use style="stroke:#000000;" x="228.473061" xlink:href="#m696773d5dc" y="140.455193"/>
     <use style="stroke:#000000;" x="236.17102" xlink:href="#m696773d5dc" y="172.752037"/>
     <use style="stroke:#000000;" x="243.86898" xlink:href="#m696773d5dc" y="164.547059"/>
     <use style="stroke:#000000;" x="251.566939" xlink:href="#m696773d5dc" y="163.77264"/>
     <use style="stroke:#000000;" x="259.264898" xlink:href="#m696773d5dc" y="183.73817"/>
     <use style="stroke:#000000;" x="266.962857" xlink:href="#m696773d5dc" y="193.241055"/>
     <use style="stroke:#000000;" x="274.660816" xlink:href="#m696773d5dc" y="195.573231"/>
     <use style="stroke:#000000;" x="282.358776" xlink:href="#m696773d5dc" y="212.477109"/>
     <use style="stroke:#000000;" x="290.056735" xlink:href="#m696773d5dc" y="198.453231"/>
     <use style="stroke:#000000;" x="297.754694" xlink:href="#m696773d5dc" y="202.477187"/>
     <use style="stroke:#000000;" x="305.452653" xlink:href="#m696773d5dc" y="218.404272"/>
     <use style="stroke:#000000;" x="313.150612" xlink:href="#m696773d5dc" y="208.525117"/>
     <use style="stroke:#000000;" x="320.848571" xlink:href="#m696773d5dc" y="230.534447"/>
     <use style="stroke:#000000;" x="328.546531" xlink:href="#m696773d5dc" y="212.302094"/>
     <use style="stroke:#000000;" x="336.24449" xlink:href="#m696773d5dc" y="238.962947"/>
     <use style="stroke:#000000;" x="343.942449" xlink:href="#m696773d5dc" y="235.896053"/>
     <use style="stroke:#000000;" x="351.640408" xlink:href="#m696773d5dc" y="216.774882"/>
     <use style="stroke:#000000;" x="359.338367" xlink:href="#m696773d5dc" y="215.400474"/>
     <use style="stroke:#000000;" x="367.036327" xlink:href="#m696773d5dc" y="227.490869"/>
     <use style="stroke:#000000;" x="374.734286" xlink:href="#m696773d5dc" y="220.131567"/>
     <use style="stroke:#000000;" x="382.432245" xlink:href="#m696773d5dc" y="199.005182"/>
     <use style="stroke:#000000;" x="390.130204" xlink:href="#m696773d5dc" y="192.972007"/>
     <use style="stroke:#000000;" x="397.828163" xlink:href="#m696773d5dc" y="207.686251"/>
     <use style="stroke:#000000;" x="405.526122" xlink:href="#m696773d5dc" y="188.081877"/>
     <use style="stroke:#000000;" x="413.224082" xlink:href="#m696773d5dc" y="183.539385"/>
     <use style="stroke:#000000;" x="420.922041" xlink:href="#m696773d5dc" y="166.708417"/>
     <use style="stroke:#000000;" x="428.62" xlink:href="#m696773d5dc" y="165.929467"/>
    </g>
   </g>
   <g id="line2d_26">
    <path clip-path="url(#p288438749a)" d="M 51.42 160.555845 
L 57.790414 156.886027 
L 65.798993 151.581845 
L 71.342782 148.144878 
L 73.699273 146.423513 
L 75.869429 144.530389 
L 77.890546 142.487721 
L 84.931066 134.69817 
L 86.499153 133.258193 
L 88.008406 132.09779 
L 89.465094 131.21154 
L 90.87455 130.577921 
L 92.241401 130.164851 
L 93.56976 129.933846 
L 96.125797 129.849212 
L 100.929129 130.021099 
L 103.226258 129.722392 
L 104.358482 129.40292 
L 106.601583 128.413051 
L 108.827616 127.035894 
L 112.153536 124.595554 
L 118.796452 119.440735 
L 125.438838 113.870393 
L 127.652967 112.42716 
L 129.867096 111.389171 
L 135.402418 109.321215 
L 136.509482 108.688222 
L 137.616546 107.915165 
L 139.830675 105.949536 
L 142.044804 103.561266 
L 145.365997 99.831281 
L 147.580126 97.698679 
L 148.68719 96.825367 
L 149.794254 96.101955 
L 150.901319 95.534865 
L 152.008383 95.123739 
L 153.115447 94.86249 
L 154.222512 94.740508 
L 156.436641 94.856797 
L 158.650769 95.344576 
L 160.864898 96.080463 
L 164.186091 97.470258 
L 167.507284 99.161696 
L 169.721413 100.534075 
L 171.935542 102.175021 
L 174.14967 104.096937 
L 181.899121 111.343708 
L 184.11325 112.970021 
L 189.648571 116.721965 
L 191.8627 118.717009 
L 194.076829 121.238115 
L 196.290958 124.243459 
L 201.826279 132.304107 
L 204.040408 134.973437 
L 206.254537 137.099141 
L 208.468666 138.805828 
L 212.896923 142.013793 
L 218.432245 146.445464 
L 220.646374 147.795324 
L 223.967567 149.278531 
L 226.181695 150.439868 
L 227.28876 151.243995 
L 228.395824 152.248131 
L 229.502889 153.460684 
L 231.717017 156.405085 
L 235.03821 161.168772 
L 236.145275 162.54298 
L 237.252339 163.706233 
L 238.359403 164.627254 
L 239.466468 165.300603 
L 240.573532 165.745717 
L 241.680597 166.003307 
L 243.894725 166.191573 
L 246.108854 166.391786 
L 247.215918 166.653428 
L 248.322983 167.087861 
L 249.430047 167.727157 
L 250.537111 168.588398 
L 251.644176 169.673594 
L 252.75124 170.970572 
L 254.965369 174.091548 
L 258.286562 179.488857 
L 261.607755 184.729336 
L 263.821884 187.747441 
L 266.036013 190.326529 
L 269.357206 193.634831 
L 273.785463 197.918738 
L 277.106656 201.193731 
L 279.320785 203.025615 
L 280.427849 203.7193 
L 281.534914 204.224104 
L 282.641978 204.525538 
L 283.749042 204.625966 
L 284.856107 204.54556 
L 287.070235 204.001477 
L 289.284364 203.312557 
L 290.391429 203.061322 
L 291.498493 202.941177 
L 292.605557 202.989733 
L 293.712622 203.22982 
L 294.819686 203.668213 
L 295.92675 204.295675 
L 298.140879 206.009694 
L 303.676201 210.928976 
L 305.89033 212.368569 
L 308.104458 213.454682 
L 311.425651 214.998784 
L 313.63978 216.33231 
L 319.175102 220.150639 
L 320.282166 220.700271 
L 322.496295 221.436493 
L 325.817488 222.163434 
L 326.924553 222.537923 
L 328.031617 223.072073 
L 329.138681 223.797592 
L 330.245746 224.720345 
L 332.459874 227.04437 
L 335.781068 230.761057 
L 336.888132 231.742785 
L 337.995196 232.476205 
L 339.102261 232.912451 
L 340.209325 233.023047 
L 341.316389 232.800607 
L 342.423454 232.257801 
L 343.530518 231.425015 
L 344.637582 230.347112 
L 346.851711 227.685345 
L 350.172904 223.392977 
L 352.387033 221.033084 
L 353.494097 220.140735 
L 354.601162 219.47542 
L 355.708226 219.047504 
L 356.81529 218.854069 
L 357.922355 218.879249 
L 359.029419 219.095115 
L 361.243548 219.935978 
L 364.564758 221.434851 
L 365.67187 221.773132 
L 366.77907 221.94459 
L 367.886464 221.908017 
L 368.994241 221.632257 
L 370.102718 221.097575 
L 371.212384 220.296372 
L 372.323956 219.233312 
L 373.438417 217.924957 
L 375.681518 214.693117 
L 381.46967 205.299792 
L 382.679643 203.668566 
L 383.914203 202.254362 
L 385.176614 201.098309 
L 386.47024 200.223753 
L 387.798599 199.630384 
L 389.16545 199.28946 
L 392.031594 199.096147 
L 393.540847 199.039829 
L 395.108934 198.844833 
L 396.743362 198.386954 
L 398.453315 197.563804 
L 400.25035 196.310075 
L 402.149454 194.604133 
L 404.170571 192.460522 
L 406.340727 189.902978 
L 408.697218 186.914874 
L 411.296363 183.389021 
L 417.744522 174.175094 
L 422.249586 169.05798 
L 428.62 165.929467 
L 428.62 165.929467 
" style="fill:none;stroke:#000000;stroke-linecap:square;stroke-width:1.5;"/>
   </g>
   <g id="patch_3">
    <path d="M 32.56 317.72 
L 32.56 13.32 
" style="fill:none;stroke:#000000;stroke-linecap:square;stroke-linejoin:miter;stroke-width:0.8;"/>
   </g>
   <g id="patch_4">
    <path d="M 447.48 317.72 
L 447.48 13.32 
" style="fill:none;stroke:#000000;stroke-linecap:square;stroke-linejoin:miter;stroke-width:0.8;"/>
   </g>
   <g id="patch_5">
    <path d="M 32.56 317.72 
L 447.48 317.72 
" style="fill:none;stroke:#000000;stroke-linecap:square;stroke-linejoin:miter;stroke-width:0.8;"/>
   </g>
   <g id="patch_6">
    <path d="M 32.56 13.32 
L 447.48 13.32 
" style="fill:none;stroke:#000000;stroke-linecap:square;stroke-linejoin:miter;stroke-width:0.8;"/>
   </g>
   <g id="legend_1">
    <g id="patch_7">
     <path d="M 326.197188 50.67625 
L 440.48 50.67625 
Q 442.48 50.67625 442.48 48.67625 
L 442.48 20.32 
Q 442.48 18.32 440.48 18.32 
L 326.197188 18.32 
Q 324.197188 18.32 324.197188 20.32 
L 324.197188 48.67625 
Q 324.197188 50.67625 326.197188 50.67625 
z
" style="fill:#ffffff;opacity:0.8;stroke:#cccccc;stroke-linejoin:miter;"/>
    </g>
    <g id="line2d_27">
     <path d="M 328.197188 26.418437 
L 348.197188 26.418437 
" style="fill:none;stroke:#000000;stroke-dasharray:1.85,0.8;stroke-dashoffset:0;stroke-width:0.5;"/>
    </g>
    <g id="line2d_28">
     <g>
      <use style="stroke:#000000;" x="338.197188" xlink:href="#m696773d5dc" y="26.418437"/>
     </g>
    </g>
    <g id="text_13">
     <!-- Original line -->
     <defs>
      <path d="M 39.40625 66.21875 
Q 28.65625 66.21875 22.328125 58.203125 
Q 16.015625 50.203125 16.015625 36.375 
Q 16.015625 22.609375 22.328125 14.59375 
Q 28.65625 6.59375 39.40625 6.59375 
Q 50.140625 6.59375 56.421875 14.59375 
Q 62.703125 22.609375 62.703125 36.375 
Q 62.703125 50.203125 56.421875 58.203125 
Q 50.140625 66.21875 39.40625 66.21875 
z
M 39.40625 74.21875 
Q 54.734375 74.21875 63.90625 63.9375 
Q 73.09375 53.65625 73.09375 36.375 
Q 73.09375 19.140625 63.90625 8.859375 
Q 54.734375 -1.421875 39.40625 -1.421875 
Q 24.03125 -1.421875 14.8125 8.828125 
Q 5.609375 19.09375 5.609375 36.375 
Q 5.609375 53.65625 14.8125 63.9375 
Q 24.03125 74.21875 39.40625 74.21875 
z
" id="DejaVuSans-4f"/>
      <path d="M 41.109375 46.296875 
Q 39.59375 47.171875 37.8125 47.578125 
Q 36.03125 48 33.890625 48 
Q 26.265625 48 22.1875 43.046875 
Q 18.109375 38.09375 18.109375 28.8125 
L 18.109375 0 
L 9.078125 0 
L 9.078125 54.6875 
L 18.109375 54.6875 
L 18.109375 46.1875 
Q 20.953125 51.171875 25.484375 53.578125 
Q 30.03125 56 36.53125 56 
Q 37.453125 56 38.578125 55.875 
Q 39.703125 55.765625 41.0625 55.515625 
z
" id="DejaVuSans-72"/>
      <path d="M 9.421875 54.6875 
L 18.40625 54.6875 
L 18.40625 0 
L 9.421875 0 
z
M 9.421875 75.984375 
L 18.40625 75.984375 
L 18.40625 64.59375 
L 9.421875 64.59375 
z
" id="DejaVuSans-69"/>
      <path d="M 45.40625 27.984375 
Q 45.40625 37.75 41.375 43.109375 
Q 37.359375 48.484375 30.078125 48.484375 
Q 22.859375 48.484375 18.828125 43.109375 
Q 14.796875 37.75 14.796875 27.984375 
Q 14.796875 18.265625 18.828125 12.890625 
Q 22.859375 7.515625 30.078125 7.515625 
Q 37.359375 7.515625 41.375 12.890625 
Q 45.40625 18.265625 45.40625 27.984375 
z
M 54.390625 6.78125 
Q 54.390625 -7.171875 48.1875 -13.984375 
Q 42 -20.796875 29.203125 -20.796875 
Q 24.46875 -20.796875 20.265625 -20.09375 
Q 16.0625 -19.390625 12.109375 -17.921875 
L 12.109375 -9.1875 
Q 16.0625 -11.328125 19.921875 -12.34375 
Q 23.78125 -13.375 27.78125 -13.375 
Q 36.625 -13.375 41.015625 -8.765625 
Q 45.40625 -4.15625 45.40625 5.171875 
L 45.40625 9.625 
Q 42.625 4.78125 38.28125 2.390625 
Q 33.9375 0 27.875 0 
Q 17.828125 0 11.671875 7.65625 
Q 5.515625 15.328125 5.515625 27.984375 
Q 5.515625 40.671875 11.671875 48.328125 
Q 17.828125 56 27.875 56 
Q 33.9375 56 38.28125 53.609375 
Q 42.625 51.21875 45.40625 46.390625 
L 45.40625 54.6875 
L 54.390625 54.6875 
z
" id="DejaVuSans-67"/>
      <path d="M 54.890625 33.015625 
L 54.890625 0 
L 45.90625 0 
L 45.90625 32.71875 
Q 45.90625 40.484375 42.875 44.328125 
Q 39.84375 48.1875 33.796875 48.1875 
Q 26.515625 48.1875 22.3125 43.546875 
Q 18.109375 38.921875 18.109375 30.90625 
L 18.109375 0 
L 9.078125 0 
L 9.078125 54.6875 
L 18.109375 54.6875 
L 18.109375 46.1875 
Q 21.34375 51.125 25.703125 53.5625 
Q 30.078125 56 35.796875 56 
Q 45.21875 56 50.046875 50.171875 
Q 54.890625 44.34375 54.890625 33.015625 
z
" id="DejaVuSans-6e"/>
      <path d="M 34.28125 27.484375 
Q 23.390625 27.484375 19.1875 25 
Q 14.984375 22.515625 14.984375 16.5 
Q 14.984375 11.71875 18.140625 8.90625 
Q 21.296875 6.109375 26.703125 6.109375 
Q 34.1875 6.109375 38.703125 11.40625 
Q 43.21875 16.703125 43.21875 25.484375 
L 43.21875 27.484375 
z
M 52.203125 31.203125 
L 52.203125 0 
L 43.21875 0 
L 43.21875 8.296875 
Q 40.140625 3.328125 35.546875 0.953125 
Q 30.953125 -1.421875 24.3125 -1.421875 
Q 15.921875 -1.421875 10.953125 3.296875 
Q 6 8.015625 6 15.921875 
Q 6 25.140625 12.171875 29.828125 
Q 18.359375 34.515625 30.609375 34.515625 
L 43.21875 34.515625 
L 43.21875 35.40625 
Q 43.21875 41.609375 39.140625 45 
Q 35.0625 48.390625 27.6875 48.390625 
Q 23 48.390625 18.546875 47.265625 
Q 14.109375 46.140625 10.015625 43.890625 
L 10.015625 52.203125 
Q 14.9375 54.109375 19.578125 55.046875 
Q 24.21875 56 28.609375 56 
Q 40.484375 56 46.34375 49.84375 
Q 52.203125 43.703125 52.203125 31.203125 
z
" id="DejaVuSans-61"/>
      <path d="M 9.421875 75.984375 
L 18.40625 75.984375 
L 18.40625 0 
L 9.421875 0 
z
" id="DejaVuSans-6c"/>
      <path id="DejaVuSans-20"/>
      <path d="M 56.203125 29.59375 
L 56.203125 25.203125 
L 14.890625 25.203125 
Q 15.484375 15.921875 20.484375 11.0625 
Q 25.484375 6.203125 34.421875 6.203125 
Q 39.59375 6.203125 44.453125 7.46875 
Q 49.3125 8.734375 54.109375 11.28125 
L 54.109375 2.78125 
Q 49.265625 0.734375 44.1875 -0.34375 
Q 39.109375 -1.421875 33.890625 -1.421875 
Q 20.796875 -1.421875 13.15625 6.1875 
Q 5.515625 13.8125 5.515625 26.8125 
Q 5.515625 40.234375 12.765625 48.109375 
Q 20.015625 56 32.328125 56 
Q 43.359375 56 49.78125 48.890625 
Q 56.203125 41.796875 56.203125 29.59375 
z
M 47.21875 32.234375 
Q 47.125 39.59375 43.09375 43.984375 
Q 39.0625 48.390625 32.421875 48.390625 
Q 24.90625 48.390625 20.390625 44.140625 
Q 15.875 39.890625 15.1875 32.171875 
z
" id="DejaVuSans-65"/>
     </defs>
     <g transform="translate(356.197188 29.918437)scale(0.1 -0.1)">
      <use xlink:href="#DejaVuSans-4f"/>
      <use x="78.710938" xlink:href="#DejaVuSans-72"/>
      <use x="119.824219" xlink:href="#DejaVuSans-69"/>
      <use x="147.607422" xlink:href="#DejaVuSans-67"/>
      <use x="211.083984" xlink:href="#DejaVuSans-69"/>
      <use x="238.867188" xlink:href="#DejaVuSans-6e"/>
      <use x="302.246094" xlink:href="#DejaVuSans-61"/>
      <use x="363.525391" xlink:href="#DejaVuSans-6c"/>
      <use x="391.308594" xlink:href="#DejaVuSans-20"/>
      <use x="423.095703" xlink:href="#DejaVuSans-6c"/>
      <use x="450.878906" xlink:href="#DejaVuSans-69"/>
      <use x="478.662109" xlink:href="#DejaVuSans-6e"/>
      <use x="542.041016" xlink:href="#DejaVuSans-65"/>
     </g>
    </g>
    <g id="line2d_29">
     <path d="M 328.197188 41.096563 
L 348.197188 41.096563 
" style="fill:none;stroke:#000000;stroke-linecap:square;stroke-width:1.5;"/>
    </g>
    <g id="line2d_30"/>
    <g id="text_14">
     <!-- Smoothed curve -->
     <defs>
      <path d="M 53.515625 70.515625 
L 53.515625 60.890625 
Q 47.90625 63.578125 42.921875 64.890625 
Q 37.9375 66.21875 33.296875 66.21875 
Q 25.25 66.21875 20.875 63.09375 
Q 16.5 59.96875 16.5 54.203125 
Q 16.5 49.359375 19.40625 46.890625 
Q 22.3125 44.4375 30.421875 42.921875 
L 36.375 41.703125 
Q 47.40625 39.59375 52.65625 34.296875 
Q 57.90625 29 57.90625 20.125 
Q 57.90625 9.515625 50.796875 4.046875 
Q 43.703125 -1.421875 29.984375 -1.421875 
Q 24.8125 -1.421875 18.96875 -0.25 
Q 13.140625 0.921875 6.890625 3.21875 
L 6.890625 13.375 
Q 12.890625 10.015625 18.65625 8.296875 
Q 24.421875 6.59375 29.984375 6.59375 
Q 38.421875 6.59375 43.015625 9.90625 
Q 47.609375 13.234375 47.609375 19.390625 
Q 47.609375 24.75 44.3125 27.78125 
Q 41.015625 30.8125 33.5 32.328125 
L 27.484375 33.5 
Q 16.453125 35.6875 11.515625 40.375 
Q 6.59375 45.0625 6.59375 53.421875 
Q 6.59375 63.09375 13.40625 68.65625 
Q 20.21875 74.21875 32.171875 74.21875 
Q 37.3125 74.21875 42.625 73.28125 
Q 47.953125 72.359375 53.515625 70.515625 
z
" id="DejaVuSans-53"/>
      <path d="M 52 44.1875 
Q 55.375 50.25 60.0625 53.125 
Q 64.75 56 71.09375 56 
Q 79.640625 56 84.28125 50.015625 
Q 88.921875 44.046875 88.921875 33.015625 
L 88.921875 0 
L 79.890625 0 
L 79.890625 32.71875 
Q 79.890625 40.578125 77.09375 44.375 
Q 74.3125 48.1875 68.609375 48.1875 
Q 61.625 48.1875 57.5625 43.546875 
Q 53.515625 38.921875 53.515625 30.90625 
L 53.515625 0 
L 44.484375 0 
L 44.484375 32.71875 
Q 44.484375 40.625 41.703125 44.40625 
Q 38.921875 48.1875 33.109375 48.1875 
Q 26.21875 48.1875 22.15625 43.53125 
Q 18.109375 38.875 18.109375 30.90625 
L 18.109375 0 
L 9.078125 0 
L 9.078125 54.6875 
L 18.109375 54.6875 
L 18.109375 46.1875 
Q 21.1875 51.21875 25.484375 53.609375 
Q 29.78125 56 35.6875 56 
Q 41.65625 56 45.828125 52.96875 
Q 50 49.953125 52 44.1875 
z
" id="DejaVuSans-6d"/>
      <path d="M 30.609375 48.390625 
Q 23.390625 48.390625 19.1875 42.75 
Q 14.984375 37.109375 14.984375 27.296875 
Q 14.984375 17.484375 19.15625 11.84375 
Q 23.34375 6.203125 30.609375 6.203125 
Q 37.796875 6.203125 41.984375 11.859375 
Q 46.1875 17.53125 46.1875 27.296875 
Q 46.1875 37.015625 41.984375 42.703125 
Q 37.796875 48.390625 30.609375 48.390625 
z
M 30.609375 56 
Q 42.328125 56 49.015625 48.375 
Q 55.71875 40.765625 55.71875 27.296875 
Q 55.71875 13.875 49.015625 6.21875 
Q 42.328125 -1.421875 30.609375 -1.421875 
Q 18.84375 -1.421875 12.171875 6.21875 
Q 5.515625 13.875 5.515625 27.296875 
Q 5.515625 40.765625 12.171875 48.375 
Q 18.84375 56 30.609375 56 
z
" id="DejaVuSans-6f"/>
      <path d="M 18.3125 70.21875 
L 18.3125 54.6875 
L 36.8125 54.6875 
L 36.8125 47.703125 
L 18.3125 47.703125 
L 18.3125 18.015625 
Q 18.3125 11.328125 20.140625 9.421875 
Q 21.96875 7.515625 27.59375 7.515625 
L 36.8125 7.515625 
L 36.8125 0 
L 27.59375 0 
Q 17.1875 0 13.234375 3.875 
Q 9.28125 7.765625 9.28125 18.015625 
L 9.28125 47.703125 
L 2.6875 47.703125 
L 2.6875 54.6875 
L 9.28125 54.6875 
L 9.28125 70.21875 
z
" id="DejaVuSans-74"/>
      <path d="M 54.890625 33.015625 
L 54.890625 0 
L 45.90625 0 
L 45.90625 32.71875 
Q 45.90625 40.484375 42.875 44.328125 
Q 39.84375 48.1875 33.796875 48.1875 
Q 26.515625 48.1875 22.3125 43.546875 
Q 18.109375 38.921875 18.109375 30.90625 
L 18.109375 0 
L 9.078125 0 
L 9.078125 75.984375 
L 18.109375 75.984375 
L 18.109375 46.1875 
Q 21.34375 51.125 25.703125 53.5625 
Q 30.078125 56 35.796875 56 
Q 45.21875 56 50.046875 50.171875 
Q 54.890625 44.34375 54.890625 33.015625 
z
" id="DejaVuSans-68"/>
      <path d="M 45.40625 46.390625 
L 45.40625 75.984375 
L 54.390625 75.984375 
L 54.390625 0 
L 45.40625 0 
L 45.40625 8.203125 
Q 42.578125 3.328125 38.25 0.953125 
Q 33.9375 -1.421875 27.875 -1.421875 
Q 17.96875 -1.421875 11.734375 6.484375 
Q 5.515625 14.40625 5.515625 27.296875 
Q 5.515625 40.1875 11.734375 48.09375 
Q 17.96875 56 27.875 56 
Q 33.9375 56 38.25 53.625 
Q 42.578125 51.265625 45.40625 46.390625 
z
M 14.796875 27.296875 
Q 14.796875 17.390625 18.875 11.75 
Q 22.953125 6.109375 30.078125 6.109375 
Q 37.203125 6.109375 41.296875 11.75 
Q 45.40625 17.390625 45.40625 27.296875 
Q 45.40625 37.203125 41.296875 42.84375 
Q 37.203125 48.484375 30.078125 48.484375 
Q 22.953125 48.484375 18.875 42.84375 
Q 14.796875 37.203125 14.796875 27.296875 
z
" id="DejaVuSans-64"/>
      <path d="M 48.78125 52.59375 
L 48.78125 44.1875 
Q 44.96875 46.296875 41.140625 47.34375 
Q 37.3125 48.390625 33.40625 48.390625 
Q 24.65625 48.390625 19.8125 42.84375 
Q 14.984375 37.3125 14.984375 27.296875 
Q 14.984375 17.28125 19.8125 11.734375 
Q 24.65625 6.203125 33.40625 6.203125 
Q 37.3125 6.203125 41.140625 7.25 
Q 44.96875 8.296875 48.78125 10.40625 
L 48.78125 2.09375 
Q 45.015625 0.34375 40.984375 -0.53125 
Q 36.96875 -1.421875 32.421875 -1.421875 
Q 20.0625 -1.421875 12.78125 6.34375 
Q 5.515625 14.109375 5.515625 27.296875 
Q 5.515625 40.671875 12.859375 48.328125 
Q 20.21875 56 33.015625 56 
Q 37.15625 56 41.109375 55.140625 
Q 45.0625 54.296875 48.78125 52.59375 
z
" id="DejaVuSans-63"/>
      <path d="M 8.5 21.578125 
L 8.5 54.6875 
L 17.484375 54.6875 
L 17.484375 21.921875 
Q 17.484375 14.15625 20.5 10.265625 
Q 23.53125 6.390625 29.59375 6.390625 
Q 36.859375 6.390625 41.078125 11.03125 
Q 45.3125 15.671875 45.3125 23.6875 
L 45.3125 54.6875 
L 54.296875 54.6875 
L 54.296875 0 
L 45.3125 0 
L 45.3125 8.40625 
Q 42.046875 3.421875 37.71875 1 
Q 33.40625 -1.421875 27.6875 -1.421875 
Q 18.265625 -1.421875 13.375 4.4375 
Q 8.5 10.296875 8.5 21.578125 
z
M 31.109375 56 
z
" id="DejaVuSans-75"/>
      <path d="M 2.984375 54.6875 
L 12.5 54.6875 
L 29.59375 8.796875 
L 46.6875 54.6875 
L 56.203125 54.6875 
L 35.6875 0 
L 23.484375 0 
z
" id="DejaVuSans-76"/>
     </defs>
     <g transform="translate(356.197188 44.596563)scale(0.1 -0.1)">
      <use xlink:href="#DejaVuSans-53"/>
      <use x="63.476562" xlink:href="#DejaVuSans-6d"/>
      <use x="160.888672" xlink:href="#DejaVuSans-6f"/>
      <use x="222.070312" xlink:href="#DejaVuSans-6f"/>
      <use x="283.251953" xlink:href="#DejaVuSans-74"/>
      <use x="322.460938" xlink:href="#DejaVuSans-68"/>
      <use x="385.839844" xlink:href="#DejaVuSans-65"/>
      <use x="447.363281" xlink:href="#DejaVuSans-64"/>
      <use x="510.839844" xlink:href="#DejaVuSans-20"/>
      <use x="542.626953" xlink:href="#DejaVuSans-63"/>
      <use x="597.607422" xlink:href="#DejaVuSans-75"/>
      <use x="660.986328" xlink:href="#DejaVuSans-72"/>
      <use x="702.099609" xlink:href="#DejaVuSans-76"/>
      <use x="761.279297" xlink:href="#DejaVuSans-65"/>
     </g>
    </g>
   </g>
  </g>
 </g>
 <defs>
  <clipPath id="p288438749a">
   <rect height="304.4" width="414.92" x="32.56" y="13.32"/>
  </clipPath>
 </defs>
</svg>
