<?xml version="1.0" encoding="utf-8" standalone="no"?>
<!DOCTYPE svg PUBLIC "-//W3C//DTD SVG 1.1//EN"
  "http://www.w3.org/Graphics/SVG/1.1/DTD/svg11.dtd">
<!-- Created with matplotlib (http://matplotlib.org/) -->
<svg height="345.6pt" version="1.1" viewBox="0 0 460.8 345.6" width="460.8pt" xmlns="http://www.w3.org/2000/svg" xmlns:xlink="http://www.w3.org/1999/xlink">
 <defs>
  <style type="text/css">
*{stroke-linecap:butt;stroke-linejoin:round;}
  </style>
 </defs>
 <g id="figure_1">
  <g id="patch_1">
   <path d="M 0 345.6 
L 460.8 345.6 
L 460.8 0 
L 0 0 
z
" style="fill:#ffffff;"/>
  </g>
  <g id="axes_1">
   <g id="patch_2">
    <path d="M 32.56 317.72 
L 447.48 317.72 
L 447.48 13.32 
L 32.56 13.32 
z
" style="fill:#ffffff;"/>
   </g>
   <g id="matplotlib.axis_1">
    <g id="xtick_1">
     <g id="line2d_1">
      <path clip-path="url(#pd61253028a)" d="M 51.42 317.72 
L 51.42 13.32 
" style="fill:none;stroke:#b0b0b0;stroke-dasharray:1.85,0.8;stroke-dashoffset:0;stroke-width:0.5;"/>
     </g>
     <g id="line2d_2">
      <defs>
       <path d="M 0 0 
L 0 3.5 
" id="me676087acf" style="stroke:#000000;stroke-width:0.8;"/>
      </defs>
      <g>
       <use style="stroke:#000000;stroke-width:0.8;" x="51.42" xlink:href="#me676087acf" y="317.72"/>
      </g>
     </g>
     <g id="text_1">
      <!-- 0 -->
      <defs>
       <path d="M 31.78125 66.40625 
Q 24.171875 66.40625 20.328125 58.90625 
Q 16.5 51.421875 16.5 36.375 
Q 16.5 21.390625 20.328125 13.890625 
Q 24.171875 6.390625 31.78125 6.390625 
Q 39.453125 6.390625 43.28125 13.890625 
Q 47.125 21.390625 47.125 36.375 
Q 47.125 51.421875 43.28125 58.90625 
Q 39.453125 66.40625 31.78125 66.40625 
z
M 31.78125 74.21875 
Q 44.046875 74.21875 50.515625 64.515625 
Q 56.984375 54.828125 56.984375 36.375 
Q 56.984375 17.96875 50.515625 8.265625 
Q 44.046875 -1.421875 31.78125 -1.421875 
Q 19.53125 -1.421875 13.0625 8.265625 
Q 6.59375 17.96875 6.59375 36.375 
Q 6.59375 54.828125 13.0625 64.515625 
Q 19.53125 74.21875 31.78125 74.21875 
z
" id="DejaVuSans-30"/>
      </defs>
      <g transform="translate(48.23875 332.318437)scale(0.1 -0.1)">
       <use xlink:href="#DejaVuSans-30"/>
      </g>
     </g>
    </g>
    <g id="xtick_2">
     <g id="line2d_3">
      <path clip-path="url(#pd61253028a)" d="M 111.453245 317.72 
L 111.453245 13.32 
" style="fill:none;stroke:#b0b0b0;stroke-dasharray:1.85,0.8;stroke-dashoffset:0;stroke-width:0.5;"/>
     </g>
     <g id="line2d_4">
      <g>
       <use style="stroke:#000000;stroke-width:0.8;" x="111.453245" xlink:href="#me676087acf" y="317.72"/>
      </g>
     </g>
     <g id="text_2">
      <!-- 1 -->
      <defs>
       <path d="M 12.40625 8.296875 
L 28.515625 8.296875 
L 28.515625 63.921875 
L 10.984375 60.40625 
L 10.984375 69.390625 
L 28.421875 72.90625 
L 38.28125 72.90625 
L 38.28125 8.296875 
L 54.390625 8.296875 
L 54.390625 0 
L 12.40625 0 
z
" id="DejaVuSans-31"/>
      </defs>
      <g transform="translate(108.271995 332.318437)scale(0.1 -0.1)">
       <use xlink:href="#DejaVuSans-31"/>
      </g>
     </g>
    </g>
    <g id="xtick_3">
     <g id="line2d_5">
      <path clip-path="url(#pd61253028a)" d="M 171.486489 317.72 
L 171.486489 13.32 
" style="fill:none;stroke:#b0b0b0;stroke-dasharray:1.85,0.8;stroke-dashoffset:0;stroke-width:0.5;"/>
     </g>
     <g id="line2d_6">
      <g>
       <use style="stroke:#000000;stroke-width:0.8;" x="171.486489" xlink:href="#me676087acf" y="317.72"/>
      </g>
     </g>
     <g id="text_3">
      <!-- 2 -->
      <defs>
       <path d="M 19.1875 8.296875 
L 53.609375 8.296875 
L 53.609375 0 
L 7.328125 0 
L 7.328125 8.296875 
Q 12.9375 14.109375 22.625 23.890625 
Q 32.328125 33.6875 34.8125 36.53125 
Q 39.546875 41.84375 41.421875 45.53125 
Q 43.3125 49.21875 43.3125 52.78125 
Q 43.3125 58.59375 39.234375 62.25 
Q 35.15625 65.921875 28.609375 65.921875 
Q 23.96875 65.921875 18.8125 64.3125 
Q 13.671875 62.703125 7.8125 59.421875 
L 7.8125 69.390625 
Q 13.765625 71.78125 18.9375 73 
Q 24.125 74.21875 28.421875 74.21875 
Q 39.75 74.21875 46.484375 68.546875 
Q 53.21875 62.890625 53.21875 53.421875 
Q 53.21875 48.921875 51.53125 44.890625 
Q 49.859375 40.875 45.40625 35.40625 
Q 44.1875 33.984375 37.640625 27.21875 
Q 31.109375 20.453125 19.1875 8.296875 
z
" id="DejaVuSans-32"/>
      </defs>
      <g transform="translate(168.305239 332.318437)scale(0.1 -0.1)">
       <use xlink:href="#DejaVuSans-32"/>
      </g>
     </g>
    </g>
    <g id="xtick_4">
     <g id="line2d_7">
      <path clip-path="url(#pd61253028a)" d="M 231.519734 317.72 
L 231.519734 13.32 
" style="fill:none;stroke:#b0b0b0;stroke-dasharray:1.85,0.8;stroke-dashoffset:0;stroke-width:0.5;"/>
     </g>
     <g id="line2d_8">
      <g>
       <use style="stroke:#000000;stroke-width:0.8;" x="231.519734" xlink:href="#me676087acf" y="317.72"/>
      </g>
     </g>
     <g id="text_4">
      <!-- 3 -->
      <defs>
       <path d="M 40.578125 39.3125 
Q 47.65625 37.796875 51.625 33 
Q 55.609375 28.21875 55.609375 21.1875 
Q 55.609375 10.40625 48.1875 4.484375 
Q 40.765625 -1.421875 27.09375 -1.421875 
Q 22.515625 -1.421875 17.65625 -0.515625 
Q 12.796875 0.390625 7.625 2.203125 
L 7.625 11.71875 
Q 11.71875 9.328125 16.59375 8.109375 
Q 21.484375 6.890625 26.8125 6.890625 
Q 36.078125 6.890625 40.9375 10.546875 
Q 45.796875 14.203125 45.796875 21.1875 
Q 45.796875 27.640625 41.28125 31.265625 
Q 36.765625 34.90625 28.71875 34.90625 
L 20.21875 34.90625 
L 20.21875 43.015625 
L 29.109375 43.015625 
Q 36.375 43.015625 40.234375 45.921875 
Q 44.09375 48.828125 44.09375 54.296875 
Q 44.09375 59.90625 40.109375 62.90625 
Q 36.140625 65.921875 28.71875 65.921875 
Q 24.65625 65.921875 20.015625 65.03125 
Q 15.375 64.15625 9.8125 62.3125 
L 9.8125 71.09375 
Q 15.4375 72.65625 20.34375 73.4375 
Q 25.25 74.21875 29.59375 74.21875 
Q 40.828125 74.21875 47.359375 69.109375 
Q 53.90625 64.015625 53.90625 55.328125 
Q 53.90625 49.265625 50.4375 45.09375 
Q 46.96875 40.921875 40.578125 39.3125 
z
" id="DejaVuSans-33"/>
      </defs>
      <g transform="translate(228.338484 332.318437)scale(0.1 -0.1)">
       <use xlink:href="#DejaVuSans-33"/>
      </g>
     </g>
    </g>
    <g id="xtick_5">
     <g id="line2d_9">
      <path clip-path="url(#pd61253028a)" d="M 291.552978 317.72 
L 291.552978 13.32 
" style="fill:none;stroke:#b0b0b0;stroke-dasharray:1.85,0.8;stroke-dashoffset:0;stroke-width:0.5;"/>
     </g>
     <g id="line2d_10">
      <g>
       <use style="stroke:#000000;stroke-width:0.8;" x="291.552978" xlink:href="#me676087acf" y="317.72"/>
      </g>
     </g>
     <g id="text_5">
      <!-- 4 -->
      <defs>
       <path d="M 37.796875 64.3125 
L 12.890625 25.390625 
L 37.796875 25.390625 
z
M 35.203125 72.90625 
L 47.609375 72.90625 
L 47.609375 25.390625 
L 58.015625 25.390625 
L 58.015625 17.1875 
L 47.609375 17.1875 
L 47.609375 0 
L 37.796875 0 
L 37.796875 17.1875 
L 4.890625 17.1875 
L 4.890625 26.703125 
z
" id="DejaVuSans-34"/>
      </defs>
      <g transform="translate(288.371728 332.318437)scale(0.1 -0.1)">
       <use xlink:href="#DejaVuSans-34"/>
      </g>
     </g>
    </g>
    <g id="xtick_6">
     <g id="line2d_11">
      <path clip-path="url(#pd61253028a)" d="M 351.586223 317.72 
L 351.586223 13.32 
" style="fill:none;stroke:#b0b0b0;stroke-dasharray:1.85,0.8;stroke-dashoffset:0;stroke-width:0.5;"/>
     </g>
     <g id="line2d_12">
      <g>
       <use style="stroke:#000000;stroke-width:0.8;" x="351.586223" xlink:href="#me676087acf" y="317.72"/>
      </g>
     </g>
     <g id="text_6">
      <!-- 5 -->
      <defs>
       <path d="M 10.796875 72.90625 
L 49.515625 72.90625 
L 49.515625 64.59375 
L 19.828125 64.59375 
L 19.828125 46.734375 
Q 21.96875 47.46875 24.109375 47.828125 
Q 26.265625 48.1875 28.421875 48.1875 
Q 40.625 48.1875 47.75 41.5 
Q 54.890625 34.8125 54.890625 23.390625 
Q 54.890625 11.625 47.5625 5.09375 
Q 40.234375 -1.421875 26.90625 -1.421875 
Q 22.3125 -1.421875 17.546875 -0.640625 
Q 12.796875 0.140625 7.71875 1.703125 
L 7.71875 11.625 
Q 12.109375 9.234375 16.796875 8.0625 
Q 21.484375 6.890625 26.703125 6.890625 
Q 35.15625 6.890625 40.078125 11.328125 
Q 45.015625 15.765625 45.015625 23.390625 
Q 45.015625 31 40.078125 35.4375 
Q 35.15625 39.890625 26.703125 39.890625 
Q 22.75 39.890625 18.8125 39.015625 
Q 14.890625 38.140625 10.796875 36.28125 
z
" id="DejaVuSans-35"/>
      </defs>
      <g transform="translate(348.404973 332.318437)scale(0.1 -0.1)">
       <use xlink:href="#DejaVuSans-35"/>
      </g>
     </g>
    </g>
    <g id="xtick_7">
     <g id="line2d_13">
      <path clip-path="url(#pd61253028a)" d="M 411.619467 317.72 
L 411.619467 13.32 
" style="fill:none;stroke:#b0b0b0;stroke-dasharray:1.85,0.8;stroke-dashoffset:0;stroke-width:0.5;"/>
     </g>
     <g id="line2d_14">
      <g>
       <use style="stroke:#000000;stroke-width:0.8;" x="411.619467" xlink:href="#me676087acf" y="317.72"/>
      </g>
     </g>
     <g id="text_7">
      <!-- 6 -->
      <defs>
       <path d="M 33.015625 40.375 
Q 26.375 40.375 22.484375 35.828125 
Q 18.609375 31.296875 18.609375 23.390625 
Q 18.609375 15.53125 22.484375 10.953125 
Q 26.375 6.390625 33.015625 6.390625 
Q 39.65625 6.390625 43.53125 10.953125 
Q 47.40625 15.53125 47.40625 23.390625 
Q 47.40625 31.296875 43.53125 35.828125 
Q 39.65625 40.375 33.015625 40.375 
z
M 52.59375 71.296875 
L 52.59375 62.3125 
Q 48.875 64.0625 45.09375 64.984375 
Q 41.3125 65.921875 37.59375 65.921875 
Q 27.828125 65.921875 22.671875 59.328125 
Q 17.53125 52.734375 16.796875 39.40625 
Q 19.671875 43.65625 24.015625 45.921875 
Q 28.375 48.1875 33.59375 48.1875 
Q 44.578125 48.1875 50.953125 41.515625 
Q 57.328125 34.859375 57.328125 23.390625 
Q 57.328125 12.15625 50.6875 5.359375 
Q 44.046875 -1.421875 33.015625 -1.421875 
Q 20.359375 -1.421875 13.671875 8.265625 
Q 6.984375 17.96875 6.984375 36.375 
Q 6.984375 53.65625 15.1875 63.9375 
Q 23.390625 74.21875 37.203125 74.21875 
Q 40.921875 74.21875 44.703125 73.484375 
Q 48.484375 72.75 52.59375 71.296875 
z
" id="DejaVuSans-36"/>
      </defs>
      <g transform="translate(408.438217 332.318437)scale(0.1 -0.1)">
       <use xlink:href="#DejaVuSans-36"/>
      </g>
     </g>
    </g>
   </g>
   <g id="matplotlib.axis_2">
    <g id="ytick_1">
     <g id="line2d_15">
      <path clip-path="url(#pd61253028a)" d="M 32.56 301.285718 
L 447.48 301.285718 
" style="fill:none;stroke:#b0b0b0;stroke-dasharray:1.85,0.8;stroke-dashoffset:0;stroke-width:0.5;"/>
     </g>
     <g id="line2d_16">
      <defs>
       <path d="M 0 0 
L -3.5 0 
" id="m586c019862" style="stroke:#000000;stroke-width:0.8;"/>
      </defs>
      <g>
       <use style="stroke:#000000;stroke-width:0.8;" x="32.56" xlink:href="#m586c019862" y="301.285718"/>
      </g>
     </g>
     <g id="text_8">
      <!-- −2 -->
      <defs>
       <path d="M 10.59375 35.5 
L 73.1875 35.5 
L 73.1875 27.203125 
L 10.59375 27.203125 
z
" id="DejaVuSans-2212"/>
      </defs>
      <g transform="translate(10.817813 305.084937)scale(0.1 -0.1)">
       <use xlink:href="#DejaVuSans-2212"/>
       <use x="83.789062" xlink:href="#DejaVuSans-32"/>
      </g>
     </g>
    </g>
    <g id="ytick_2">
     <g id="line2d_17">
      <path clip-path="url(#pd61253028a)" d="M 32.56 241.252473 
L 447.48 241.252473 
" style="fill:none;stroke:#b0b0b0;stroke-dasharray:1.85,0.8;stroke-dashoffset:0;stroke-width:0.5;"/>
     </g>
     <g id="line2d_18">
      <g>
       <use style="stroke:#000000;stroke-width:0.8;" x="32.56" xlink:href="#m586c019862" y="241.252473"/>
      </g>
     </g>
     <g id="text_9">
      <!-- −1 -->
      <g transform="translate(10.817813 245.051692)scale(0.1 -0.1)">
       <use xlink:href="#DejaVuSans-2212"/>
       <use x="83.789062" xlink:href="#DejaVuSans-31"/>
      </g>
     </g>
    </g>
    <g id="ytick_3">
     <g id="line2d_19">
      <path clip-path="url(#pd61253028a)" d="M 32.56 181.219229 
L 447.48 181.219229 
" style="fill:none;stroke:#b0b0b0;stroke-dasharray:1.85,0.8;stroke-dashoffset:0;stroke-width:0.5;"/>
     </g>
     <g id="line2d_20">
      <g>
       <use style="stroke:#000000;stroke-width:0.8;" x="32.56" xlink:href="#m586c019862" y="181.219229"/>
      </g>
     </g>
     <g id="text_10">
      <!-- 0 -->
      <g transform="translate(19.1975 185.018448)scale(0.1 -0.1)">
       <use xlink:href="#DejaVuSans-30"/>
      </g>
     </g>
    </g>
    <g id="ytick_4">
     <g id="line2d_21">
      <path clip-path="url(#pd61253028a)" d="M 32.56 121.185984 
L 447.48 121.185984 
" style="fill:none;stroke:#b0b0b0;stroke-dasharray:1.85,0.8;stroke-dashoffset:0;stroke-width:0.5;"/>
     </g>
     <g id="line2d_22">
      <g>
       <use style="stroke:#000000;stroke-width:0.8;" x="32.56" xlink:href="#m586c019862" y="121.185984"/>
      </g>
     </g>
     <g id="text_11">
      <!-- 1 -->
      <g transform="translate(19.1975 124.985203)scale(0.1 -0.1)">
       <use xlink:href="#DejaVuSans-31"/>
      </g>
     </g>
    </g>
    <g id="ytick_5">
     <g id="line2d_23">
      <path clip-path="url(#pd61253028a)" d="M 32.56 61.15274 
L 447.48 61.15274 
" style="fill:none;stroke:#b0b0b0;stroke-dasharray:1.85,0.8;stroke-dashoffset:0;stroke-width:0.5;"/>
     </g>
     <g id="line2d_24">
      <g>
       <use style="stroke:#000000;stroke-width:0.8;" x="32.56" xlink:href="#m586c019862" y="61.15274"/>
      </g>
     </g>
     <g id="text_12">
      <!-- 2 -->
      <g transform="translate(19.1975 64.951959)scale(0.1 -0.1)">
       <use xlink:href="#DejaVuSans-32"/>
      </g>
     </g>
    </g>
   </g>
   <g id="line2d_25">
    <path clip-path="url(#pd61253028a)" d="M 51.42 160.555845 
L 59.117959 156.815871 
L 66.815918 148.815944 
L 74.513878 150.719652 
L 82.211837 135.017442 
L 89.909796 127.327767 
L 97.607755 129.736452 
L 105.305714 132.958083 
L 113.003673 121.471939 
L 120.701633 121.182588 
L 128.399592 106.140198 
L 136.097551 115.139394 
L 143.79551 99.628276 
L 151.493469 92.077053 
L 159.191429 95.150935 
L 166.889388 98.549084 
L 174.587347 102.011714 
L 182.285306 115.569371 
L 189.983265 113.300164 
L 197.681224 124.870839 
L 205.379184 142.26116 
L 213.077143 136.029748 
L 220.775102 156.390047 
L 228.473061 140.455193 
L 236.17102 172.752037 
L 243.86898 164.547059 
L 251.566939 163.77264 
L 259.264898 183.73817 
L 266.962857 193.241055 
L 274.660816 195.573231 
L 282.358776 212.477109 
L 290.056735 198.453231 
L 297.754694 202.477187 
L 305.452653 218.404272 
L 313.150612 208.525117 
L 320.848571 230.534447 
L 328.546531 212.302094 
L 336.24449 238.962947 
L 343.942449 235.896053 
L 351.640408 216.774882 
L 359.338367 215.400474 
L 367.036327 227.490869 
L 374.734286 220.131567 
L 382.432245 199.005182 
L 390.130204 192.972007 
L 397.828163 207.686251 
L 405.526122 188.081877 
L 413.224082 183.539385 
L 420.922041 166.708417 
L 428.62 165.929467 
" style="fill:none;stroke:#000000;stroke-dasharray:1.85,0.8;stroke-dashoffset:0;stroke-width:0.5;"/>
    <defs>
     <path d="M -3 3 
L 3 -3 
M -3 -3 
L 3 3 
" id="m33d487bba4" style="stroke:#000000;"/>
    </defs>
    <g clip-path="url(#pd61253028a)">
     <use style="stroke:#000000;" x="51.42" xlink:href="#m33d487bba4" y="160.555845"/>
     <use style="stroke:#000000;" x="59.117959" xlink:href="#m33d487bba4" y="156.815871"/>
     <use style="stroke:#000000;" x="66.815918" xlink:href="#m33d487bba4" y="148.815944"/>
     <use style="stroke:#000000;" x="74.513878" xlink:href="#m33d487bba4" y="150.719652"/>
     <use style="stroke:#000000;" x="82.211837" xlink:href="#m33d487bba4" y="135.017442"/>
     <use style="stroke:#000000;" x="89.909796" xlink:href="#m33d487bba4" y="127.327767"/>
     <use style="stroke:#000000;" x="97.607755" xlink:href="#m33d487bba4" y="129.736452"/>
     <use style="stroke:#000000;" x="105.305714" xlink:href="#m33d487bba4" y="132.958083"/>
     <use style="stroke:#000000;" x="113.003673" xlink:href="#m33d487bba4" y="121.471939"/>
     <use style="stroke:#000000;" x="120.701633" xlink:href="#m33d487bba4" y="121.182588"/>
     <use style="stroke:#000000;" x="128.399592" xlink:href="#m33d487bba4" y="106.140198"/>
     <use style="stroke:#000000;" x="136.097551" xlink:href="#m33d487bba4" y="115.139394"/>
     <use style="stroke:#000000;" x="143.79551" xlink:href="#m33d487bba4" y="99.628276"/>
     <use style="stroke:#000000;" x="151.493469" xlink:href="#m33d487bba4" y="92.077053"/>
     <use style="stroke:#000000;" x="159.191429" xlink:href="#m33d487bba4" y="95.150935"/>
     <use style="stroke:#000000;" x="166.889388" xlink:href="#m33d487bba4" y="98.549084"/>
     <use style="stroke:#000000;" x="174.587347" xlink:href="#m33d487bba4" y="102.011714"/>
     <use style="stroke:#000000;" x="182.285306" xlink:href="#m33d487bba4" y="115.569371"/>
     <use style="stroke:#000000;" x="189.983265" xlink:href="#m33d487bba4" y="113.300164"/>
     <use style="stroke:#000000;" x="197.681224" xlink:href="#m33d487bba4" y="124.870839"/>
     <use style="stroke:#000000;" x="205.379184" xlink:href="#m33d487bba4" y="142.26116"/>
     <use style="stroke:#000000;" x="213.077143" xlink:href="#m33d487bba4" y="136.029748"/>
     <use style="stroke:#000000;" x="220.775102" xlink:href="#m33d487bba4" y="156.390047"/>
     <use style="stroke:#000000;" x="228.473061" xlink:href="#m33d487bba4" y="140.455193"/>
     <use style="stroke:#000000;" x="236.17102" xlink:href="#m33d487bba4" y="172.752037"/>
     <use style="stroke:#000000;" x="243.86898" xlink:href="#m33d487bba4" y="164.547059"/>
     <use style="stroke:#000000;" x="251.566939" xlink:href="#m33d487bba4" y="163.77264"/>
     <use style="stroke:#000000;" x="259.264898" xlink:href="#m33d487bba4" y="183.73817"/>
     <use style="stroke:#000000;" x="266.962857" xlink:href="#m33d487bba4" y="193.241055"/>
     <use style="stroke:#000000;" x="274.660816" xlink:href="#m33d487bba4" y="195.573231"/>
     <use style="stroke:#000000;" x="282.358776" xlink:href="#m33d487bba4" y="212.477109"/>
     <use style="stroke:#000000;" x="290.056735" xlink:href="#m33d487bba4" y="198.453231"/>
     <use style="stroke:#000000;" x="297.754694" xlink:href="#m33d487bba4" y="202.477187"/>
     <use style="stroke:#000000;" x="305.452653" xlink:href="#m33d487bba4" y="218.404272"/>
     <use style="stroke:#000000;" x="313.150612" xlink:href="#m33d487bba4" y="208.525117"/>
     <use style="stroke:#000000;" x="320.848571" xlink:href="#m33d487bba4" y="230.534447"/>
     <use style="stroke:#000000;" x="328.546531" xlink:href="#m33d487bba4" y="212.302094"/>
     <use style="stroke:#000000;" x="336.24449" xlink:href="#m33d487bba4" y="238.962947"/>
     <use style="stroke:#000000;" x="343.942449" xlink:href="#m33d487bba4" y="235.896053"/>
     <use style="stroke:#000000;" x="351.640408" xlink:href="#m33d487bba4" y="216.774882"/>
     <use style="stroke:#000000;" x="359.338367" xlink:href="#m33d487bba4" y="215.400474"/>
     <use style="stroke:#000000;" x="367.036327" xlink:href="#m33d487bba4" y="227.490869"/>
     <use style="stroke:#000000;" x="374.734286" xlink:href="#m33d487bba4" y="220.131567"/>
     <use style="stroke:#000000;" x="382.432245" xlink:href="#m33d487bba4" y="199.005182"/>
     <use style="stroke:#000000;" x="390.130204" xlink:href="#m33d487bba4" y="192.972007"/>
     <use style="stroke:#000000;" x="397.828163" xlink:href="#m33d487bba4" y="207.686251"/>
     <use style="stroke:#000000;" x="405.526122" xlink:href="#m33d487bba4" y="188.081877"/>
     <use style="stroke:#000000;" x="413.224082" xlink:href="#m33d487bba4" y="183.539385"/>
     <use style="stroke:#000000;" x="420.922041" xlink:href="#m33d487bba4" y="166.708417"/>
     <use style="stroke:#000000;" x="428.62" xlink:href="#m33d487bba4" y="165.929467"/>
    </g>
   </g>
   <g id="line2d_26">
    <path clip-path="url(#pd61253028a)" d="M 51.42 160.555845 
L 55.966395 158.127455 
L 57.94201 156.893159 
L 59.719237 155.645462 
L 61.298076 154.384365 
L 65.155322 150.941865 
L 66.391115 150.237184 
L 67.626907 149.787736 
L 68.8627 149.593519 
L 70.098493 149.654534 
L 71.334286 149.866775 
L 72.570078 149.69975 
L 73.805871 149.078994 
L 75.041664 148.004506 
L 76.277457 146.476288 
L 77.51325 144.494337 
L 79.984835 139.737915 
L 82.456421 135.651443 
L 83.692214 133.91795 
L 84.928006 132.390952 
L 86.163799 131.070637 
L 87.399592 129.987986 
L 88.635385 129.165586 
L 89.871177 128.603436 
L 91.10697 128.301536 
L 92.342763 128.259886 
L 93.578556 128.478486 
L 97.285934 129.72109 
L 102.229105 131.596476 
L 103.464898 131.687239 
L 104.700691 131.39896 
L 105.936484 130.73164 
L 107.172276 129.685277 
L 108.408069 128.259873 
L 110.879655 124.922299 
L 112.115447 123.625429 
L 113.35124 122.617116 
L 114.587033 121.897362 
L 115.822826 121.466167 
L 117.058619 121.314241 
L 118.294411 121.014318 
L 119.530204 120.334187 
L 120.765997 119.273847 
L 122.00179 117.833299 
L 123.237582 116.012542 
L 125.709168 111.669768 
L 126.944961 110.145594 
L 128.180754 109.241009 
L 129.416546 108.956012 
L 130.652339 109.290603 
L 131.888132 110.244783 
L 133.123925 111.50465 
L 134.359717 112.186072 
L 135.59551 112.235825 
L 136.831303 111.65391 
L 138.067096 110.440327 
L 139.302889 108.595076 
L 141.774474 103.925008 
L 144.24606 99.961995 
L 145.481852 98.288197 
L 146.717645 96.819537 
L 147.953438 95.558163 
L 149.189231 94.551295 
L 150.425024 93.818253 
L 151.660816 93.359035 
L 152.896609 93.173643 
L 154.132402 93.262076 
L 155.368195 93.624276 
L 161.547159 96.196937 
L 171.433501 100.634236 
L 172.669294 101.466535 
L 173.905086 102.558997 
L 175.140879 103.911624 
L 176.376672 105.524415 
L 177.612465 107.39737 
L 178.848257 109.493376 
L 180.08405 111.329954 
L 181.319843 112.758649 
L 182.555636 113.779463 
L 183.791429 114.392394 
L 185.027221 114.597442 
L 187.498807 114.24996 
L 188.7346 114.457838 
L 189.970392 115.022392 
L 191.206185 115.94362 
L 192.441978 117.221523 
L 193.677771 118.856101 
L 196.149356 122.831952 
L 198.620942 127.409343 
L 201.092527 132.586658 
L 202.32832 135.242051 
L 203.564113 137.336261 
L 204.799906 138.821704 
L 206.035699 139.698378 
L 207.271491 139.966284 
L 208.507284 139.625423 
L 209.743077 138.788126 
L 210.97887 138.415965 
L 212.214662 138.729114 
L 213.450455 139.727571 
L 214.686248 141.411337 
L 215.922041 143.780412 
L 217.157834 146.806307 
L 218.393626 149.431775 
L 219.629419 151.121862 
L 220.865212 151.876567 
L 222.101005 151.695891 
L 223.336797 150.579834 
L 225.808383 146.541893 
L 227.044176 145.796504 
L 228.279969 146.294119 
L 229.515761 148.034739 
L 230.751554 151.018363 
L 231.987347 155.244992 
L 233.22314 160.106698 
L 234.458932 164.008479 
L 235.694725 166.866467 
L 236.930518 168.68066 
L 238.166311 169.451061 
L 239.402104 169.177667 
L 241.873689 166.889201 
L 243.109482 165.955008 
L 244.345275 165.212311 
L 245.581068 164.661111 
L 246.81686 164.301408 
L 248.052653 164.145782 
L 249.288446 164.433471 
L 250.524239 165.25566 
L 251.760031 166.612349 
L 252.995824 168.503539 
L 254.231617 170.929228 
L 257.938995 179.737311 
L 259.174788 182.257149 
L 260.410581 184.507349 
L 261.646374 186.48791 
L 262.882166 188.198833 
L 264.117959 189.668121 
L 265.353752 190.951118 
L 266.589545 192.049314 
L 267.825338 192.96271 
L 269.06113 193.691307 
L 271.532716 194.689434 
L 272.768509 195.470659 
L 274.004301 196.62742 
L 275.240094 198.159716 
L 276.475887 200.067546 
L 277.71168 202.350912 
L 278.947473 204.936271 
L 280.183265 206.969119 
L 281.419058 208.204911 
L 282.654851 208.643648 
L 283.890644 208.28533 
L 285.126436 207.129956 
L 287.598022 203.226763 
L 288.833815 201.731259 
L 290.069608 200.700874 
L 291.3054 200.13561 
L 292.541193 200.035466 
L 293.776986 200.400442 
L 295.012779 201.166996 
L 296.248571 202.24117 
L 297.484364 203.622107 
L 298.720157 205.309805 
L 299.95595 207.304265 
L 302.427535 211.997508 
L 303.663328 213.778454 
L 304.899121 214.894334 
L 306.134914 215.345148 
L 307.370706 215.130895 
L 308.606499 214.251577 
L 309.842292 212.849491 
L 311.078085 212.033991 
L 312.313878 212.040306 
L 313.54967 212.868436 
L 314.785463 214.518381 
L 316.021256 216.99014 
L 317.257049 220.243374 
L 318.492841 223.042039 
L 319.728634 224.803615 
L 320.964427 225.528101 
L 322.20022 225.215498 
L 323.436013 223.865805 
L 325.907598 219.106946 
L 327.143391 217.891359 
L 328.379184 217.832739 
L 329.614976 218.931084 
L 330.850769 221.186396 
L 332.086562 224.598675 
L 333.322355 228.627049 
L 334.558148 231.94939 
L 335.79394 234.505602 
L 337.029733 236.295685 
L 338.265526 237.319639 
L 339.501319 237.577463 
L 340.737111 237.116953 
L 341.972904 236.202246 
L 343.208697 234.873796 
L 344.44449 233.131603 
L 345.680283 230.975666 
L 346.916075 228.405986 
L 349.387661 222.752074 
L 350.623454 220.501893 
L 351.859246 218.709073 
L 353.095039 217.373615 
L 354.330832 216.495517 
L 355.566625 216.074566 
L 356.802418 216.049117 
L 358.03821 216.370677 
L 359.274003 217.039246 
L 360.509796 218.054823 
L 361.745589 219.417408 
L 364.217174 222.889071 
L 365.452967 224.161673 
L 366.68876 224.933026 
L 367.924553 225.203131 
L 369.160345 224.971988 
L 370.396138 224.239597 
L 371.631931 223.032685 
L 372.867724 221.459502 
L 374.103516 219.53152 
L 375.339309 217.24874 
L 376.575102 214.61116 
L 377.810895 211.618782 
L 380.28248 205.272728 
L 381.518273 202.61053 
L 382.754066 200.337306 
L 383.989859 198.453058 
L 385.225651 196.957784 
L 386.461444 195.853035 
L 387.697237 195.229821 
L 388.93303 195.1413 
L 390.168823 195.587471 
L 391.404615 196.568334 
L 392.640408 198.083891 
L 395.111994 202.122847 
L 396.347786 203.232038 
L 397.583579 203.456787 
L 398.819372 202.797093 
L 400.055165 201.252955 
L 401.290958 198.824375 
L 402.52675 195.812105 
L 403.762543 193.125864 
L 404.998336 190.82779 
L 406.234129 188.917884 
L 407.469922 187.396146 
L 408.705714 186.262575 
L 409.941507 185.443137 
L 411.1773 184.41041 
L 412.413093 183.060991 
L 413.648885 181.394879 
L 414.884678 179.412074 
L 416.120471 177.112576 
L 417.361473 174.515037 
L 418.741924 172.100083 
L 420.320763 170.078739 
L 422.09799 168.451006 
L 424.073605 167.216882 
L 426.247609 166.376369 
L 428.62 165.929467 
L 428.62 165.929467 
" style="fill:none;stroke:#000000;stroke-linecap:square;stroke-width:1.5;"/>
   </g>
   <g id="patch_3">
    <path d="M 32.56 317.72 
L 32.56 13.32 
" style="fill:none;stroke:#000000;stroke-linecap:square;stroke-linejoin:miter;stroke-width:0.8;"/>
   </g>
   <g id="patch_4">
    <path d="M 447.48 317.72 
L 447.48 13.32 
" style="fill:none;stroke:#000000;stroke-linecap:square;stroke-linejoin:miter;stroke-width:0.8;"/>
   </g>
   <g id="patch_5">
    <path d="M 32.56 317.72 
L 447.48 317.72 
" style="fill:none;stroke:#000000;stroke-linecap:square;stroke-linejoin:miter;stroke-width:0.8;"/>
   </g>
   <g id="patch_6">
    <path d="M 32.56 13.32 
L 447.48 13.32 
" style="fill:none;stroke:#000000;stroke-linecap:square;stroke-linejoin:miter;stroke-width:0.8;"/>
   </g>
   <g id="legend_1">
    <g id="patch_7">
     <path d="M 326.197188 50.67625 
L 440.48 50.67625 
Q 442.48 50.67625 442.48 48.67625 
L 442.48 20.32 
Q 442.48 18.32 440.48 18.32 
L 326.197188 18.32 
Q 324.197188 18.32 324.197188 20.32 
L 324.197188 48.67625 
Q 324.197188 50.67625 326.197188 50.67625 
z
" style="fill:#ffffff;opacity:0.8;stroke:#cccccc;stroke-linejoin:miter;"/>
    </g>
    <g id="line2d_27">
     <path d="M 328.197188 26.418437 
L 348.197188 26.418437 
" style="fill:none;stroke:#000000;stroke-dasharray:1.85,0.8;stroke-dashoffset:0;stroke-width:0.5;"/>
    </g>
    <g id="line2d_28">
     <g>
      <use style="stroke:#000000;" x="338.197188" xlink:href="#m33d487bba4" y="26.418437"/>
     </g>
    </g>
    <g id="text_13">
     <!-- Original line -->
     <defs>
      <path d="M 39.40625 66.21875 
Q 28.65625 66.21875 22.328125 58.203125 
Q 16.015625 50.203125 16.015625 36.375 
Q 16.015625 22.609375 22.328125 14.59375 
Q 28.65625 6.59375 39.40625 6.59375 
Q 50.140625 6.59375 56.421875 14.59375 
Q 62.703125 22.609375 62.703125 36.375 
Q 62.703125 50.203125 56.421875 58.203125 
Q 50.140625 66.21875 39.40625 66.21875 
z
M 39.40625 74.21875 
Q 54.734375 74.21875 63.90625 63.9375 
Q 73.09375 53.65625 73.09375 36.375 
Q 73.09375 19.140625 63.90625 8.859375 
Q 54.734375 -1.421875 39.40625 -1.421875 
Q 24.03125 -1.421875 14.8125 8.828125 
Q 5.609375 19.09375 5.609375 36.375 
Q 5.609375 53.65625 14.8125 63.9375 
Q 24.03125 74.21875 39.40625 74.21875 
z
" id="DejaVuSans-4f"/>
      <path d="M 41.109375 46.296875 
Q 39.59375 47.171875 37.8125 47.578125 
Q 36.03125 48 33.890625 48 
Q 26.265625 48 22.1875 43.046875 
Q 18.109375 38.09375 18.109375 28.8125 
L 18.109375 0 
L 9.078125 0 
L 9.078125 54.6875 
L 18.109375 54.6875 
L 18.109375 46.1875 
Q 20.953125 51.171875 25.484375 53.578125 
Q 30.03125 56 36.53125 56 
Q 37.453125 56 38.578125 55.875 
Q 39.703125 55.765625 41.0625 55.515625 
z
" id="DejaVuSans-72"/>
      <path d="M 9.421875 54.6875 
L 18.40625 54.6875 
L 18.40625 0 
L 9.421875 0 
z
M 9.421875 75.984375 
L 18.40625 75.984375 
L 18.40625 64.59375 
L 9.421875 64.59375 
z
" id="DejaVuSans-69"/>
      <path d="M 45.40625 27.984375 
Q 45.40625 37.75 41.375 43.109375 
Q 37.359375 48.484375 30.078125 48.484375 
Q 22.859375 48.484375 18.828125 43.109375 
Q 14.796875 37.75 14.796875 27.984375 
Q 14.796875 18.265625 18.828125 12.890625 
Q 22.859375 7.515625 30.078125 7.515625 
Q 37.359375 7.515625 41.375 12.890625 
Q 45.40625 18.265625 45.40625 27.984375 
z
M 54.390625 6.78125 
Q 54.390625 -7.171875 48.1875 -13.984375 
Q 42 -20.796875 29.203125 -20.796875 
Q 24.46875 -20.796875 20.265625 -20.09375 
Q 16.0625 -19.390625 12.109375 -17.921875 
L 12.109375 -9.1875 
Q 16.0625 -11.328125 19.921875 -12.34375 
Q 23.78125 -13.375 27.78125 -13.375 
Q 36.625 -13.375 41.015625 -8.765625 
Q 45.40625 -4.15625 45.40625 5.171875 
L 45.40625 9.625 
Q 42.625 4.78125 38.28125 2.390625 
Q 33.9375 0 27.875 0 
Q 17.828125 0 11.671875 7.65625 
Q 5.515625 15.328125 5.515625 27.984375 
Q 5.515625 40.671875 11.671875 48.328125 
Q 17.828125 56 27.875 56 
Q 33.9375 56 38.28125 53.609375 
Q 42.625 51.21875 45.40625 46.390625 
L 45.40625 54.6875 
L 54.390625 54.6875 
z
" id="DejaVuSans-67"/>
      <path d="M 54.890625 33.015625 
L 54.890625 0 
L 45.90625 0 
L 45.90625 32.71875 
Q 45.90625 40.484375 42.875 44.328125 
Q 39.84375 48.1875 33.796875 48.1875 
Q 26.515625 48.1875 22.3125 43.546875 
Q 18.109375 38.921875 18.109375 30.90625 
L 18.109375 0 
L 9.078125 0 
L 9.078125 54.6875 
L 18.109375 54.6875 
L 18.109375 46.1875 
Q 21.34375 51.125 25.703125 53.5625 
Q 30.078125 56 35.796875 56 
Q 45.21875 56 50.046875 50.171875 
Q 54.890625 44.34375 54.890625 33.015625 
z
" id="DejaVuSans-6e"/>
      <path d="M 34.28125 27.484375 
Q 23.390625 27.484375 19.1875 25 
Q 14.984375 22.515625 14.984375 16.5 
Q 14.984375 11.71875 18.140625 8.90625 
Q 21.296875 6.109375 26.703125 6.109375 
Q 34.1875 6.109375 38.703125 11.40625 
Q 43.21875 16.703125 43.21875 25.484375 
L 43.21875 27.484375 
z
M 52.203125 31.203125 
L 52.203125 0 
L 43.21875 0 
L 43.21875 8.296875 
Q 40.140625 3.328125 35.546875 0.953125 
Q 30.953125 -1.421875 24.3125 -1.421875 
Q 15.921875 -1.421875 10.953125 3.296875 
Q 6 8.015625 6 15.921875 
Q 6 25.140625 12.171875 29.828125 
Q 18.359375 34.515625 30.609375 34.515625 
L 43.21875 34.515625 
L 43.21875 35.40625 
Q 43.21875 41.609375 39.140625 45 
Q 35.0625 48.390625 27.6875 48.390625 
Q 23 48.390625 18.546875 47.265625 
Q 14.109375 46.140625 10.015625 43.890625 
L 10.015625 52.203125 
Q 14.9375 54.109375 19.578125 55.046875 
Q 24.21875 56 28.609375 56 
Q 40.484375 56 46.34375 49.84375 
Q 52.203125 43.703125 52.203125 31.203125 
z
" id="DejaVuSans-61"/>
      <path d="M 9.421875 75.984375 
L 18.40625 75.984375 
L 18.40625 0 
L 9.421875 0 
z
" id="DejaVuSans-6c"/>
      <path id="DejaVuSans-20"/>
      <path d="M 56.203125 29.59375 
L 56.203125 25.203125 
L 14.890625 25.203125 
Q 15.484375 15.921875 20.484375 11.0625 
Q 25.484375 6.203125 34.421875 6.203125 
Q 39.59375 6.203125 44.453125 7.46875 
Q 49.3125 8.734375 54.109375 11.28125 
L 54.109375 2.78125 
Q 49.265625 0.734375 44.1875 -0.34375 
Q 39.109375 -1.421875 33.890625 -1.421875 
Q 20.796875 -1.421875 13.15625 6.1875 
Q 5.515625 13.8125 5.515625 26.8125 
Q 5.515625 40.234375 12.765625 48.109375 
Q 20.015625 56 32.328125 56 
Q 43.359375 56 49.78125 48.890625 
Q 56.203125 41.796875 56.203125 29.59375 
z
M 47.21875 32.234375 
Q 47.125 39.59375 43.09375 43.984375 
Q 39.0625 48.390625 32.421875 48.390625 
Q 24.90625 48.390625 20.390625 44.140625 
Q 15.875 39.890625 15.1875 32.171875 
z
" id="DejaVuSans-65"/>
     </defs>
     <g transform="translate(356.197188 29.918437)scale(0.1 -0.1)">
      <use xlink:href="#DejaVuSans-4f"/>
      <use x="78.710938" xlink:href="#DejaVuSans-72"/>
      <use x="119.824219" xlink:href="#DejaVuSans-69"/>
      <use x="147.607422" xlink:href="#DejaVuSans-67"/>
      <use x="211.083984" xlink:href="#DejaVuSans-69"/>
      <use x="238.867188" xlink:href="#DejaVuSans-6e"/>
      <use x="302.246094" xlink:href="#DejaVuSans-61"/>
      <use x="363.525391" xlink:href="#DejaVuSans-6c"/>
      <use x="391.308594" xlink:href="#DejaVuSans-20"/>
      <use x="423.095703" xlink:href="#DejaVuSans-6c"/>
      <use x="450.878906" xlink:href="#DejaVuSans-69"/>
      <use x="478.662109" xlink:href="#DejaVuSans-6e"/>
      <use x="542.041016" xlink:href="#DejaVuSans-65"/>
     </g>
    </g>
    <g id="line2d_29">
     <path d="M 328.197188 41.096563 
L 348.197188 41.096563 
" style="fill:none;stroke:#000000;stroke-linecap:square;stroke-width:1.5;"/>
    </g>
    <g id="line2d_30"/>
    <g id="text_14">
     <!-- Smoothed curve -->
     <defs>
      <path d="M 53.515625 70.515625 
L 53.515625 60.890625 
Q 47.90625 63.578125 42.921875 64.890625 
Q 37.9375 66.21875 33.296875 66.21875 
Q 25.25 66.21875 20.875 63.09375 
Q 16.5 59.96875 16.5 54.203125 
Q 16.5 49.359375 19.40625 46.890625 
Q 22.3125 44.4375 30.421875 42.921875 
L 36.375 41.703125 
Q 47.40625 39.59375 52.65625 34.296875 
Q 57.90625 29 57.90625 20.125 
Q 57.90625 9.515625 50.796875 4.046875 
Q 43.703125 -1.421875 29.984375 -1.421875 
Q 24.8125 -1.421875 18.96875 -0.25 
Q 13.140625 0.921875 6.890625 3.21875 
L 6.890625 13.375 
Q 12.890625 10.015625 18.65625 8.296875 
Q 24.421875 6.59375 29.984375 6.59375 
Q 38.421875 6.59375 43.015625 9.90625 
Q 47.609375 13.234375 47.609375 19.390625 
Q 47.609375 24.75 44.3125 27.78125 
Q 41.015625 30.8125 33.5 32.328125 
L 27.484375 33.5 
Q 16.453125 35.6875 11.515625 40.375 
Q 6.59375 45.0625 6.59375 53.421875 
Q 6.59375 63.09375 13.40625 68.65625 
Q 20.21875 74.21875 32.171875 74.21875 
Q 37.3125 74.21875 42.625 73.28125 
Q 47.953125 72.359375 53.515625 70.515625 
z
" id="DejaVuSans-53"/>
      <path d="M 52 44.1875 
Q 55.375 50.25 60.0625 53.125 
Q 64.75 56 71.09375 56 
Q 79.640625 56 84.28125 50.015625 
Q 88.921875 44.046875 88.921875 33.015625 
L 88.921875 0 
L 79.890625 0 
L 79.890625 32.71875 
Q 79.890625 40.578125 77.09375 44.375 
Q 74.3125 48.1875 68.609375 48.1875 
Q 61.625 48.1875 57.5625 43.546875 
Q 53.515625 38.921875 53.515625 30.90625 
L 53.515625 0 
L 44.484375 0 
L 44.484375 32.71875 
Q 44.484375 40.625 41.703125 44.40625 
Q 38.921875 48.1875 33.109375 48.1875 
Q 26.21875 48.1875 22.15625 43.53125 
Q 18.109375 38.875 18.109375 30.90625 
L 18.109375 0 
L 9.078125 0 
L 9.078125 54.6875 
L 18.109375 54.6875 
L 18.109375 46.1875 
Q 21.1875 51.21875 25.484375 53.609375 
Q 29.78125 56 35.6875 56 
Q 41.65625 56 45.828125 52.96875 
Q 50 49.953125 52 44.1875 
z
" id="DejaVuSans-6d"/>
      <path d="M 30.609375 48.390625 
Q 23.390625 48.390625 19.1875 42.75 
Q 14.984375 37.109375 14.984375 27.296875 
Q 14.984375 17.484375 19.15625 11.84375 
Q 23.34375 6.203125 30.609375 6.203125 
Q 37.796875 6.203125 41.984375 11.859375 
Q 46.1875 17.53125 46.1875 27.296875 
Q 46.1875 37.015625 41.984375 42.703125 
Q 37.796875 48.390625 30.609375 48.390625 
z
M 30.609375 56 
Q 42.328125 56 49.015625 48.375 
Q 55.71875 40.765625 55.71875 27.296875 
Q 55.71875 13.875 49.015625 6.21875 
Q 42.328125 -1.421875 30.609375 -1.421875 
Q 18.84375 -1.421875 12.171875 6.21875 
Q 5.515625 13.875 5.515625 27.296875 
Q 5.515625 40.765625 12.171875 48.375 
Q 18.84375 56 30.609375 56 
z
" id="DejaVuSans-6f"/>
      <path d="M 18.3125 70.21875 
L 18.3125 54.6875 
L 36.8125 54.6875 
L 36.8125 47.703125 
L 18.3125 47.703125 
L 18.3125 18.015625 
Q 18.3125 11.328125 20.140625 9.421875 
Q 21.96875 7.515625 27.59375 7.515625 
L 36.8125 7.515625 
L 36.8125 0 
L 27.59375 0 
Q 17.1875 0 13.234375 3.875 
Q 9.28125 7.765625 9.28125 18.015625 
L 9.28125 47.703125 
L 2.6875 47.703125 
L 2.6875 54.6875 
L 9.28125 54.6875 
L 9.28125 70.21875 
z
" id="DejaVuSans-74"/>
      <path d="M 54.890625 33.015625 
L 54.890625 0 
L 45.90625 0 
L 45.90625 32.71875 
Q 45.90625 40.484375 42.875 44.328125 
Q 39.84375 48.1875 33.796875 48.1875 
Q 26.515625 48.1875 22.3125 43.546875 
Q 18.109375 38.921875 18.109375 30.90625 
L 18.109375 0 
L 9.078125 0 
L 9.078125 75.984375 
L 18.109375 75.984375 
L 18.109375 46.1875 
Q 21.34375 51.125 25.703125 53.5625 
Q 30.078125 56 35.796875 56 
Q 45.21875 56 50.046875 50.171875 
Q 54.890625 44.34375 54.890625 33.015625 
z
" id="DejaVuSans-68"/>
      <path d="M 45.40625 46.390625 
L 45.40625 75.984375 
L 54.390625 75.984375 
L 54.390625 0 
L 45.40625 0 
L 45.40625 8.203125 
Q 42.578125 3.328125 38.25 0.953125 
Q 33.9375 -1.421875 27.875 -1.421875 
Q 17.96875 -1.421875 11.734375 6.484375 
Q 5.515625 14.40625 5.515625 27.296875 
Q 5.515625 40.1875 11.734375 48.09375 
Q 17.96875 56 27.875 56 
Q 33.9375 56 38.25 53.625 
Q 42.578125 51.265625 45.40625 46.390625 
z
M 14.796875 27.296875 
Q 14.796875 17.390625 18.875 11.75 
Q 22.953125 6.109375 30.078125 6.109375 
Q 37.203125 6.109375 41.296875 11.75 
Q 45.40625 17.390625 45.40625 27.296875 
Q 45.40625 37.203125 41.296875 42.84375 
Q 37.203125 48.484375 30.078125 48.484375 
Q 22.953125 48.484375 18.875 42.84375 
Q 14.796875 37.203125 14.796875 27.296875 
z
" id="DejaVuSans-64"/>
      <path d="M 48.78125 52.59375 
L 48.78125 44.1875 
Q 44.96875 46.296875 41.140625 47.34375 
Q 37.3125 48.390625 33.40625 48.390625 
Q 24.65625 48.390625 19.8125 42.84375 
Q 14.984375 37.3125 14.984375 27.296875 
Q 14.984375 17.28125 19.8125 11.734375 
Q 24.65625 6.203125 33.40625 6.203125 
Q 37.3125 6.203125 41.140625 7.25 
Q 44.96875 8.296875 48.78125 10.40625 
L 48.78125 2.09375 
Q 45.015625 0.34375 40.984375 -0.53125 
Q 36.96875 -1.421875 32.421875 -1.421875 
Q 20.0625 -1.421875 12.78125 6.34375 
Q 5.515625 14.109375 5.515625 27.296875 
Q 5.515625 40.671875 12.859375 48.328125 
Q 20.21875 56 33.015625 56 
Q 37.15625 56 41.109375 55.140625 
Q 45.0625 54.296875 48.78125 52.59375 
z
" id="DejaVuSans-63"/>
      <path d="M 8.5 21.578125 
L 8.5 54.6875 
L 17.484375 54.6875 
L 17.484375 21.921875 
Q 17.484375 14.15625 20.5 10.265625 
Q 23.53125 6.390625 29.59375 6.390625 
Q 36.859375 6.390625 41.078125 11.03125 
Q 45.3125 15.671875 45.3125 23.6875 
L 45.3125 54.6875 
L 54.296875 54.6875 
L 54.296875 0 
L 45.3125 0 
L 45.3125 8.40625 
Q 42.046875 3.421875 37.71875 1 
Q 33.40625 -1.421875 27.6875 -1.421875 
Q 18.265625 -1.421875 13.375 4.4375 
Q 8.5 10.296875 8.5 21.578125 
z
M 31.109375 56 
z
" id="DejaVuSans-75"/>
      <path d="M 2.984375 54.6875 
L 12.5 54.6875 
L 29.59375 8.796875 
L 46.6875 54.6875 
L 56.203125 54.6875 
L 35.6875 0 
L 23.484375 0 
z
" id="DejaVuSans-76"/>
     </defs>
     <g transform="translate(356.197188 44.596563)scale(0.1 -0.1)">
      <use xlink:href="#DejaVuSans-53"/>
      <use x="63.476562" xlink:href="#DejaVuSans-6d"/>
      <use x="160.888672" xlink:href="#DejaVuSans-6f"/>
      <use x="222.070312" xlink:href="#DejaVuSans-6f"/>
      <use x="283.251953" xlink:href="#DejaVuSans-74"/>
      <use x="322.460938" xlink:href="#DejaVuSans-68"/>
      <use x="385.839844" xlink:href="#DejaVuSans-65"/>
      <use x="447.363281" xlink:href="#DejaVuSans-64"/>
      <use x="510.839844" xlink:href="#DejaVuSans-20"/>
      <use x="542.626953" xlink:href="#DejaVuSans-63"/>
      <use x="597.607422" xlink:href="#DejaVuSans-75"/>
      <use x="660.986328" xlink:href="#DejaVuSans-72"/>
      <use x="702.099609" xlink:href="#DejaVuSans-76"/>
      <use x="761.279297" xlink:href="#DejaVuSans-65"/>
     </g>
    </g>
   </g>
  </g>
 </g>
 <defs>
  <clipPath id="pd61253028a">
   <rect height="304.4" width="414.92" x="32.56" y="13.32"/>
  </clipPath>
 </defs>
</svg>
